<?xml version="1.0" encoding="UTF-8"?> <svg xmlns="http://www.w3.org/2000/svg" width="12.58" height="22.164" viewBox="0 0 12.58 22.164"><path id="_001-facebook" data-name="001-facebook" d="M8.271,22.164H4.721a1.076,1.076,0,0,1-1.075-1.075V13.083H1.575A1.076,1.076,0,0,1,.5,12.008V8.577A1.076,1.076,0,0,1,1.575,7.5H3.646V5.784A5.849,5.849,0,0,1,5.193,1.593,5.571,5.571,0,0,1,9.3,0l2.707,0A1.077,1.077,0,0,1,13.08,1.079V4.264a1.076,1.076,0,0,1-1.075,1.075H10.183c-.556,0-.7.111-.728.146-.05.057-.109.217-.109.659V7.5h2.522a1.093,1.093,0,0,1,.532.135,1.079,1.079,0,0,1,.553.94v3.43a1.076,1.076,0,0,1-1.075,1.075H9.346v8.006a1.076,1.076,0,0,1-1.075,1.075Zm-3.325-1.3h3.1V12.5a.719.719,0,0,1,.718-.718h2.889V8.8H8.764a.719.719,0,0,1-.718-.718V6.145a2.213,2.213,0,0,1,.435-1.519,2.2,2.2,0,0,1,1.7-.585h1.6V1.3L9.3,1.3c-2.685,0-4.353,1.719-4.353,4.485v2.3a.719.719,0,0,1-.718.718H1.8v2.982H4.228a.719.719,0,0,1,.718.718ZM12,1.3h0Zm0,0" transform="translate(-0.5 0)"></path></svg> 