<?xml version="1.0" encoding="UTF-8"?> <svg xmlns="http://www.w3.org/2000/svg" id="_002-linkedin" data-name="002-linkedin" width="19.66" height="22.068" viewBox="0 0 19.66 22.068"><path id="Path_1636" data-name="Path 1636" d="M4.976,151.625H1.256a.757.757,0,0,0-.756.756V166.4a.757.757,0,0,0,.756.756h3.72a.757.757,0,0,0,.756-.756v-14.02A.757.757,0,0,0,4.976,151.625Zm-.539,14.238H1.795V152.92H4.437Zm0,0" transform="translate(-0.478 -145.09)"></path><path id="Path_1637" data-name="Path 1637" d="M2.638,0A2.638,2.638,0,1,0,5.276,2.638,2.641,2.641,0,0,0,2.638,0Zm0,3.981A1.343,1.343,0,1,1,3.981,2.638,1.344,1.344,0,0,1,2.638,3.981Zm0,0"></path><path id="Path_1638" data-name="Path 1638" d="M168.349,153.273a4.827,4.827,0,0,0-3.182-1.118,4.878,4.878,0,0,0-2.067.5v-.306a.722.722,0,0,0-.722-.722H158.59a.722.722,0,0,0-.722.722V166.44a.722.722,0,0,0,.722.722h3.863a.648.648,0,0,0,.648-.647v-8.4a1.34,1.34,0,0,1,1.281-1.349,1.323,1.323,0,0,1,1.361,1.321v8.441a.634.634,0,0,0,.634.634h3.712a.634.634,0,0,0,.634-.634v-8.185a6.589,6.589,0,0,0-2.374-5.071Zm1.079,12.594h-2.39v-7.78a2.616,2.616,0,0,0-5.233,0v7.78h-2.643V152.924h2.643v.941h0a.647.647,0,0,0,1.076.485,3.587,3.587,0,0,1,2.309-.9,3.529,3.529,0,0,1,2.329.817,5.3,5.3,0,0,1,1.909,4.077Zm0,0" transform="translate(-151.063 -145.094)"></path></svg> 