<?xml version="1.0" encoding="UTF-8"?> <svg xmlns="http://www.w3.org/2000/svg" width="20.985" height="17.325" viewBox="0 0 20.985 17.325"><path id="_003-twitter" data-name="003-twitter" d="M7.984,17.325c-3.5,0-6.271-.612-7.6-1.679l-.026-.021L.34,15.6A1.077,1.077,0,0,1,.058,14.47l.012-.034a1.1,1.1,0,0,1,1-.689,9.043,9.043,0,0,0,2.391-.33A4.538,4.538,0,0,1,1.07,10.654a.98.98,0,0,1,.342-1.142,1,1,0,0,1,.3-.152A6.618,6.618,0,0,1,.353,6.927L.345,6.9.34,6.872A1.02,1.02,0,0,1,.812,5.777,1.016,1.016,0,0,1,1.3,5.641,5.117,5.117,0,0,1,.909,4.461a4.934,4.934,0,0,1,.525-3.288l.13-.26A.726.726,0,0,1,2.727.725l.237.237A11.189,11.189,0,0,0,9.416,4.5,5.14,5.14,0,0,1,10.8,1.532,4.869,4.869,0,0,1,14.279,0h.009a6.963,6.963,0,0,1,2.873.935C17.78.733,18.525.42,19.3.089a.976.976,0,0,1,1.092.192A.959.959,0,0,1,20.6,1.335q-.084.235-.191.46a.977.977,0,0,1,.285.2,1.056,1.056,0,0,1,.263.986l-.009.033a4.026,4.026,0,0,1-1.618,2.22C19.2,11.923,14.161,17.325,7.984,17.325ZM1.569,14.961a14.5,14.5,0,0,0,6.415,1.133,9.609,9.609,0,0,0,7.124-3.241A11.612,11.612,0,0,0,18.1,4.974V4.941a.725.725,0,0,1,.387-.642,2.613,2.613,0,0,0,1.131-1.251.726.726,0,0,1-.7-1.143,3.994,3.994,0,0,0,.274-.434c-.667.28-1.3.532-1.852.7a.787.787,0,0,1-.606-.065,6,6,0,0,0-2.442-.874,3.826,3.826,0,0,0-3.68,3.878.726.726,0,0,1-.866.712A12.722,12.722,0,0,1,2.357,2.1a3.633,3.633,0,0,0-.24,2.125A4.49,4.49,0,0,0,3.183,6.293a.726.726,0,0,1-.732,1.18,3.324,3.324,0,0,1-.677-.26,6.131,6.131,0,0,0,2.1,2.438.726.726,0,0,1-.464,1.322,3.263,3.263,0,0,1-.963-.208,3.309,3.309,0,0,0,2.641,1.871.726.726,0,0,1,.216,1.357,8.72,8.72,0,0,1-3.736.968Zm0,0" transform="translate(0.001 0)"></path></svg> 