<?xml version="1.0" encoding="UTF-8"?> <svg xmlns="http://www.w3.org/2000/svg" id="_004-rss" data-name="004-rss" width="22.051" height="22.07" viewBox="0 0 22.051 22.07"><path id="Path_1639" data-name="Path 1639" d="M14.362,192.507a13.624,13.624,0,0,0-4.017-9.693,13.624,13.624,0,0,0-9.7-4.017h0a.646.646,0,0,0-.646.646v4.11a.646.646,0,0,0,.646.646,8.321,8.321,0,0,1,8.311,8.311.656.656,0,0,0,.654.649h0l4.054-.006.049,0a.646.646,0,0,0,.646-.646v0h0ZM7.438,185.72a9.532,9.532,0,0,0-6.145-2.791v-2.822a12.33,12.33,0,0,1,8.138,3.621,12.33,12.33,0,0,1,3.621,8.135l-2.824,0a9.533,9.533,0,0,0-2.791-6.147Zm0,0" transform="translate(0 -171.09)"></path><path id="Path_1640" data-name="Path 1640" d="M2.894,377.914a2.89,2.89,0,1,0,2.89,2.89,2.893,2.893,0,0,0-2.89-2.89Zm0,4.487a1.6,1.6,0,1,1,1.6-1.6,1.6,1.6,0,0,1-1.6,1.6Zm0,0" transform="translate(-0.004 -361.624)"></path><path id="Path_1641" data-name="Path 1641" d="M22.052,21.4h0a21.27,21.27,0,0,0-1.682-8.326,21.333,21.333,0,0,0-4.587-6.8,21.331,21.331,0,0,0-6.8-4.587A21.274,21.274,0,0,0,.647,0,.646.646,0,0,0,0,.647V4.71a.646.646,0,0,0,.646.646A15.949,15.949,0,0,1,6.894,6.617a15.992,15.992,0,0,1,5.1,3.44,15.992,15.992,0,0,1,3.44,5.1A15.946,15.946,0,0,1,16.7,21.406a.663.663,0,0,0,.658.653h0l3.982-.01a.638.638,0,0,0,.067,0,.646.646,0,0,0,.646-.646v0h0Zm-5.425-6.745A17.285,17.285,0,0,0,12.91,9.143,17.282,17.282,0,0,0,7.4,5.427a17.2,17.2,0,0,0-6.1-1.351V1.3a19.951,19.951,0,0,1,7.182,1.57,20.047,20.047,0,0,1,6.393,4.311,20.046,20.046,0,0,1,4.31,6.393,19.952,19.952,0,0,1,1.57,7.18l-2.771.007a17.2,17.2,0,0,0-1.351-6.109Zm0,0" transform="translate(-0.001 -0.001)"></path></svg> 