<?xml version="1.0" encoding="UTF-8"?> <svg xmlns="http://www.w3.org/2000/svg" width="149.312" height="146.903" viewBox="0 0 149.312 146.903"><g id="business" transform="translate(-1 -2)"><path id="Path_1700" data-name="Path 1700" d="M70.392,30.785a13.48,13.48,0,0,0-25.5.653l-8.768,27.9c1.431,3.451,3.15,6.013,5.7,6.013,7.827,0,7.827-24.083,15.651-24.083S65.31,65.349,73.142,65.349c3.227,0,5.122-4.087,6.786-8.894Z" transform="translate(49.468 28.165)" fill="#03d59f"></path><path id="Path_1701" data-name="Path 1701" d="M42.94,35.716a14.446,14.446,0,0,1,11.839-14.2l.007-.01a11.867,11.867,0,0,0-14.931-9.423A14.452,14.452,0,0,0,11.833,18.86l.019.019c-.075,0-.144-.022-.219-.022a9.633,9.633,0,0,0,0,19.266h31.51l.012-.017a14.5,14.5,0,0,1-.214-2.391Z" transform="translate(1.408)" fill="#03d59f"></path><path id="Path_1702" data-name="Path 1702" d="M122.116,56.7a15.951,15.951,0,0,0-12.744-10.189V31.186L147.6,17.531,109.819,3h-5.264V46.577A15.813,15.813,0,0,0,92.066,57.472L79.947,96.031a12.038,12.038,0,0,0-4.518-6.36L63.9,81.437l4.053-18.23H74.88A19.162,19.162,0,0,0,92.1,52.574L101.265,34.3A8.348,8.348,0,0,0,86.32,26.861L78.572,42.356a7.181,7.181,0,0,1-6.461,3.993H70.574a16.858,16.858,0,1,0-23.553,0H45.765A26.662,26.662,0,0,0,23.2,58.956L11.825,77.446a7.981,7.981,0,0,0-.506,7.434H1V118.6H31.5l-3.721,15.367a10.466,10.466,0,0,0-.291,2.442v.7a10.385,10.385,0,0,0,20.547,2.141L55.9,101.9l5.305,3.535v22.794a9.643,9.643,0,0,0,9.633,9.633h79.472v-5.25ZM109.371,7.987l24.381,9.378-24.381,8.708ZM46.757,34.307A12.041,12.041,0,1,1,58.8,46.349,12.055,12.055,0,0,1,46.757,34.307ZM37.235,84.881H27.062L38.978,66.154a6.355,6.355,0,0,1,2.3-2.163Zm.809,4.816-.1.2a17.075,17.075,0,0,1-30.544,0l-.1-.2H38.044ZM5.816,96.156a21.778,21.778,0,0,0,33.716,0V113.78H5.816Zm60.206,32.073V105.435a4.807,4.807,0,0,0-2.146-4.007l-6.758-4.506H52.028l-8.7,41.335a5.57,5.57,0,0,1-11.02-1.146v-.7a5.586,5.586,0,0,1,.157-1.31l4-16.5h7.889V84.881H42.14L47.267,58.39H44.349a11.128,11.128,0,0,0-9.433,5.178L22.3,83.387a3.21,3.21,0,0,1-2.721,1.493h-.91a3.223,3.223,0,0,1-2.745-4.91L27.305,61.48A21.817,21.817,0,0,1,45.765,51.165H72.111a11.974,11.974,0,0,0,10.77-6.656l7.747-15.495a3.532,3.532,0,1,1,6.331,3.131L87.8,50.416A14.371,14.371,0,0,1,74.883,58.39H64.091L58.509,83.505,72.631,93.591a7.245,7.245,0,0,1,3.025,5.881v28.757a4.817,4.817,0,1,1-9.633,0Zm13.111,4.817a9.534,9.534,0,0,0,1.339-4.817v-17.8L96.661,58.915a11.073,11.073,0,0,1,20.942-.532l27.731,74.663Z" transform="translate(0 1.408)" fill="#003777"></path><path id="Path_1703" data-name="Path 1703" d="M56,53h4.817v4.816H56Z" transform="translate(77.454 71.821)" fill="#003777"></path><path id="Path_1704" data-name="Path 1704" d="M52,53h4.817v4.816H52Z" transform="translate(71.821 71.821)" fill="#003777"></path><path id="Path_1705" data-name="Path 1705" d="M48,53h4.817v4.816H48Z" transform="translate(66.188 71.821)" fill="#003777"></path></g></svg> 