<?xml version="1.0" encoding="UTF-8"?> <svg xmlns="http://www.w3.org/2000/svg" xmlns:xlink="http://www.w3.org/1999/xlink" id="clock_1_" data-name="clock (1)" width="133" height="133" viewBox="0 0 133 133"><defs><linearGradient id="linear-gradient" x1="0.5" x2="0.5" y2="1" gradientUnits="objectBoundingBox"><stop offset="0" stop-color="#00c1c2"></stop><stop offset="1" stop-color="#03d59f"></stop></linearGradient></defs><path id="Path_1368" data-name="Path 1368" d="M57.919,0A57.919,57.919,0,1,0,66.77,115.165l-.649-4.241a54.3,54.3,0,0,1-8.2.624,53.629,53.629,0,1,1,53.629-53.629,54.615,54.615,0,0,1-.622,8.2l4.241.649a58.683,58.683,0,0,0,.671-8.851A57.984,57.984,0,0,0,57.919,0Zm0,0" fill="#003777"></path><path id="Path_1369" data-name="Path 1369" d="M81.339,32a49.339,49.339,0,0,0,0,98.677,50.23,50.23,0,0,0,5.578-.322l-.483-4.263a45.6,45.6,0,0,1-5.095.294,44.821,44.821,0,0,1-30.251-11.766l5.981-5.979-3.033-3.033-5.981,5.979A44.8,44.8,0,0,1,36.4,83.483h8.472v-4.29H36.4a44.8,44.8,0,0,1,11.657-28.1l5.981,5.979,3.033-3.033L51.09,48.056A44.8,44.8,0,0,1,79.194,36.4V44.87h4.29V36.4A44.806,44.806,0,0,1,111.59,48.056l-5.981,5.979,3.033,3.033,5.981-5.979a44.663,44.663,0,0,1,11.467,35.344l4.265.481a50.334,50.334,0,0,0,.322-5.576A49.394,49.394,0,0,0,81.339,32Zm0,0" transform="translate(-23.419 -23.419)" fill="#003777"></path><path id="Path_1370" data-name="Path 1370" d="M180.441,150.709l-10.1,10.1,3.033,3.033,11.354-11.354V128h-4.29Zm0,0" transform="translate(-124.667 -93.678)" fill="#003777"></path><path id="Path_1371" data-name="Path 1371" d="M260.468,296.935a36.468,36.468,0,1,1,36.468-36.468A36.509,36.509,0,0,1,260.468,296.935Zm0,0" transform="translate(-163.935 -163.936)" fill="url(#linear-gradient)"></path><path id="Path_1372" data-name="Path 1372" d="M283.306,322.323H264v-5.095l13.954-15.949a4.29,4.29,0,0,0,1.062-2.825v-1.873a4.29,4.29,0,0,0-8.581,0v4.29h-4.29v-4.29a8.581,8.581,0,1,1,17.161,0v1.873a8.592,8.592,0,0,1-2.121,5.65L269,318.032h14.31Zm0,0" transform="translate(-193.21 -210.774)" fill="#003777"></path><path id="Path_1373" data-name="Path 1373" d="M373.452,322.323h-4.29v-6.435H352v-4.966L368.044,288h5.408v23.6h4.29v4.29h-4.29ZM356.765,311.6h12.4v-17.71Zm0,0" transform="translate(-257.613 -210.774)" fill="#003777"></path></svg> 