<?xml version="1.0" encoding="UTF-8"?> <svg xmlns="http://www.w3.org/2000/svg" width="137.775" height="125.978" viewBox="0 0 137.775 125.978"><g id="clock_2_" data-name="clock (2)" transform="translate(0 -0.477)"><path id="Path_1669" data-name="Path 1669" d="M106.968,32.477a53.991,53.991,0,1,0,53.991,53.991,53.99,53.99,0,0,0-53.991-53.991Zm0,96.733A42.743,42.743,0,1,1,149.71,86.467a42.743,42.743,0,0,1-42.743,42.743Zm0,0" transform="translate(-38.08 -23.001)" fill="#03d59f"></path><path id="Path_1670" data-name="Path 1670" d="M233.056,4.976a58.381,58.381,0,0,1,58.121,51.988l.515,4.654,10.252-10.251-3.181-3.181-3.778,3.774A62.876,62.876,0,0,0,233.056.477c-1.556,0-3.127.056-4.664.168l.328,4.488c1.429-.105,2.887-.157,4.336-.157Zm0,0" transform="translate(-164.168 0)" fill="#003777"></path><path id="Path_1671" data-name="Path 1671" d="M68.888,287.687A58.383,58.383,0,0,1,10.767,235.7l-.515-4.655L0,241.3l3.181,3.181L6.957,240.7a62.878,62.878,0,0,0,61.93,51.485c1.561,0,3.134-.056,4.665-.171l-.333-4.486c-1.421.106-2.879.158-4.332.158Zm0,0" transform="translate(0 -165.731)" fill="#003777"></path><path id="Path_1672" data-name="Path 1672" d="M129.969,64.477a44.992,44.992,0,1,0,44.992,44.992A45.044,45.044,0,0,0,129.969,64.477Zm2.25,85.37V138.714h-4.5v11.133A40.48,40.48,0,0,1,89.59,111.718h11.134v-4.5H89.59A40.482,40.482,0,0,1,127.719,69.09V80.224h4.5V69.09a40.48,40.48,0,0,1,38.128,38.129H159.214v4.5h11.133A40.478,40.478,0,0,1,132.219,149.846Zm0,0" transform="translate(-61.081 -46.003)" fill="#003777"></path><path id="Path_1673" data-name="Path 1673" d="M229.975,154.887V136.476h-4.5v18.411a6.732,6.732,0,1,0,8.584,8.584h9.413v-4.5h-9.413A6.737,6.737,0,0,0,229.975,154.887Zm-2.25,8.584a2.25,2.25,0,1,1,2.25-2.25A2.252,2.252,0,0,1,227.726,163.472Zm0,0" transform="translate(-158.838 -97.756)" fill="#003777"></path><path id="Path_1674" data-name="Path 1674" d="M193.422,4.1l4.41-.879.879,4.412-4.41.878Zm0,0" transform="translate(-139.032 -1.974)" fill="#003777"></path><path id="Path_1675" data-name="Path 1675" d="M151.867,16.182l4.158-1.721,1.72,4.158-4.157,1.72Zm0,0" transform="translate(-109.162 -10.052)" fill="#003777"></path><path id="Path_1676" data-name="Path 1676" d="M113.879,36.279l3.741-2.5,2.5,3.741-3.742,2.5Zm0,0" transform="translate(-81.856 -23.939)" fill="#003777"></path><path id="Path_1677" data-name="Path 1677" d="M80.926,63.611l3.181-3.181,3.181,3.181-3.181,3.181Zm0,0" transform="translate(-58.169 -43.094)" fill="#003777"></path><path id="Path_1678" data-name="Path 1678" d="M54.269,97.119l2.5-3.74,3.74,2.5-2.5,3.74Zm0,0" transform="translate(-39.009 -66.778)" fill="#003777"></path><path id="Path_1679" data-name="Path 1679" d="M34.961,135.516l1.722-4.157,4.157,1.722-1.722,4.157Zm0,0" transform="translate(-25.13 -94.079)" fill="#003777"></path><path id="Path_1680" data-name="Path 1680" d="M23.723,177.338l.878-4.412,4.412.877-.877,4.414Zm0,0" transform="translate(-17.052 -123.956)" fill="#003777"></path><path id="Path_1681" data-name="Path 1681" d="M277.711,427.765l4.41-.878L283,431.3l-4.41.878Zm0,0" transform="translate(-199.618 -306.503)" fill="#003777"></path><path id="Path_1682" data-name="Path 1682" d="M317.191,415.3l4.158-1.72,1.72,4.158-4.156,1.72Zm0,0" transform="translate(-227.997 -296.94)" fill="#003777"></path><path id="Path_1683" data-name="Path 1683" d="M353.906,395.472l3.745-2.5,2.5,3.742-3.743,2.5Zm0,0" transform="translate(-254.387 -282.126)" fill="#003777"></path><path id="Path_1684" data-name="Path 1684" d="M386.395,369.08l3.181-3.181,3.181,3.181-3.181,3.181Zm0,0" transform="translate(-277.74 -262.665)" fill="#003777"></path><path id="Path_1685" data-name="Path 1685" d="M413.5,337.13l2.5-3.743,3.741,2.5-2.5,3.743Zm0,0" transform="translate(-297.226 -239.295)" fill="#003777"></path><path id="Path_1686" data-name="Path 1686" d="M434.086,300.848l1.72-4.157,4.158,1.72-1.721,4.158Zm0,0" transform="translate(-312.021 -212.919)" fill="#003777"></path><path id="Path_1687" data-name="Path 1687" d="M447.41,261.657l.879-4.41,4.412.879-.879,4.41Zm0,0" transform="translate(-321.598 -184.566)" fill="#003777"></path></g></svg> 