<?xml version="1.0" encoding="UTF-8"?> <svg xmlns="http://www.w3.org/2000/svg" xmlns:xlink="http://www.w3.org/1999/xlink" width="133" height="133" viewBox="0 0 133 133"><defs><linearGradient id="linear-gradient" x1="0.5" x2="0.5" y2="1" gradientUnits="objectBoundingBox"><stop offset="0" stop-color="#00c1c2"></stop><stop offset="1" stop-color="#03d59f"></stop></linearGradient></defs><g id="consultant" transform="translate(-1 -1)"><path id="Path_1333" data-name="Path 1333" d="M115.48,46.317a8.577,8.577,0,0,0-12.094-.929l-8.984,7.7A23.712,23.712,0,0,0,73.076,39.043a17.161,17.161,0,1,0-22.6,0A23.708,23.708,0,0,0,29.15,53.085l-8.986-7.7A8.587,8.587,0,0,0,6.291,54.132a8.86,8.86,0,0,0,2.892,4.445l13.7,11.74A12.707,12.707,0,0,0,36.3,72.239a12.913,12.913,0,0,0,6.174-6.127v11.6h4.29V49.758h-4.29v5.537a8.426,8.426,0,0,0-1.259,2.173l-2.179,5.8a8.848,8.848,0,0,1-4.49,5.05,8.3,8.3,0,0,1-8.872-1.264l-13.7-11.743a4.686,4.686,0,0,1-1.53-2.27,4.289,4.289,0,0,1,.884-3.936,4.411,4.411,0,0,1,6.047-.468l13.6,11.663,1.673-4.453A19.406,19.406,0,0,1,47.624,43.586a85.144,85.144,0,0,0,10.14,28.687l3.724-2.128Q59.632,66.9,58.1,63.519l3.005-20.2h1.356L65.5,63.414q-1.561,3.43-3.441,6.732l3.724,2.128a85.221,85.221,0,0,0,10.14-28.687A19.406,19.406,0,0,1,90.9,55.852l1.667,4.455,13.609-11.661a4.4,4.4,0,0,1,6.049.465,4.283,4.283,0,0,1,.882,3.934,4.669,4.669,0,0,1-1.527,2.27L97.877,67.061a8.288,8.288,0,0,1-8.868,1.261,8.844,8.844,0,0,1-4.492-5.05l-2.177-5.8a8.5,8.5,0,0,0-1.259-2.19V49.758H76.79V77.707h4.29v-11.6a12.926,12.926,0,0,0,6.176,6.127,12.707,12.707,0,0,0,13.412-1.92l13.7-11.743a8.828,8.828,0,0,0,2.89-4.447,8.522,8.522,0,0,0-1.78-7.811ZM48.9,26.161A12.871,12.871,0,1,1,61.776,39.032,12.884,12.884,0,0,1,48.9,26.161Zm6.049,29.352a81.057,81.057,0,0,1-3.025-12.191h4.835ZM66.793,43.323h4.829a81.245,81.245,0,0,1-2.995,12.1Z" transform="translate(5.724 9.161)" fill="#003777"></path><path id="Path_1334" data-name="Path 1334" d="M64.6,1a23.6,23.6,0,1,0,23.6,23.6A23.625,23.625,0,0,0,64.6,1Zm0,42.9A19.306,19.306,0,1,1,83.9,24.6,19.327,19.327,0,0,1,64.6,43.9Z" transform="translate(45.806)" fill="#003777"></path><path id="Path_1335" data-name="Path 1335" d="M58.726,13.581a2.146,2.146,0,0,1,2.145,2.145h4.29A6.443,6.443,0,0,0,58.726,9.29V5h-4.29V9.29H48v6.435a6.443,6.443,0,0,0,6.435,6.435h4.29a2.146,2.146,0,0,1,2.145,2.145v2.145H54.435a2.146,2.146,0,0,1-2.145-2.145H48a6.443,6.443,0,0,0,6.435,6.435v4.29h4.29v-4.29h6.435V24.306a6.443,6.443,0,0,0-6.435-6.435h-4.29a2.146,2.146,0,0,1-2.145-2.145V13.581Z" transform="translate(53.823 4.581)" fill="#003777"></path><path id="Path_1336" data-name="Path 1336" d="M74.774,56.776l-5.181-1.294L72.339,50.9,60.871,39.433l-4.582,2.746L55,37H38.776l-1.294,5.181L32.9,39.435,21.433,50.9l2.746,4.582L19,56.776V73l5.181,1.294-2.746,4.582L32.9,90.342,37.485,87.6l1.291,5.178H55l1.294-5.181,4.582,2.746L72.342,78.871,69.6,74.289,74.774,73ZM46.887,77.758A12.871,12.871,0,1,1,59.758,64.887,12.87,12.87,0,0,1,46.887,77.758Z" transform="translate(20.613 41.226)" fill="url(#linear-gradient)"></path><path id="Path_1337" data-name="Path 1337" d="M40.016,73.032A15.016,15.016,0,1,1,55.032,58.016,15.035,15.035,0,0,1,40.016,73.032Zm0-25.742A10.726,10.726,0,1,0,50.742,58.016,10.738,10.738,0,0,0,40.016,47.29Z" transform="translate(27.484 48.097)" fill="#003777"></path><path id="Path_1338" data-name="Path 1338" d="M17.655,43.613a4.774,4.774,0,0,1-4.288-2.649L10.4,35.032H7.435A6.443,6.443,0,0,1,1,28.6V11.435A6.443,6.443,0,0,1,7.435,5H37.468A6.443,6.443,0,0,1,43.9,11.435V28.6a6.443,6.443,0,0,1-6.435,6.435H22.452v3.784A4.8,4.8,0,0,1,17.655,43.613ZM7.435,9.29A2.146,2.146,0,0,0,5.29,11.435V28.6a2.146,2.146,0,0,0,2.145,2.145h5.616l4.151,8.3a.525.525,0,0,0,.959-.225V30.742H37.468A2.146,2.146,0,0,0,39.613,28.6V11.435A2.146,2.146,0,0,0,37.468,9.29Z" transform="translate(0 4.581)" fill="#003777"></path><path id="Path_1339" data-name="Path 1339" d="M5,10H30.742V20.726H5Z" transform="translate(4.581 10.306)" fill="url(#linear-gradient)"></path><path id="Path_1340" data-name="Path 1340" d="M5,9H30.742v4.29H5Z" transform="translate(4.581 9.161)" fill="#003777"></path><path id="Path_1341" data-name="Path 1341" d="M5,13H22.161v4.29H5Z" transform="translate(4.581 13.742)" fill="#003777"></path><path id="Path_1342" data-name="Path 1342" d="M15,13h4.29v4.29H15Z" transform="translate(16.032 13.742)" fill="#003777"></path><path id="Path_1343" data-name="Path 1343" d="M74.887,75.032H53.435A6.443,6.443,0,0,1,47,68.6V51.435A6.443,6.443,0,0,1,53.435,45H74.887a6.443,6.443,0,0,1,6.435,6.435V68.6A6.443,6.443,0,0,1,74.887,75.032ZM53.435,49.29a2.146,2.146,0,0,0-2.145,2.145V68.6a2.146,2.146,0,0,0,2.145,2.145H74.887A2.146,2.146,0,0,0,77.032,68.6V51.435a2.146,2.146,0,0,0-2.145-2.145Z" transform="translate(52.677 50.387)" fill="#003777"></path><path id="Path_1344" data-name="Path 1344" d="M53.326,60.907l-3.033-3.033,7.952-7.952,4.29,4.29,4.919-4.919,3.033,3.033-7.952,7.952-4.29-4.29Z" transform="translate(56.448 55.303)" fill="#003777"></path><path id="Path_1345" data-name="Path 1345" d="M16.726,67.6h-4.29V60.273l5.288-5.288a3.923,3.923,0,0,0-2.774-6.7h-.738a3.926,3.926,0,0,0-3.921,3.921v2.514H6V52.212A8.223,8.223,0,0,1,14.212,44h.738a8.212,8.212,0,0,1,5.807,14.019l-4.031,4.031Z" transform="translate(5.726 49.242)" fill="#003777"></path><path id="Path_1346" data-name="Path 1346" d="M13.435,69.871a6.435,6.435,0,1,1,6.435-6.435A6.443,6.443,0,0,1,13.435,69.871Zm0-8.581a2.145,2.145,0,1,0,2.145,2.145A2.146,2.146,0,0,0,13.435,61.29Z" transform="translate(6.871 64.129)" fill="#003777"></path></g></svg> 