<?xml version="1.0" encoding="UTF-8"?> <svg xmlns="http://www.w3.org/2000/svg" xmlns:xlink="http://www.w3.org/1999/xlink" width="133" height="133" viewBox="0 0 133 133"><defs><linearGradient id="linear-gradient" x1="0.5" x2="0.5" y2="1" gradientUnits="objectBoundingBox"><stop offset="0" stop-color="#00c1c2"></stop><stop offset="1" stop-color="#03d59f"></stop></linearGradient></defs><g id="debt" transform="translate(-1 -1)"><path id="Path_1356" data-name="Path 1356" d="M57,25H69.871v4.29H57Z" transform="translate(64.129 27.484)" fill="#003777"></path><path id="Path_1357" data-name="Path 1357" d="M53,30h4.29V42.871H53Z" transform="translate(59.548 33.21)" fill="#003777"></path><path id="Path_1358" data-name="Path 1358" d="M0,0H4.29V9.1H0Z" transform="translate(119.592 62.589) rotate(-45)" fill="#003777"></path><path id="Path_1359" data-name="Path 1359" d="M0,0H9.1V4.29H0Z" transform="translate(100.288 65.987) rotate(-45)" fill="#003777"></path><path id="Path_1360" data-name="Path 1360" d="M45,25H57.871v4.29H45Z" transform="translate(50.387 27.484)" fill="#003777"></path><path id="Path_1361" data-name="Path 1361" d="M90.371,1A15.034,15.034,0,0,0,75.355,16.016V33.177a10.726,10.726,0,0,1-21.452,0V16.016a15.016,15.016,0,1,0-30.032,0v4.29H17.435A6.443,6.443,0,0,0,11,26.742V65.355h4.29V37.468H36.742V65.355h4.29V26.742A6.443,6.443,0,0,0,34.6,20.306H28.161v-4.29a10.726,10.726,0,1,1,21.452,0V33.177a15.016,15.016,0,0,0,30.032,0V16.016a10.726,10.726,0,1,1,21.452,0V52.484h4.29V16.016A15.034,15.034,0,0,0,90.371,1ZM36.742,26.742v6.435H15.29V26.742A2.147,2.147,0,0,1,17.435,24.6H34.6A2.147,2.147,0,0,1,36.742,26.742Z" transform="translate(11.452 0)" fill="#003777"></path><path id="Path_1362" data-name="Path 1362" d="M34.452,49.871v-4.29a4.3,4.3,0,0,0-4.29-4.29h-4.29V37h-4.29v4.29H17.29A4.3,4.3,0,0,0,13,45.581v8.581a4.3,4.3,0,0,0,4.29,4.29H30.161v8.581H17.29v-4.29H13v4.29a4.3,4.3,0,0,0,4.29,4.29h4.29v4.29h4.29v-4.29h4.29a4.3,4.3,0,0,0,4.29-4.29V58.452a4.3,4.3,0,0,0-4.29-4.29H17.29V45.581H30.161v4.29Z" transform="translate(13.742 41.226)" fill="#003777"></path><path id="Path_1363" data-name="Path 1363" d="M37.468,101.935A36.468,36.468,0,1,1,73.935,65.468,36.509,36.509,0,0,1,37.468,101.935Zm0-62.21A25.742,25.742,0,1,0,63.21,65.468,25.771,25.771,0,0,0,37.468,39.726Z" transform="translate(0 32.065)" fill="url(#linear-gradient)"></path><path id="Path_1364" data-name="Path 1364" d="M32.887,88.774A27.887,27.887,0,1,1,60.774,60.887,27.919,27.919,0,0,1,32.887,88.774Zm0-51.484a23.6,23.6,0,1,0,23.6,23.6A23.625,23.625,0,0,0,32.887,37.29Z" transform="translate(4.581 36.645)" fill="#003777"></path></g></svg> 