<?xml version="1.0" encoding="UTF-8"?> <svg xmlns="http://www.w3.org/2000/svg" xmlns:xlink="http://www.w3.org/1999/xlink" id="diamond" width="146.895" height="146.895" viewBox="0 0 146.895 146.895"><defs><linearGradient id="linear-gradient" x1="0.5" x2="0.5" y2="1" gradientUnits="objectBoundingBox"><stop offset="0" stop-color="#00c1c2"></stop><stop offset="1" stop-color="#03d59f"></stop></linearGradient></defs><g id="Group_663" data-name="Group 663" transform="translate(11.846 14.216)"><path id="Path_1706" data-name="Path 1706" d="M388.431,366.216A14.216,14.216,0,1,1,374.216,352,14.216,14.216,0,0,1,388.431,366.216Zm0,0" transform="translate(-265.229 -261.968)" fill="#2166a9"></path><path id="Path_1707" data-name="Path 1707" d="M68.431,62.216A14.216,14.216,0,1,1,54.216,48,14.216,14.216,0,0,1,68.431,62.216Zm0,0" transform="translate(-40 -48)" fill="#2166a9"></path><path id="Path_1708" data-name="Path 1708" d="M189.294,207.693l-42.647,45.016L104,207.693,118.216,184h56.862Zm0,0" transform="translate(-85.046 -143.722)" fill="#2166a9"></path></g><path id="Path_1709" data-name="Path 1709" d="M46.216,69.908h4.739V65.17A11.846,11.846,0,0,1,62.8,53.323H65.17V48.585H62.8A11.846,11.846,0,0,1,50.954,36.739V32H46.216v4.739A11.846,11.846,0,0,1,34.369,48.585H32v4.739h2.369A11.846,11.846,0,0,1,46.216,65.17Zm1.422-14.69a16.537,16.537,0,0,0-4.791-4.264,16.537,16.537,0,0,0,4.791-4.264,16.175,16.175,0,0,0,.947-1.505,16.052,16.052,0,0,0,.947,1.505,16.537,16.537,0,0,0,4.791,4.264,16.537,16.537,0,0,0-4.791,4.264,16.176,16.176,0,0,0-.947,1.505A16.175,16.175,0,0,0,47.637,55.218Zm0,0" transform="translate(-22.523 -22.523)" fill="url(#linear-gradient)"></path><path id="Path_1710" data-name="Path 1710" d="M80,0h4.739V4.739H80Zm0,0" transform="translate(-56.307)" fill="url(#linear-gradient)"></path><path id="Path_1711" data-name="Path 1711" d="M80,176h4.739v4.739H80Zm0,0" transform="translate(-56.307 -123.876)" fill="url(#linear-gradient)"></path><path id="Path_1712" data-name="Path 1712" d="M160,88h4.739v4.739H160Zm0,0" transform="translate(-112.615 -61.938)" fill="url(#linear-gradient)"></path><path id="Path_1713" data-name="Path 1713" d="M0,88H4.739v4.739H0Zm0,0" transform="translate(0 -61.938)" fill="url(#linear-gradient)"></path><path id="Path_1714" data-name="Path 1714" d="M373.323,347.844a11.9,11.9,0,0,1-2.369-7.105V336h-4.739v4.739a11.846,11.846,0,0,1-11.846,11.846H352v4.739h2.369a11.85,11.85,0,0,1,11.846,11.846v4.739h4.739V369.17A11.846,11.846,0,0,1,382.8,357.323h2.369v-4.739H382.8A11.9,11.9,0,0,1,373.323,347.844Zm-3.791,11.374a15.909,15.909,0,0,0-.947,1.507,14.647,14.647,0,0,0-5.74-5.772,16.537,16.537,0,0,0,4.791-4.264,15.912,15.912,0,0,0,.948-1.507,14.646,14.646,0,0,0,5.74,5.772A16.567,16.567,0,0,0,369.532,359.218Zm0,0" transform="translate(-247.752 -236.491)" fill="url(#linear-gradient)"></path><path id="Path_1715" data-name="Path 1715" d="M400,304h4.739v4.739H400Zm0,0" transform="translate(-281.537 -213.968)" fill="url(#linear-gradient)"></path><path id="Path_1716" data-name="Path 1716" d="M400,480h4.739v4.739H400Zm0,0" transform="translate(-281.537 -337.844)" fill="url(#linear-gradient)"></path><path id="Path_1717" data-name="Path 1717" d="M480,392h4.739v4.739H480Zm0,0" transform="translate(-337.844 -275.906)" fill="url(#linear-gradient)"></path><path id="Path_1718" data-name="Path 1718" d="M320,392h4.739v4.739H320Zm0,0" transform="translate(-225.229 -275.906)" fill="url(#linear-gradient)"></path><path id="Path_1719" data-name="Path 1719" d="M169.391,176H109.847L94.015,202.387l45.6,48.136,45.6-48.136ZM150.6,204.431,139.619,239.21l-10.984-34.779Zm-21.016-4.739,10.031-16.718,10.031,16.718ZM143.8,180.739h20.062l-10.031,16.718Zm-18.4,16.718-10.031-16.718h20.062Zm-4.184,2.236H101.156l10.031-16.718Zm2.448,4.739,10.592,33.547-31.778-33.547Zm31.9,0h21.186l-31.778,33.547Zm2.448-4.739,10.031-16.718,10.031,16.718Zm0,0" transform="translate(-66.172 -123.876)" fill="url(#linear-gradient)"></path><path id="Path_1720" data-name="Path 1720" d="M376,112h4.739v4.739H376Zm0,0" transform="translate(-264.644 -78.83)" fill="#003777"></path><path id="Path_1721" data-name="Path 1721" d="M360,128h4.739v4.739H360Zm0,0" transform="translate(-253.383 -90.092)" fill="#003777"></path><path id="Path_1722" data-name="Path 1722" d="M376,144h4.739v4.739H376Zm0,0" transform="translate(-264.644 -101.353)" fill="#003777"></path><path id="Path_1723" data-name="Path 1723" d="M392,128h4.739v4.739H392Zm0,0" transform="translate(-275.906 -90.092)" fill="#003777"></path><path id="Path_1724" data-name="Path 1724" d="M112,368h4.739v4.739H112Zm0,0" transform="translate(-78.83 -259.014)" fill="#003777"></path><path id="Path_1725" data-name="Path 1725" d="M96,384h4.739v4.739H96Zm0,0" transform="translate(-67.569 -270.275)" fill="#003777"></path><path id="Path_1726" data-name="Path 1726" d="M112,400h4.739v4.739H112Zm0,0" transform="translate(-78.83 -281.537)" fill="#003777"></path><path id="Path_1727" data-name="Path 1727" d="M128,384h4.739v4.739H128Zm0,0" transform="translate(-90.092 -270.275)" fill="#003777"></path></svg> 