<?xml version="1.0" encoding="UTF-8"?> <svg xmlns="http://www.w3.org/2000/svg" xmlns:xlink="http://www.w3.org/1999/xlink" width="314.19" height="314.688" viewBox="0 0 314.19 314.688"><defs><linearGradient id="linear-gradient" x1="0.5" x2="0.5" y2="1" gradientUnits="objectBoundingBox"><stop offset="0" stop-color="#00c1c2"></stop><stop offset="1" stop-color="#03d59f"></stop></linearGradient></defs><g id="Group_622" data-name="Group 622" transform="translate(-517.261 -1172.695)"><g id="Group_583" data-name="Group 583" transform="translate(517.261 1172.695)"><path id="Path_1374" data-name="Path 1374" d="M767.383,1198.627a2.469,2.469,0,0,0,.233-.352c-1.491-.987-3.015-1.907-4.534-2.834a2.688,2.688,0,0,0,.447,3.186A2.724,2.724,0,0,0,767.383,1198.627Z" transform="translate(-523.098 -1173.236)" fill="url(#linear-gradient)"></path><path id="Path_1375" data-name="Path 1375" d="M776.7,1211.765a2.725,2.725,0,1,0,0-3.857A2.727,2.727,0,0,0,776.7,1211.765Z" transform="translate(-523.41 -1173.513)" fill="url(#linear-gradient)"></path><path id="Path_1376" data-name="Path 1376" d="M789.873,1224.937a2.726,2.726,0,1,0,0-3.856A2.728,2.728,0,0,0,789.873,1224.937Z" transform="translate(-523.723 -1173.827)" fill="url(#linear-gradient)"></path><path id="Path_1377" data-name="Path 1377" d="M803.046,1238.11a2.728,2.728,0,0,0,3.857,0,2.667,2.667,0,0,0,.727-2.272c-.556-.739-1.126-1.467-1.7-2.194a2.716,2.716,0,0,0-2.885,4.464Z" transform="translate(-524.037 -1174.14)" fill="url(#linear-gradient)"></path><path id="Path_1378" data-name="Path 1378" d="M816.219,1251.311a2.676,2.676,0,0,0,2.346.719c-.828-1.421-1.712-2.815-2.588-4.214A2.694,2.694,0,0,0,816.219,1251.311Z" transform="translate(-524.351 -1174.481)" fill="url(#linear-gradient)"></path><path id="Path_1379" data-name="Path 1379" d="M731.921,1188.045a2.726,2.726,0,1,0,0-3.857A2.728,2.728,0,0,0,731.921,1188.045Z" transform="translate(-522.346 -1172.949)" fill="url(#linear-gradient)"></path><path id="Path_1380" data-name="Path 1380" d="M745.095,1201.218a2.725,2.725,0,1,0,0-3.857A2.728,2.728,0,0,0,745.095,1201.218Z" transform="translate(-522.659 -1173.263)" fill="url(#linear-gradient)"></path><path id="Path_1381" data-name="Path 1381" d="M758.268,1214.391a2.725,2.725,0,1,0,0-3.858A2.727,2.727,0,0,0,758.268,1214.391Z" transform="translate(-522.972 -1173.576)" fill="url(#linear-gradient)"></path><path id="Path_1382" data-name="Path 1382" d="M771.44,1227.563a2.725,2.725,0,1,0,0-3.857A2.726,2.726,0,0,0,771.44,1227.563Z" transform="translate(-523.285 -1173.889)" fill="url(#linear-gradient)"></path><path id="Path_1383" data-name="Path 1383" d="M784.613,1240.736a2.726,2.726,0,1,0,0-3.856A2.728,2.728,0,0,0,784.613,1240.736Z" transform="translate(-523.599 -1174.202)" fill="url(#linear-gradient)"></path><path id="Path_1384" data-name="Path 1384" d="M797.785,1253.908a2.726,2.726,0,1,0,0-3.857A2.73,2.73,0,0,0,797.785,1253.908Z" transform="translate(-523.911 -1174.515)" fill="url(#linear-gradient)"></path><path id="Path_1385" data-name="Path 1385" d="M810.959,1267.082a2.726,2.726,0,1,0,0-3.857A2.73,2.73,0,0,0,810.959,1267.082Z" transform="translate(-524.225 -1174.828)" fill="url(#linear-gradient)"></path><path id="Path_1386" data-name="Path 1386" d="M824.131,1280.255a2.726,2.726,0,1,0,0-3.857A2.73,2.73,0,0,0,824.131,1280.255Z" transform="translate(-524.538 -1175.142)" fill="url(#linear-gradient)"></path><path id="Path_1387" data-name="Path 1387" d="M702.953,1180.13a2.724,2.724,0,1,0,0-3.855A2.726,2.726,0,0,0,702.953,1180.13Z" transform="translate(-521.657 -1172.761)" fill="url(#linear-gradient)"></path><path id="Path_1388" data-name="Path 1388" d="M716.125,1193.3a2.725,2.725,0,1,0,0-3.855A2.726,2.726,0,0,0,716.125,1193.3Z" transform="translate(-521.97 -1173.074)" fill="url(#linear-gradient)"></path><path id="Path_1389" data-name="Path 1389" d="M729.3,1206.476a2.725,2.725,0,1,0,0-3.855A2.727,2.727,0,0,0,729.3,1206.476Z" transform="translate(-522.283 -1173.387)" fill="url(#linear-gradient)"></path><path id="Path_1390" data-name="Path 1390" d="M742.472,1219.649a2.725,2.725,0,1,0,0-3.855A2.725,2.725,0,0,0,742.472,1219.649Z" transform="translate(-522.596 -1173.701)" fill="url(#linear-gradient)"></path><path id="Path_1391" data-name="Path 1391" d="M755.645,1232.822a2.725,2.725,0,1,0,0-3.856A2.726,2.726,0,0,0,755.645,1232.822Z" transform="translate(-522.91 -1174.014)" fill="url(#linear-gradient)"></path><path id="Path_1392" data-name="Path 1392" d="M772.67,1242.141a2.724,2.724,0,1,0,0,3.856A2.726,2.726,0,0,0,772.67,1242.141Z" transform="translate(-523.223 -1174.327)" fill="url(#linear-gradient)"></path><path id="Path_1393" data-name="Path 1393" d="M781.989,1259.166a2.725,2.725,0,1,0,0-3.854A2.726,2.726,0,0,0,781.989,1259.166Z" transform="translate(-523.536 -1174.64)" fill="url(#linear-gradient)"></path><path id="Path_1394" data-name="Path 1394" d="M795.161,1272.339a2.725,2.725,0,1,0,0-3.854A2.726,2.726,0,0,0,795.161,1272.339Z" transform="translate(-523.849 -1174.953)" fill="url(#linear-gradient)"></path><path id="Path_1395" data-name="Path 1395" d="M808.335,1285.512a2.724,2.724,0,1,0,0-3.853A2.725,2.725,0,0,0,808.335,1285.512Z" transform="translate(-524.162 -1175.267)" fill="url(#linear-gradient)"></path><path id="Path_1396" data-name="Path 1396" d="M821.508,1298.686a2.724,2.724,0,1,0,0-3.854A2.726,2.726,0,0,0,821.508,1298.686Z" transform="translate(-524.476 -1175.58)" fill="url(#linear-gradient)"></path><path id="Path_1397" data-name="Path 1397" d="M834.681,1311.858a2.725,2.725,0,0,0,3.854,0,2.637,2.637,0,0,0,.444-.67c-.149-1.077-.332-2.151-.5-3.227a2.719,2.719,0,0,0-3.8,3.893Z" transform="translate(-524.789 -1175.893)" fill="url(#linear-gradient)"></path><path id="Path_1398" data-name="Path 1398" d="M688.374,1178.9a2.725,2.725,0,1,0,0,3.853A2.726,2.726,0,0,0,688.374,1178.9Z" transform="translate(-521.219 -1172.824)" fill="url(#linear-gradient)"></path><path id="Path_1399" data-name="Path 1399" d="M697.691,1195.929a2.726,2.726,0,1,0,0-3.856A2.73,2.73,0,0,0,697.691,1195.929Z" transform="translate(-521.532 -1173.137)" fill="url(#linear-gradient)"></path><path id="Path_1400" data-name="Path 1400" d="M710.865,1209.1a2.725,2.725,0,1,0,0-3.857A2.728,2.728,0,0,0,710.865,1209.1Z" transform="translate(-521.845 -1173.45)" fill="url(#linear-gradient)"></path><path id="Path_1401" data-name="Path 1401" d="M724.037,1222.275a2.725,2.725,0,1,0,0-3.856A2.727,2.727,0,0,0,724.037,1222.275Z" transform="translate(-522.158 -1173.763)" fill="url(#linear-gradient)"></path><path id="Path_1402" data-name="Path 1402" d="M737.211,1235.448a2.726,2.726,0,1,0,0-3.858A2.73,2.73,0,0,0,737.211,1235.448Z" transform="translate(-522.471 -1174.076)" fill="url(#linear-gradient)"></path><path id="Path_1403" data-name="Path 1403" d="M750.383,1248.62a2.725,2.725,0,1,0,0-3.857A2.728,2.728,0,0,0,750.383,1248.62Z" transform="translate(-522.785 -1174.39)" fill="url(#linear-gradient)"></path><path id="Path_1404" data-name="Path 1404" d="M763.555,1261.793a2.725,2.725,0,1,0,0-3.856A2.729,2.729,0,0,0,763.555,1261.793Z" transform="translate(-523.098 -1174.703)" fill="url(#linear-gradient)"></path><path id="Path_1405" data-name="Path 1405" d="M776.728,1274.965a2.725,2.725,0,1,0,0-3.856A2.729,2.729,0,0,0,776.728,1274.965Z" transform="translate(-523.411 -1175.016)" fill="url(#linear-gradient)"></path><path id="Path_1406" data-name="Path 1406" d="M789.9,1288.139a2.725,2.725,0,1,0,0-3.856A2.73,2.73,0,0,0,789.9,1288.139Z" transform="translate(-523.724 -1175.329)" fill="url(#linear-gradient)"></path><path id="Path_1407" data-name="Path 1407" d="M803.075,1301.312a2.725,2.725,0,1,0,0-3.856A2.728,2.728,0,0,0,803.075,1301.312Z" transform="translate(-524.037 -1175.642)" fill="url(#linear-gradient)"></path><path id="Path_1408" data-name="Path 1408" d="M816.248,1314.485a2.726,2.726,0,1,0,0-3.856A2.729,2.729,0,0,0,816.248,1314.485Z" transform="translate(-524.35 -1175.956)" fill="url(#linear-gradient)"></path><path id="Path_1409" data-name="Path 1409" d="M833.275,1323.8a2.726,2.726,0,1,0,0,3.857A2.726,2.726,0,0,0,833.275,1323.8Z" transform="translate(-524.664 -1176.269)" fill="url(#linear-gradient)"></path><path id="Path_1410" data-name="Path 1410" d="M660.148,1172.7c-1.776.2-3.553.4-5.323.662a2.667,2.667,0,0,0,.726,1.543,2.726,2.726,0,0,0,3.855,0A2.69,2.69,0,0,0,660.148,1172.7Z" transform="translate(-520.532 -1172.695)" fill="url(#linear-gradient)"></path><path id="Path_1411" data-name="Path 1411" d="M672.577,1184.16a2.725,2.725,0,1,0,0,3.857A2.728,2.728,0,0,0,672.577,1184.16Z" transform="translate(-520.843 -1172.949)" fill="url(#linear-gradient)"></path><path id="Path_1412" data-name="Path 1412" d="M681.9,1201.187a2.725,2.725,0,1,0,0-3.856A2.726,2.726,0,0,0,681.9,1201.187Z" transform="translate(-521.156 -1173.262)" fill="url(#linear-gradient)"></path><path id="Path_1413" data-name="Path 1413" d="M695.068,1214.36a2.726,2.726,0,1,0,0-3.855A2.727,2.727,0,0,0,695.068,1214.36Z" transform="translate(-521.469 -1173.575)" fill="url(#linear-gradient)"></path><path id="Path_1414" data-name="Path 1414" d="M708.242,1227.533a2.725,2.725,0,1,0,0-3.856A2.728,2.728,0,0,0,708.242,1227.533Z" transform="translate(-521.783 -1173.888)" fill="url(#linear-gradient)"></path><path id="Path_1415" data-name="Path 1415" d="M721.415,1240.7a2.725,2.725,0,1,0,0-3.855A2.724,2.724,0,0,0,721.415,1240.7Z" transform="translate(-522.096 -1174.201)" fill="url(#linear-gradient)"></path><path id="Path_1416" data-name="Path 1416" d="M738.467,1250.025a2.722,2.722,0,0,0-3.615-.2q2.157,1.451,4.25,3.033A2.722,2.722,0,0,0,738.467,1250.025Z" transform="translate(-522.434 -1174.515)" fill="url(#linear-gradient)"></path><path id="Path_1417" data-name="Path 1417" d="M750.033,1262.424q1.251,1.262,2.439,2.56a2.682,2.682,0,0,0-2.439-2.56Z" transform="translate(-522.795 -1174.828)" fill="url(#linear-gradient)"></path><path id="Path_1418" data-name="Path 1418" d="M764.815,1280.227a2.724,2.724,0,0,0-3.485-4.161q1.546,2.249,2.949,4.568A2.689,2.689,0,0,0,764.815,1280.227Z" transform="translate(-523.064 -1175.141)" fill="url(#linear-gradient)"></path><path id="Path_1419" data-name="Path 1419" d="M774.1,1293.4a2.725,2.725,0,1,0,0-3.854A2.726,2.726,0,0,0,774.1,1293.4Z" transform="translate(-523.349 -1175.454)" fill="url(#linear-gradient)"></path><path id="Path_1420" data-name="Path 1420" d="M787.277,1306.569a2.726,2.726,0,1,0,0-3.855A2.728,2.728,0,0,0,787.277,1306.569Z" transform="translate(-523.662 -1175.767)" fill="url(#linear-gradient)"></path><path id="Path_1421" data-name="Path 1421" d="M800.451,1319.742a2.725,2.725,0,1,0,0-3.855A2.724,2.724,0,0,0,800.451,1319.742Z" transform="translate(-523.975 -1176.08)" fill="url(#linear-gradient)"></path><path id="Path_1422" data-name="Path 1422" d="M813.624,1332.914a2.725,2.725,0,1,0,0-3.854A2.725,2.725,0,0,0,813.624,1332.914Z" transform="translate(-524.288 -1176.394)" fill="url(#linear-gradient)"></path><path id="Path_1423" data-name="Path 1423" d="M830.65,1342.234a2.725,2.725,0,1,0,0,3.857A2.727,2.727,0,0,0,830.65,1342.234Z" transform="translate(-524.601 -1176.707)" fill="url(#linear-gradient)"></path><path id="Path_1424" data-name="Path 1424" d="M637.128,1177.539a2.725,2.725,0,0,0,3.856,0,2.669,2.669,0,0,0,.752-1.691c-1.644.379-3.281.8-4.914,1.232A2.578,2.578,0,0,0,637.128,1177.539Z" transform="translate(-520.104 -1172.77)" fill="url(#linear-gradient)"></path><path id="Path_1425" data-name="Path 1425" d="M654.146,1186.786a2.726,2.726,0,1,0,0,3.855A2.729,2.729,0,0,0,654.146,1186.786Z" transform="translate(-520.405 -1173.011)" fill="url(#linear-gradient)"></path><path id="Path_1426" data-name="Path 1426" d="M667.318,1199.959a2.726,2.726,0,1,0,0,3.853A2.728,2.728,0,0,0,667.318,1199.959Z" transform="translate(-520.718 -1173.324)" fill="url(#linear-gradient)"></path><path id="Path_1427" data-name="Path 1427" d="M676.635,1216.986a2.727,2.727,0,1,0,0-3.858A2.729,2.729,0,0,0,676.635,1216.986Z" transform="translate(-521.031 -1173.638)" fill="url(#linear-gradient)"></path><path id="Path_1428" data-name="Path 1428" d="M689.808,1230.159a2.726,2.726,0,1,0,0-3.858A2.728,2.728,0,0,0,689.808,1230.159Z" transform="translate(-521.344 -1173.951)" fill="url(#linear-gradient)"></path><path id="Path_1429" data-name="Path 1429" d="M782.018,1322.368a2.726,2.726,0,1,0,0-3.857A2.729,2.729,0,0,0,782.018,1322.368Z" transform="translate(-523.537 -1176.143)" fill="url(#linear-gradient)"></path><path id="Path_1430" data-name="Path 1430" d="M795.191,1335.541a2.726,2.726,0,1,0,0-3.857A2.728,2.728,0,0,0,795.191,1335.541Z" transform="translate(-523.85 -1176.456)" fill="url(#linear-gradient)"></path><path id="Path_1431" data-name="Path 1431" d="M812.219,1344.859a2.726,2.726,0,1,0,0,3.855A2.726,2.726,0,0,0,812.219,1344.859Z" transform="translate(-524.163 -1176.769)" fill="url(#linear-gradient)"></path><path id="Path_1432" data-name="Path 1432" d="M825.391,1358.031a2.726,2.726,0,1,0,0,3.855A2.727,2.727,0,0,0,825.391,1358.031Z" transform="translate(-524.476 -1177.082)" fill="url(#linear-gradient)"></path><path id="Path_1433" data-name="Path 1433" d="M834.709,1375.06a2.483,2.483,0,0,0,.458.306c.435-1.631.854-3.269,1.234-4.911a2.657,2.657,0,0,0-1.692.749A2.727,2.727,0,0,0,834.709,1375.06Z" transform="translate(-524.789 -1177.397)" fill="url(#linear-gradient)"></path><path id="Path_1434" data-name="Path 1434" d="M625.885,1180.366c-1.663.57-3.31,1.191-4.955,1.814a2.639,2.639,0,0,0,.4.6,2.727,2.727,0,0,0,3.856,0A2.684,2.684,0,0,0,625.885,1180.366Z" transform="translate(-519.726 -1172.878)" fill="url(#linear-gradient)"></path><path id="Path_1435" data-name="Path 1435" d="M638.346,1192.045a2.725,2.725,0,1,0,0,3.854A2.726,2.726,0,0,0,638.346,1192.045Z" transform="translate(-520.029 -1173.136)" fill="url(#linear-gradient)"></path><path id="Path_1436" data-name="Path 1436" d="M651.518,1205.218a2.725,2.725,0,1,0,0,3.856A2.728,2.728,0,0,0,651.518,1205.218Z" transform="translate(-520.342 -1173.449)" fill="url(#linear-gradient)"></path><path id="Path_1437" data-name="Path 1437" d="M660.837,1222.245a2.725,2.725,0,1,0,0-3.858A2.73,2.73,0,0,0,660.837,1222.245Z" transform="translate(-520.656 -1173.763)" fill="url(#linear-gradient)"></path><path id="Path_1438" data-name="Path 1438" d="M677.865,1231.565a2.729,2.729,0,0,0-3.857,0,2.7,2.7,0,0,0-.764,1.589q2.68-.171,5.365-.192A2.715,2.715,0,0,0,677.865,1231.565Z" transform="translate(-520.97 -1174.076)" fill="url(#linear-gradient)"></path><path id="Path_1439" data-name="Path 1439" d="M779.392,1340.8a2.725,2.725,0,1,0,0-3.857A2.728,2.728,0,0,0,779.392,1340.8Z" transform="translate(-523.474 -1176.581)" fill="url(#linear-gradient)"></path><path id="Path_1440" data-name="Path 1440" d="M792.564,1353.973a2.725,2.725,0,1,0,0-3.856A2.728,2.728,0,0,0,792.564,1353.973Z" transform="translate(-523.787 -1176.895)" fill="url(#linear-gradient)"></path><path id="Path_1441" data-name="Path 1441" d="M809.592,1363.293a2.725,2.725,0,1,0,0,3.855A2.726,2.726,0,0,0,809.592,1363.293Z" transform="translate(-524.1 -1177.208)" fill="url(#linear-gradient)"></path><path id="Path_1442" data-name="Path 1442" d="M822.765,1376.464a2.725,2.725,0,1,0,0,3.856A2.727,2.727,0,0,0,822.765,1376.464Z" transform="translate(-524.414 -1177.521)" fill="url(#linear-gradient)"></path><path id="Path_1443" data-name="Path 1443" d="M619.914,1194.671a2.725,2.725,0,1,0,0,3.856A2.728,2.728,0,0,0,619.914,1194.671Z" transform="translate(-519.591 -1173.199)" fill="url(#linear-gradient)"></path><path id="Path_1444" data-name="Path 1444" d="M633.088,1207.844a2.725,2.725,0,1,0,0,3.856A2.731,2.731,0,0,0,633.088,1207.844Z" transform="translate(-519.904 -1173.512)" fill="url(#linear-gradient)"></path><path id="Path_1445" data-name="Path 1445" d="M646.26,1221.016a2.725,2.725,0,1,0,0,3.855A2.729,2.729,0,0,0,646.26,1221.016Z" transform="translate(-520.217 -1173.825)" fill="url(#linear-gradient)"></path><path id="Path_1446" data-name="Path 1446" d="M659.432,1234.188a2.722,2.722,0,0,0-4.651,1.9q2.564-.66,5.152-1.179A2.725,2.725,0,0,0,659.432,1234.188Z" transform="translate(-520.531 -1174.138)" fill="url(#linear-gradient)"></path><path id="Path_1447" data-name="Path 1447" d="M778.038,1356.6A2.727,2.727,0,0,0,776.62,1352q-.543,2.659-1.235,5.291A2.711,2.711,0,0,0,778.038,1356.6Z" transform="translate(-523.398 -1176.958)" fill="url(#linear-gradient)"></path><path id="Path_1448" data-name="Path 1448" d="M791.161,1365.918a2.725,2.725,0,1,0,0,3.856A2.727,2.727,0,0,0,791.161,1365.918Z" transform="translate(-523.662 -1177.27)" fill="url(#linear-gradient)"></path><path id="Path_1449" data-name="Path 1449" d="M804.334,1379.09a2.725,2.725,0,1,0,0,3.856A2.729,2.729,0,0,0,804.334,1379.09Z" transform="translate(-523.976 -1177.583)" fill="url(#linear-gradient)"></path><path id="Path_1450" data-name="Path 1450" d="M817.506,1392.261a2.725,2.725,0,1,0,0,3.858A2.729,2.729,0,0,0,817.506,1392.261Z" transform="translate(-524.289 -1177.896)" fill="url(#linear-gradient)"></path><path id="Path_1451" data-name="Path 1451" d="M604.115,1199.929a2.725,2.725,0,1,0,0,3.855A2.725,2.725,0,0,0,604.115,1199.929Z" transform="translate(-519.215 -1173.323)" fill="url(#linear-gradient)"></path><path id="Path_1452" data-name="Path 1452" d="M617.287,1213.1a2.725,2.725,0,1,0,0,3.854A2.724,2.724,0,0,0,617.287,1213.1Z" transform="translate(-519.529 -1173.637)" fill="url(#linear-gradient)"></path><path id="Path_1453" data-name="Path 1453" d="M630.461,1226.276a2.725,2.725,0,1,0,0,3.854A2.726,2.726,0,0,0,630.461,1226.276Z" transform="translate(-519.842 -1173.95)" fill="url(#linear-gradient)"></path><path id="Path_1454" data-name="Path 1454" d="M643.634,1239.449a2.713,2.713,0,0,0-4.631,2.162q2.364-1.063,4.773-1.993C643.727,1239.564,643.688,1239.5,643.634,1239.449Z" transform="translate(-520.155 -1174.263)" fill="url(#linear-gradient)"></path><path id="Path_1455" data-name="Path 1455" d="M771.508,1375.031a2.726,2.726,0,1,0,0-3.858A2.732,2.732,0,0,0,771.508,1375.031Z" transform="translate(-523.287 -1177.395)" fill="url(#linear-gradient)"></path><path id="Path_1456" data-name="Path 1456" d="M788.535,1384.349a2.725,2.725,0,1,0,0,3.854A2.724,2.724,0,0,0,788.535,1384.349Z" transform="translate(-523.6 -1177.708)" fill="url(#linear-gradient)"></path><path id="Path_1457" data-name="Path 1457" d="M801.708,1397.521a2.725,2.725,0,1,0,0,3.855A2.728,2.728,0,0,0,801.708,1397.521Z" transform="translate(-523.913 -1178.021)" fill="url(#linear-gradient)"></path><path id="Path_1458" data-name="Path 1458" d="M814.881,1410.7a2.725,2.725,0,1,0,0,3.854A2.726,2.726,0,0,0,814.881,1410.7Z" transform="translate(-524.226 -1178.334)" fill="url(#linear-gradient)"></path><path id="Path_1459" data-name="Path 1459" d="M584.263,1201.858q-1.605,1.152-3.18,2.348a2.674,2.674,0,0,0,.747,2.205,2.725,2.725,0,1,0,3.853-3.854A2.64,2.64,0,0,0,584.263,1201.858Z" transform="translate(-518.778 -1173.388)" fill="url(#linear-gradient)"></path><path id="Path_1460" data-name="Path 1460" d="M598.857,1215.727a2.725,2.725,0,1,0,0,3.854A2.727,2.727,0,0,0,598.857,1215.727Z" transform="translate(-519.09 -1173.699)" fill="url(#linear-gradient)"></path><path id="Path_1461" data-name="Path 1461" d="M612.031,1228.9a2.725,2.725,0,1,0,0,3.854A2.729,2.729,0,0,0,612.031,1228.9Z" transform="translate(-519.403 -1174.012)" fill="url(#linear-gradient)"></path><path id="Path_1462" data-name="Path 1462" d="M625.2,1242.074a2.725,2.725,0,1,0,0,3.854A2.727,2.727,0,0,0,625.2,1242.074Z" transform="translate(-519.717 -1174.326)" fill="url(#linear-gradient)"></path><path id="Path_1463" data-name="Path 1463" d="M770.1,1386.975a2.725,2.725,0,1,0,0,3.855A2.726,2.726,0,0,0,770.1,1386.975Z" transform="translate(-523.162 -1177.771)" fill="url(#linear-gradient)"></path><path id="Path_1464" data-name="Path 1464" d="M783.277,1400.148a2.725,2.725,0,1,0,0,3.854A2.727,2.727,0,0,0,783.277,1400.148Z" transform="translate(-523.475 -1178.084)" fill="url(#linear-gradient)"></path><path id="Path_1465" data-name="Path 1465" d="M796.449,1413.319a2.725,2.725,0,1,0,0,3.855A2.727,2.727,0,0,0,796.449,1413.319Z" transform="translate(-523.788 -1178.397)" fill="url(#linear-gradient)"></path><path id="Path_1466" data-name="Path 1466" d="M805.768,1430.346a2.67,2.67,0,0,0,2.2.748q1.195-1.578,2.348-3.18a2.632,2.632,0,0,0-.7-1.421,2.725,2.725,0,1,0-3.853,3.853Z" transform="translate(-524.101 -1178.71)" fill="url(#linear-gradient)"></path><path id="Path_1467" data-name="Path 1467" d="M583.059,1220.986a2.725,2.725,0,1,0,0,3.856A2.727,2.727,0,0,0,583.059,1220.986Z" transform="translate(-518.715 -1173.824)" fill="url(#linear-gradient)"></path><path id="Path_1468" data-name="Path 1468" d="M596.232,1234.16a2.725,2.725,0,1,0,0,3.855A2.726,2.726,0,0,0,596.232,1234.16Z" transform="translate(-519.028 -1174.138)" fill="url(#linear-gradient)"></path><path id="Path_1469" data-name="Path 1469" d="M609.4,1247.333a2.725,2.725,0,1,0,0,3.855A2.728,2.728,0,0,0,609.4,1247.333Z" transform="translate(-519.341 -1174.451)" fill="url(#linear-gradient)"></path><path id="Path_1470" data-name="Path 1470" d="M767.479,1405.406a2.725,2.725,0,1,0,0,3.856A2.728,2.728,0,0,0,767.479,1405.406Z" transform="translate(-523.099 -1178.209)" fill="url(#linear-gradient)"></path><path id="Path_1471" data-name="Path 1471" d="M780.652,1418.579a2.725,2.725,0,1,0,0,3.856A2.728,2.728,0,0,0,780.652,1418.579Z" transform="translate(-523.413 -1178.522)" fill="url(#linear-gradient)"></path><path id="Path_1472" data-name="Path 1472" d="M793.825,1431.753a2.725,2.725,0,1,0,0,3.855A2.727,2.727,0,0,0,793.825,1431.753Z" transform="translate(-523.726 -1178.835)" fill="url(#linear-gradient)"></path><path id="Path_1473" data-name="Path 1473" d="M560.774,1227.465a2.724,2.724,0,1,0,0-3.857A2.727,2.727,0,0,0,560.774,1227.465Z" transform="translate(-518.276 -1173.886)" fill="url(#linear-gradient)"></path><path id="Path_1474" data-name="Path 1474" d="M577.8,1236.786a2.724,2.724,0,1,0,0,3.853A2.727,2.727,0,0,0,577.8,1236.786Z" transform="translate(-518.59 -1174.2)" fill="url(#linear-gradient)"></path><path id="Path_1475" data-name="Path 1475" d="M590.973,1249.959a2.724,2.724,0,1,0,0,3.852A2.727,2.727,0,0,0,590.973,1249.959Z" transform="translate(-518.903 -1174.513)" fill="url(#linear-gradient)"></path><path id="Path_1476" data-name="Path 1476" d="M604.145,1263.131a2.724,2.724,0,1,0,0,3.853A2.727,2.727,0,0,0,604.145,1263.131Z" transform="translate(-519.216 -1174.826)" fill="url(#linear-gradient)"></path><path id="Path_1477" data-name="Path 1477" d="M749.046,1408.033a2.724,2.724,0,1,0,0,3.854A2.725,2.725,0,0,0,749.046,1408.033Z" transform="translate(-522.661 -1178.271)" fill="url(#linear-gradient)"></path><path id="Path_1478" data-name="Path 1478" d="M762.219,1421.205a2.724,2.724,0,1,0,0,3.853A2.725,2.725,0,0,0,762.219,1421.205Z" transform="translate(-522.974 -1178.584)" fill="url(#linear-gradient)"></path><path id="Path_1479" data-name="Path 1479" d="M775.391,1434.377a2.724,2.724,0,1,0,0,3.854A2.727,2.727,0,0,0,775.391,1434.377Z" transform="translate(-523.288 -1178.897)" fill="url(#linear-gradient)"></path><path id="Path_1480" data-name="Path 1480" d="M788.568,1451.4a2.728,2.728,0,1,0-3.857,0A2.727,2.727,0,0,0,788.568,1451.4Z" transform="translate(-523.601 -1179.211)" fill="url(#linear-gradient)"></path><path id="Path_1481" data-name="Path 1481" d="M562,1242.044a2.725,2.725,0,1,0,0,3.856A2.725,2.725,0,0,0,562,1242.044Z" transform="translate(-518.214 -1174.325)" fill="url(#linear-gradient)"></path><path id="Path_1482" data-name="Path 1482" d="M575.175,1255.215a2.725,2.725,0,1,0,0,3.857A2.728,2.728,0,0,0,575.175,1255.215Z" transform="translate(-518.527 -1174.638)" fill="url(#linear-gradient)"></path><path id="Path_1483" data-name="Path 1483" d="M588.347,1268.389a2.725,2.725,0,1,0,0,3.856A2.727,2.727,0,0,0,588.347,1268.389Z" transform="translate(-518.84 -1174.951)" fill="url(#linear-gradient)"></path><path id="Path_1484" data-name="Path 1484" d="M733.276,1417.2a2.723,2.723,0,0,0,.743-2.466q-2.132,1.407-4.327,2.686A2.72,2.72,0,0,0,733.276,1417.2Z" transform="translate(-522.312 -1178.45)" fill="url(#linear-gradient)"></path><path id="Path_1485" data-name="Path 1485" d="M746.421,1426.464a2.725,2.725,0,1,0,0,3.856A2.727,2.727,0,0,0,746.421,1426.464Z" transform="translate(-522.599 -1178.71)" fill="url(#linear-gradient)"></path><path id="Path_1486" data-name="Path 1486" d="M759.594,1439.636a2.725,2.725,0,1,0,0,3.856A2.727,2.727,0,0,0,759.594,1439.636Z" transform="translate(-522.912 -1179.023)" fill="url(#linear-gradient)"></path><path id="Path_1487" data-name="Path 1487" d="M772.767,1452.808a2.724,2.724,0,1,0,0,3.856A2.726,2.726,0,0,0,772.767,1452.808Z" transform="translate(-523.225 -1179.336)" fill="url(#linear-gradient)"></path><path id="Path_1488" data-name="Path 1488" d="M543.606,1244.682a2.876,2.876,0,0,0-.357-.236c-.985,1.494-1.9,3.016-2.833,4.534a2.7,2.7,0,0,0,3.19-.441A2.728,2.728,0,0,0,543.606,1244.682Z" transform="translate(-517.812 -1174.401)" fill="url(#linear-gradient)"></path><path id="Path_1489" data-name="Path 1489" d="M556.743,1257.841a2.726,2.726,0,1,0,0,3.857A2.729,2.729,0,0,0,556.743,1257.841Z" transform="translate(-518.089 -1174.701)" fill="url(#linear-gradient)"></path><path id="Path_1490" data-name="Path 1490" d="M569.917,1271.015a2.726,2.726,0,1,0,0,3.855A2.729,2.729,0,0,0,569.917,1271.015Z" transform="translate(-518.402 -1175.014)" fill="url(#linear-gradient)"></path><path id="Path_1491" data-name="Path 1491" d="M583.089,1284.187a2.726,2.726,0,1,0,0,3.855A2.728,2.728,0,0,0,583.089,1284.187Z" transform="translate(-518.715 -1175.327)" fill="url(#linear-gradient)"></path><path id="Path_1492" data-name="Path 1492" d="M727.991,1429.089a2.726,2.726,0,1,0,0,3.856A2.729,2.729,0,0,0,727.991,1429.089Z" transform="translate(-522.161 -1178.772)" fill="url(#linear-gradient)"></path><path id="Path_1493" data-name="Path 1493" d="M741.163,1442.261a2.726,2.726,0,1,0,0,3.855A2.73,2.73,0,0,0,741.163,1442.261Z" transform="translate(-522.474 -1179.085)" fill="url(#linear-gradient)"></path><path id="Path_1494" data-name="Path 1494" d="M754.335,1455.433a2.726,2.726,0,1,0,0,3.856A2.727,2.727,0,0,0,754.335,1455.433Z" transform="translate(-522.787 -1179.398)" fill="url(#linear-gradient)"></path><path id="Path_1495" data-name="Path 1495" d="M763.651,1468.6a2.7,2.7,0,0,0-.441,3.19c1.517-.928,3.04-1.849,4.533-2.833a2.821,2.821,0,0,0-.234-.356A2.729,2.729,0,0,0,763.651,1468.6Z" transform="translate(-523.101 -1179.712)" fill="url(#linear-gradient)"></path><path id="Path_1496" data-name="Path 1496" d="M540.945,1263.1a2.725,2.725,0,1,0,0,3.856A2.726,2.726,0,0,0,540.945,1263.1Z" transform="translate(-517.713 -1174.826)" fill="url(#linear-gradient)"></path><path id="Path_1497" data-name="Path 1497" d="M554.118,1276.272a2.725,2.725,0,1,0,0,3.856A2.727,2.727,0,0,0,554.118,1276.272Z" transform="translate(-518.027 -1175.139)" fill="url(#linear-gradient)"></path><path id="Path_1498" data-name="Path 1498" d="M567.291,1289.446a2.725,2.725,0,1,0,0,3.856A2.727,2.727,0,0,0,567.291,1289.446Z" transform="translate(-518.34 -1175.452)" fill="url(#linear-gradient)"></path><path id="Path_1499" data-name="Path 1499" d="M580.464,1302.618a2.725,2.725,0,1,0,0,3.856A2.729,2.729,0,0,0,580.464,1302.618Z" transform="translate(-518.653 -1175.765)" fill="url(#linear-gradient)"></path><path id="Path_1500" data-name="Path 1500" d="M712.192,1434.346a2.726,2.726,0,1,0,0,3.857A2.727,2.727,0,0,0,712.192,1434.346Z" transform="translate(-521.785 -1178.897)" fill="url(#linear-gradient)"></path><path id="Path_1501" data-name="Path 1501" d="M725.365,1447.519a2.725,2.725,0,1,0,0,3.856A2.726,2.726,0,0,0,725.365,1447.519Z" transform="translate(-522.098 -1179.21)" fill="url(#linear-gradient)"></path><path id="Path_1502" data-name="Path 1502" d="M738.537,1460.693a2.725,2.725,0,1,0,0,3.856A2.726,2.726,0,0,0,738.537,1460.693Z" transform="translate(-522.411 -1179.523)" fill="url(#linear-gradient)"></path><path id="Path_1503" data-name="Path 1503" d="M751.711,1473.866a2.725,2.725,0,1,0,0,3.856A2.727,2.727,0,0,0,751.711,1473.866Z" transform="translate(-522.724 -1179.837)" fill="url(#linear-gradient)"></path><path id="Path_1504" data-name="Path 1504" d="M535.687,1282.754a2.728,2.728,0,1,0-3.856,0A2.728,2.728,0,0,0,535.687,1282.754Z" transform="translate(-517.588 -1175.201)" fill="url(#linear-gradient)"></path><path id="Path_1505" data-name="Path 1505" d="M548.861,1292.07a2.727,2.727,0,1,0,0,3.857A2.73,2.73,0,0,0,548.861,1292.07Z" transform="translate(-517.901 -1175.514)" fill="url(#linear-gradient)"></path><path id="Path_1506" data-name="Path 1506" d="M562.033,1305.243a2.726,2.726,0,1,0,0,3.856A2.73,2.73,0,0,0,562.033,1305.243Z" transform="translate(-518.215 -1175.827)" fill="url(#linear-gradient)"></path><path id="Path_1507" data-name="Path 1507" d="M575.2,1318.416a2.727,2.727,0,1,0,0,3.858A2.73,2.73,0,0,0,575.2,1318.416Z" transform="translate(-518.528 -1176.141)" fill="url(#linear-gradient)"></path><path id="Path_1508" data-name="Path 1508" d="M693.761,1436.971a2.727,2.727,0,1,0,0,3.858A2.727,2.727,0,0,0,693.761,1436.971Z" transform="translate(-521.347 -1178.959)" fill="url(#linear-gradient)"></path><path id="Path_1509" data-name="Path 1509" d="M706.934,1450.144a2.727,2.727,0,1,0,0,3.858A2.727,2.727,0,0,0,706.934,1450.144Z" transform="translate(-521.66 -1179.273)" fill="url(#linear-gradient)"></path><path id="Path_1510" data-name="Path 1510" d="M720.107,1463.317a2.727,2.727,0,1,0,0,3.857A2.728,2.728,0,0,0,720.107,1463.317Z" transform="translate(-521.973 -1179.586)" fill="url(#linear-gradient)"></path><path id="Path_1511" data-name="Path 1511" d="M729.423,1480.345a2.727,2.727,0,1,0,0-3.856A2.727,2.727,0,0,0,729.423,1480.345Z" transform="translate(-522.286 -1179.899)" fill="url(#linear-gradient)"></path><path id="Path_1512" data-name="Path 1512" d="M533.06,1297.331a2.726,2.726,0,1,0,0,3.855A2.727,2.727,0,0,0,533.06,1297.331Z" transform="translate(-517.526 -1175.639)" fill="url(#linear-gradient)"></path><path id="Path_1513" data-name="Path 1513" d="M546.233,1310.5a2.727,2.727,0,1,0,0,3.855A2.727,2.727,0,0,0,546.233,1310.5Z" transform="translate(-517.839 -1175.953)" fill="url(#linear-gradient)"></path><path id="Path_1514" data-name="Path 1514" d="M559.407,1323.676a2.727,2.727,0,1,0,0,3.857A2.729,2.729,0,0,0,559.407,1323.676Z" transform="translate(-518.152 -1176.266)" fill="url(#linear-gradient)"></path><path id="Path_1515" data-name="Path 1515" d="M572.579,1336.849a2.727,2.727,0,1,0,0,3.856A2.727,2.727,0,0,0,572.579,1336.849Z" transform="translate(-518.465 -1176.579)" fill="url(#linear-gradient)"></path><path id="Path_1516" data-name="Path 1516" d="M581.9,1350.03a2.73,2.73,0,0,0,1.407,4.608q-.58-2.448-1.028-4.918A2.857,2.857,0,0,0,581.9,1350.03Z" transform="translate(-518.779 -1176.904)" fill="url(#linear-gradient)"></path><path id="Path_1517" data-name="Path 1517" d="M660.933,1432.935a2.723,2.723,0,0,0,4.428-3q-2.259-.326-4.5-.762A2.724,2.724,0,0,0,660.933,1432.935Z" transform="translate(-520.658 -1178.793)" fill="url(#linear-gradient)"></path><path id="Path_1518" data-name="Path 1518" d="M677.962,1442.231a2.727,2.727,0,1,0,0,3.856A2.725,2.725,0,0,0,677.962,1442.231Z" transform="translate(-520.971 -1179.084)" fill="url(#linear-gradient)"></path><path id="Path_1519" data-name="Path 1519" d="M691.134,1455.4a2.727,2.727,0,1,0,0,3.855A2.727,2.727,0,0,0,691.134,1455.4Z" transform="translate(-521.284 -1179.398)" fill="url(#linear-gradient)"></path><path id="Path_1520" data-name="Path 1520" d="M704.307,1468.578a2.726,2.726,0,1,0,0,3.855A2.727,2.727,0,0,0,704.307,1468.578Z" transform="translate(-521.597 -1179.711)" fill="url(#linear-gradient)"></path><path id="Path_1521" data-name="Path 1521" d="M717.48,1481.751a2.726,2.726,0,1,0,0,3.855A2.726,2.726,0,0,0,717.48,1481.751Z" transform="translate(-521.911 -1180.024)" fill="url(#linear-gradient)"></path><path id="Path_1522" data-name="Path 1522" d="M527.8,1313.13a2.725,2.725,0,1,0,0,3.856A2.73,2.73,0,0,0,527.8,1313.13Z" transform="translate(-517.401 -1176.015)" fill="url(#linear-gradient)"></path><path id="Path_1523" data-name="Path 1523" d="M540.975,1326.3a2.726,2.726,0,1,0,0,3.857A2.73,2.73,0,0,0,540.975,1326.3Z" transform="translate(-517.714 -1176.328)" fill="url(#linear-gradient)"></path><path id="Path_1524" data-name="Path 1524" d="M554.147,1339.473a2.726,2.726,0,1,0,0,3.858A2.727,2.727,0,0,0,554.147,1339.473Z" transform="translate(-518.027 -1176.641)" fill="url(#linear-gradient)"></path><path id="Path_1525" data-name="Path 1525" d="M567.32,1352.647a2.725,2.725,0,1,0,0,3.856A2.727,2.727,0,0,0,567.32,1352.647Z" transform="translate(-518.341 -1176.955)" fill="url(#linear-gradient)"></path><path id="Path_1526" data-name="Path 1526" d="M580.493,1365.819a2.725,2.725,0,1,0,0,3.856A2.727,2.727,0,0,0,580.493,1365.819Z" transform="translate(-518.654 -1177.268)" fill="url(#linear-gradient)"></path><path id="Path_1527" data-name="Path 1527" d="M589.807,1378.991a2.728,2.728,0,1,0,4.412,3.045q-1.11-1.885-2.127-3.807A2.707,2.707,0,0,0,589.807,1378.991Z" transform="translate(-518.967 -1177.581)" fill="url(#linear-gradient)"></path><path id="Path_1528" data-name="Path 1528" d="M602.984,1396.072a2.71,2.71,0,0,0,1.991.792q-1.406-1.609-2.73-3.273A2.721,2.721,0,0,0,602.984,1396.072Z" transform="translate(-519.28 -1177.947)" fill="url(#linear-gradient)"></path><path id="Path_1529" data-name="Path 1529" d="M616.157,1409.255a2.717,2.717,0,0,0,2.6.7q-1.715-1.341-3.385-2.766A2.712,2.712,0,0,0,616.157,1409.255Z" transform="translate(-519.594 -1178.27)" fill="url(#linear-gradient)"></path><path id="Path_1530" data-name="Path 1530" d="M629.327,1418.513a2.728,2.728,0,1,0,4.556,1.242q-1.745-.908-3.46-1.9A2.7,2.7,0,0,0,629.327,1418.513Z" transform="translate(-519.906 -1178.524)" fill="url(#linear-gradient)"></path><path id="Path_1531" data-name="Path 1531" d="M646.357,1431.683a2.725,2.725,0,1,0,0,3.857A2.726,2.726,0,0,0,646.357,1431.683Z" transform="translate(-520.22 -1178.833)" fill="url(#linear-gradient)"></path><path id="Path_1532" data-name="Path 1532" d="M659.53,1444.857a2.725,2.725,0,1,0,0,3.857A2.728,2.728,0,0,0,659.53,1444.857Z" transform="translate(-520.533 -1179.147)" fill="url(#linear-gradient)"></path><path id="Path_1533" data-name="Path 1533" d="M672.7,1458.03a2.725,2.725,0,1,0,0,3.857A2.728,2.728,0,0,0,672.7,1458.03Z" transform="translate(-520.846 -1179.46)" fill="url(#linear-gradient)"></path><path id="Path_1534" data-name="Path 1534" d="M685.876,1471.2a2.725,2.725,0,1,0,0,3.857A2.726,2.726,0,0,0,685.876,1471.2Z" transform="translate(-521.159 -1179.773)" fill="url(#linear-gradient)"></path><path id="Path_1535" data-name="Path 1535" d="M699.049,1484.376a2.725,2.725,0,1,0,0,3.856A2.729,2.729,0,0,0,699.049,1484.376Z" transform="translate(-521.472 -1180.087)" fill="url(#linear-gradient)"></path><path id="Path_1536" data-name="Path 1536" d="M525.176,1331.56a2.726,2.726,0,1,0,0,3.855A2.726,2.726,0,0,0,525.176,1331.56Z" transform="translate(-517.339 -1176.453)" fill="url(#linear-gradient)"></path><path id="Path_1537" data-name="Path 1537" d="M538.349,1344.734a2.726,2.726,0,1,0,0,3.855A2.727,2.727,0,0,0,538.349,1344.734Z" transform="translate(-517.652 -1176.766)" fill="url(#linear-gradient)"></path><path id="Path_1538" data-name="Path 1538" d="M551.522,1357.907a2.726,2.726,0,1,0,0,3.855A2.727,2.727,0,0,0,551.522,1357.907Z" transform="translate(-517.965 -1177.08)" fill="url(#linear-gradient)"></path><path id="Path_1539" data-name="Path 1539" d="M564.695,1371.08a2.726,2.726,0,1,0,0,3.855A2.727,2.727,0,0,0,564.695,1371.08Z" transform="translate(-518.278 -1177.393)" fill="url(#linear-gradient)"></path><path id="Path_1540" data-name="Path 1540" d="M577.868,1384.253a2.726,2.726,0,1,0,0,3.854A2.727,2.727,0,0,0,577.868,1384.253Z" transform="translate(-518.591 -1177.706)" fill="url(#linear-gradient)"></path><path id="Path_1541" data-name="Path 1541" d="M591.041,1397.425a2.726,2.726,0,1,0,0,3.855A2.729,2.729,0,0,0,591.041,1397.425Z" transform="translate(-518.904 -1178.019)" fill="url(#linear-gradient)"></path><path id="Path_1542" data-name="Path 1542" d="M600.358,1410.594a2.728,2.728,0,1,0,3.854,0A2.732,2.732,0,0,0,600.358,1410.594Z" transform="translate(-519.218 -1178.332)" fill="url(#linear-gradient)"></path><path id="Path_1543" data-name="Path 1543" d="M617.386,1423.77a2.726,2.726,0,1,0,0,3.855A2.726,2.726,0,0,0,617.386,1423.77Z" transform="translate(-519.531 -1178.646)" fill="url(#linear-gradient)"></path><path id="Path_1544" data-name="Path 1544" d="M630.558,1436.943a2.725,2.725,0,1,0,0,3.855A2.725,2.725,0,0,0,630.558,1436.943Z" transform="translate(-519.844 -1178.959)" fill="url(#linear-gradient)"></path><path id="Path_1545" data-name="Path 1545" d="M643.731,1450.116a2.726,2.726,0,1,0,0,3.856A2.725,2.725,0,0,0,643.731,1450.116Z" transform="translate(-520.157 -1179.272)" fill="url(#linear-gradient)"></path><path id="Path_1546" data-name="Path 1546" d="M656.9,1463.29a2.726,2.726,0,1,0,0,3.855A2.725,2.725,0,0,0,656.9,1463.29Z" transform="translate(-520.471 -1179.585)" fill="url(#linear-gradient)"></path><path id="Path_1547" data-name="Path 1547" d="M670.077,1476.461a2.726,2.726,0,1,0,0,3.856A2.728,2.728,0,0,0,670.077,1476.461Z" transform="translate(-520.784 -1179.898)" fill="url(#linear-gradient)"></path><path id="Path_1548" data-name="Path 1548" d="M683.25,1489.634a2.726,2.726,0,1,0,0,3.856A2.729,2.729,0,0,0,683.25,1489.634Z" transform="translate(-521.097 -1180.211)" fill="url(#linear-gradient)"></path><path id="Path_1549" data-name="Path 1549" d="M519.964,1347.359a2.7,2.7,0,0,0-2.7-.647q.217,2.626.521,5.25a2.665,2.665,0,0,0,2.182-.749A2.723,2.723,0,0,0,519.964,1347.359Z" transform="translate(-517.261 -1176.83)" fill="url(#linear-gradient)"></path><path id="Path_1550" data-name="Path 1550" d="M533.09,1360.531a2.726,2.726,0,1,0,0,3.857A2.727,2.727,0,0,0,533.09,1360.531Z" transform="translate(-517.527 -1177.142)" fill="url(#linear-gradient)"></path><path id="Path_1551" data-name="Path 1551" d="M546.263,1373.7a2.725,2.725,0,1,0,0,3.856A2.728,2.728,0,0,0,546.263,1373.7Z" transform="translate(-517.84 -1177.455)" fill="url(#linear-gradient)"></path><path id="Path_1552" data-name="Path 1552" d="M559.435,1386.878a2.725,2.725,0,1,0,0,3.855A2.726,2.726,0,0,0,559.435,1386.878Z" transform="translate(-518.153 -1177.768)" fill="url(#linear-gradient)"></path><path id="Path_1553" data-name="Path 1553" d="M572.608,1400.05a2.725,2.725,0,1,0,0,3.856A2.729,2.729,0,0,0,572.608,1400.05Z" transform="translate(-518.466 -1178.082)" fill="url(#linear-gradient)"></path><path id="Path_1554" data-name="Path 1554" d="M585.781,1413.222a2.725,2.725,0,1,0,0,3.856A2.729,2.729,0,0,0,585.781,1413.222Z" transform="translate(-518.779 -1178.395)" fill="url(#linear-gradient)"></path><path id="Path_1555" data-name="Path 1555" d="M598.953,1426.395a2.725,2.725,0,1,0,0,3.857A2.725,2.725,0,0,0,598.953,1426.395Z" transform="translate(-519.093 -1178.708)" fill="url(#linear-gradient)"></path><path id="Path_1556" data-name="Path 1556" d="M612.125,1439.567a2.725,2.725,0,1,0,0,3.858A2.726,2.726,0,0,0,612.125,1439.567Z" transform="translate(-519.406 -1179.021)" fill="url(#linear-gradient)"></path><path id="Path_1557" data-name="Path 1557" d="M625.3,1452.741a2.725,2.725,0,1,0,0,3.857A2.729,2.729,0,0,0,625.3,1452.741Z" transform="translate(-519.719 -1179.334)" fill="url(#linear-gradient)"></path><path id="Path_1558" data-name="Path 1558" d="M638.472,1465.915a2.725,2.725,0,1,0,0,3.855A2.726,2.726,0,0,0,638.472,1465.915Z" transform="translate(-520.032 -1179.647)" fill="url(#linear-gradient)"></path><path id="Path_1559" data-name="Path 1559" d="M651.645,1479.087a2.725,2.725,0,1,0,0,3.857A2.726,2.726,0,0,0,651.645,1479.087Z" transform="translate(-520.345 -1179.961)" fill="url(#linear-gradient)"></path><path id="Path_1560" data-name="Path 1560" d="M660.963,1492.259a2.67,2.67,0,0,0-.749,2.183q2.622.3,5.251.521a2.7,2.7,0,0,0-4.5-2.7Z" transform="translate(-520.659 -1180.274)" fill="url(#linear-gradient)"></path><path id="Path_1561" data-name="Path 1561" d="M530.466,1378.964a2.726,2.726,0,1,0,0,3.856A2.729,2.729,0,0,0,530.466,1378.964Z" transform="translate(-517.464 -1177.58)" fill="url(#linear-gradient)"></path><path id="Path_1562" data-name="Path 1562" d="M543.639,1392.135a2.726,2.726,0,1,0,0,3.856A2.73,2.73,0,0,0,543.639,1392.135Z" transform="translate(-517.778 -1177.893)" fill="url(#linear-gradient)"></path><path id="Path_1563" data-name="Path 1563" d="M556.812,1405.309a2.726,2.726,0,1,0,0,3.855A2.727,2.727,0,0,0,556.812,1405.309Z" transform="translate(-518.091 -1178.206)" fill="url(#linear-gradient)"></path><path id="Path_1564" data-name="Path 1564" d="M569.985,1418.482a2.726,2.726,0,1,0,0,3.855A2.728,2.728,0,0,0,569.985,1418.482Z" transform="translate(-518.404 -1178.52)" fill="url(#linear-gradient)"></path><path id="Path_1565" data-name="Path 1565" d="M579.3,1435.508a2.726,2.726,0,1,0,0-3.856A2.727,2.727,0,0,0,579.3,1435.508Z" transform="translate(-518.717 -1178.833)" fill="url(#linear-gradient)"></path><path id="Path_1566" data-name="Path 1566" d="M596.329,1444.827a2.725,2.725,0,1,0,0,3.856A2.728,2.728,0,0,0,596.329,1444.827Z" transform="translate(-519.03 -1179.146)" fill="url(#linear-gradient)"></path><path id="Path_1567" data-name="Path 1567" d="M609.5,1458a2.725,2.725,0,1,0,0,3.856A2.726,2.726,0,0,0,609.5,1458Z" transform="translate(-519.343 -1179.459)" fill="url(#linear-gradient)"></path><path id="Path_1568" data-name="Path 1568" d="M622.675,1471.172a2.726,2.726,0,1,0,0,3.858A2.728,2.728,0,0,0,622.675,1471.172Z" transform="translate(-519.656 -1179.772)" fill="url(#linear-gradient)"></path><path id="Path_1569" data-name="Path 1569" d="M635.848,1484.346a2.726,2.726,0,1,0,0,3.856A2.728,2.728,0,0,0,635.848,1484.346Z" transform="translate(-519.97 -1180.086)" fill="url(#linear-gradient)"></path><path id="Path_1570" data-name="Path 1570" d="M538.4,1407.935a2.708,2.708,0,0,0-3.677-.121c.8,1.556,1.659,3.093,2.515,4.628a2.681,2.681,0,0,0,1.166-.653A2.726,2.726,0,0,0,538.4,1407.935Z" transform="translate(-517.676 -1178.27)" fill="url(#linear-gradient)"></path><path id="Path_1571" data-name="Path 1571" d="M551.55,1421.108a2.725,2.725,0,1,0,0,3.854A2.728,2.728,0,0,0,551.55,1421.108Z" transform="translate(-517.966 -1178.582)" fill="url(#linear-gradient)"></path><path id="Path_1572" data-name="Path 1572" d="M564.722,1434.281a2.725,2.725,0,1,0,0,3.854A2.726,2.726,0,0,0,564.722,1434.281Z" transform="translate(-518.279 -1178.896)" fill="url(#linear-gradient)"></path><path id="Path_1573" data-name="Path 1573" d="M577.895,1447.453a2.725,2.725,0,1,0,0,3.855A2.724,2.724,0,0,0,577.895,1447.453Z" transform="translate(-518.592 -1179.208)" fill="url(#linear-gradient)"></path><path id="Path_1574" data-name="Path 1574" d="M591.067,1460.625a2.725,2.725,0,1,0,.006,3.856A2.726,2.726,0,0,0,591.067,1460.625Z" transform="translate(-518.905 -1179.522)" fill="url(#linear-gradient)"></path><path id="Path_1575" data-name="Path 1575" d="M604.245,1473.8a2.729,2.729,0,0,0-3.855,0,2.69,2.69,0,0,0-.653,1.165c1.538.858,3.071,1.709,4.628,2.514A2.7,2.7,0,0,0,604.245,1473.8Z" transform="translate(-519.222 -1179.835)" fill="url(#linear-gradient)"></path></g></g></svg> 