<?xml version="1.0" encoding="UTF-8"?> <svg xmlns="http://www.w3.org/2000/svg" xmlns:xlink="http://www.w3.org/1999/xlink" width="149.961" height="148.227" viewBox="0 0 149.961 148.227"><defs><linearGradient id="linear-gradient" x1="0.5" x2="0.5" y2="1" gradientUnits="objectBoundingBox"><stop offset="0" stop-color="#00c1c2"></stop><stop offset="1" stop-color="#03d59f"></stop></linearGradient></defs><g id="Group_582" data-name="Group 582" transform="translate(-1499.159 -1298.546)" opacity="0.7"><path id="Path_780" data-name="Path 780" d="M1634.591,1302.625a1.3,1.3,0,0,0,1.3-1.3,1.171,1.171,0,0,0-.041-.2c-.835.171-1.659.375-2.483.573A1.283,1.283,0,0,0,1634.591,1302.625Z" transform="translate(-76.922 -1.479)" fill="url(#linear-gradient)"></path><path id="Path_781" data-name="Path 781" d="M1654.8,1298.546a1.3,1.3,0,1,0,1.3,1.3A1.3,1.3,0,0,0,1654.8,1298.546Z" transform="translate(-88.459)" fill="url(#linear-gradient)"></path><path id="Path_782" data-name="Path 782" d="M1673.8,1299.846a1.3,1.3,0,1,0,1.3-1.3A1.3,1.3,0,0,0,1673.8,1299.846Z" transform="translate(-100.098)" fill="url(#linear-gradient)"></path><path id="Path_783" data-name="Path 783" d="M1694.113,1300.007a1.3,1.3,0,1,0,2.6,0,1.275,1.275,0,0,0-.521-1.013c-.436-.06-.874-.114-1.312-.167A1.3,1.3,0,0,0,1694.113,1300.007Z" transform="translate(-111.738 -0.161)" fill="url(#linear-gradient)"></path><path id="Path_784" data-name="Path 784" d="M1715.774,1303.162a1.279,1.279,0,0,0,1.033-.549c-.758-.2-1.526-.374-2.292-.55A1.283,1.283,0,0,0,1715.774,1303.162Z" transform="translate(-123.432 -2.016)" fill="url(#linear-gradient)"></path><path id="Path_785" data-name="Path 785" d="M1602,1314.792a1.3,1.3,0,1,0,1.3,1.3A1.3,1.3,0,0,0,1602,1314.792Z" transform="translate(-58.197 -9.311)" fill="url(#linear-gradient)"></path><path id="Path_786" data-name="Path 786" d="M1622.3,1314.792a1.3,1.3,0,1,0,1.3,1.3A1.3,1.3,0,0,0,1622.3,1314.792Z" transform="translate(-69.836 -9.311)" fill="url(#linear-gradient)"></path><path id="Path_787" data-name="Path 787" d="M1642.613,1314.792a1.3,1.3,0,1,0,1.3,1.3A1.3,1.3,0,0,0,1642.613,1314.792Z" transform="translate(-81.475 -9.311)" fill="url(#linear-gradient)"></path><path id="Path_788" data-name="Path 788" d="M1662.92,1314.792a1.3,1.3,0,1,0,1.3,1.3A1.3,1.3,0,0,0,1662.92,1314.792Z" transform="translate(-93.114 -9.311)" fill="url(#linear-gradient)"></path><path id="Path_789" data-name="Path 789" d="M1683.228,1314.792a1.3,1.3,0,1,0,1.3,1.3A1.3,1.3,0,0,0,1683.228,1314.792Z" transform="translate(-104.754 -9.311)" fill="url(#linear-gradient)"></path><path id="Path_790" data-name="Path 790" d="M1703.535,1314.792a1.3,1.3,0,1,0,1.3,1.3A1.3,1.3,0,0,0,1703.535,1314.792Z" transform="translate(-116.393 -9.311)" fill="url(#linear-gradient)"></path><path id="Path_791" data-name="Path 791" d="M1723.842,1314.792a1.3,1.3,0,1,0,1.3,1.3A1.3,1.3,0,0,0,1723.842,1314.792Z" transform="translate(-128.032 -9.311)" fill="url(#linear-gradient)"></path><path id="Path_792" data-name="Path 792" d="M1744.15,1314.792a1.3,1.3,0,1,0,1.3,1.3A1.3,1.3,0,0,0,1744.15,1314.792Z" transform="translate(-139.671 -9.311)" fill="url(#linear-gradient)"></path><path id="Path_793" data-name="Path 793" d="M1573.566,1331.037a1.3,1.3,0,1,0,1.3,1.3A1.3,1.3,0,0,0,1573.566,1331.037Z" transform="translate(-41.901 -18.622)" fill="url(#linear-gradient)"></path><path id="Path_794" data-name="Path 794" d="M1593.874,1331.037a1.3,1.3,0,1,0,1.3,1.3A1.3,1.3,0,0,0,1593.874,1331.037Z" transform="translate(-53.541 -18.622)" fill="url(#linear-gradient)"></path><path id="Path_795" data-name="Path 795" d="M1614.182,1331.037a1.3,1.3,0,1,0,1.3,1.3A1.3,1.3,0,0,0,1614.182,1331.037Z" transform="translate(-65.181 -18.622)" fill="url(#linear-gradient)"></path><path id="Path_796" data-name="Path 796" d="M1634.489,1331.037a1.3,1.3,0,1,0,1.3,1.3A1.3,1.3,0,0,0,1634.489,1331.037Z" transform="translate(-76.82 -18.622)" fill="url(#linear-gradient)"></path><path id="Path_797" data-name="Path 797" d="M1654.8,1331.037a1.3,1.3,0,1,0,1.3,1.3A1.3,1.3,0,0,0,1654.8,1331.037Z" transform="translate(-88.459 -18.622)" fill="url(#linear-gradient)"></path><path id="Path_798" data-name="Path 798" d="M1675.1,1331.037a1.3,1.3,0,1,0,1.3,1.3A1.3,1.3,0,0,0,1675.1,1331.037Z" transform="translate(-100.098 -18.622)" fill="url(#linear-gradient)"></path><path id="Path_799" data-name="Path 799" d="M1695.412,1331.037a1.3,1.3,0,1,0,1.3,1.3A1.3,1.3,0,0,0,1695.412,1331.037Z" transform="translate(-111.738 -18.622)" fill="url(#linear-gradient)"></path><path id="Path_800" data-name="Path 800" d="M1715.719,1331.037a1.3,1.3,0,1,0,1.3,1.3A1.3,1.3,0,0,0,1715.719,1331.037Z" transform="translate(-123.377 -18.622)" fill="url(#linear-gradient)"></path><path id="Path_801" data-name="Path 801" d="M1736.027,1331.037a1.3,1.3,0,1,0,1.3,1.3A1.3,1.3,0,0,0,1736.027,1331.037Z" transform="translate(-135.016 -18.622)" fill="url(#linear-gradient)"></path><path id="Path_802" data-name="Path 802" d="M1756.335,1331.037a1.3,1.3,0,1,0,1.3,1.3A1.3,1.3,0,0,0,1756.335,1331.037Z" transform="translate(-146.656 -18.622)" fill="url(#linear-gradient)"></path><path id="Path_803" data-name="Path 803" d="M1775.341,1332.347a1.3,1.3,0,0,0,2.6,0,1.26,1.26,0,0,0-.076-.376c-.413-.313-.836-.613-1.257-.917A1.3,1.3,0,0,0,1775.341,1332.347Z" transform="translate(-158.294 -18.632)" fill="url(#linear-gradient)"></path><path id="Path_804" data-name="Path 804" d="M1561.382,1347.284a1.3,1.3,0,1,0,1.3,1.3A1.3,1.3,0,0,0,1561.382,1347.284Z" transform="translate(-34.918 -27.934)" fill="url(#linear-gradient)"></path><path id="Path_805" data-name="Path 805" d="M1581.69,1347.284a1.3,1.3,0,1,0,1.3,1.3A1.3,1.3,0,0,0,1581.69,1347.284Z" transform="translate(-46.558 -27.934)" fill="url(#linear-gradient)"></path><path id="Path_806" data-name="Path 806" d="M1602,1347.284a1.3,1.3,0,1,0,1.3,1.3A1.3,1.3,0,0,0,1602,1347.284Z" transform="translate(-58.197 -27.934)" fill="url(#linear-gradient)"></path><path id="Path_807" data-name="Path 807" d="M1622.3,1347.284a1.3,1.3,0,1,0,1.3,1.3A1.3,1.3,0,0,0,1622.3,1347.284Z" transform="translate(-69.836 -27.934)" fill="url(#linear-gradient)"></path><path id="Path_808" data-name="Path 808" d="M1642.613,1347.284a1.3,1.3,0,1,0,1.3,1.3A1.3,1.3,0,0,0,1642.613,1347.284Z" transform="translate(-81.475 -27.934)" fill="url(#linear-gradient)"></path><path id="Path_809" data-name="Path 809" d="M1662.92,1347.284a1.3,1.3,0,1,0,1.3,1.3A1.3,1.3,0,0,0,1662.92,1347.284Z" transform="translate(-93.114 -27.934)" fill="url(#linear-gradient)"></path><path id="Path_810" data-name="Path 810" d="M1683.228,1347.284a1.3,1.3,0,1,0,1.3,1.3A1.3,1.3,0,0,0,1683.228,1347.284Z" transform="translate(-104.754 -27.934)" fill="url(#linear-gradient)"></path><path id="Path_811" data-name="Path 811" d="M1703.535,1347.284a1.3,1.3,0,1,0,1.3,1.3A1.3,1.3,0,0,0,1703.535,1347.284Z" transform="translate(-116.393 -27.934)" fill="url(#linear-gradient)"></path><path id="Path_812" data-name="Path 812" d="M1723.842,1347.284a1.3,1.3,0,1,0,1.3,1.3A1.3,1.3,0,0,0,1723.842,1347.284Z" transform="translate(-128.032 -27.934)" fill="url(#linear-gradient)"></path><path id="Path_813" data-name="Path 813" d="M1744.15,1347.284a1.3,1.3,0,1,0,1.3,1.3A1.3,1.3,0,0,0,1744.15,1347.284Z" transform="translate(-139.671 -27.934)" fill="url(#linear-gradient)"></path><path id="Path_814" data-name="Path 814" d="M1764.457,1347.284a1.3,1.3,0,1,0,1.3,1.3A1.3,1.3,0,0,0,1764.457,1347.284Z" transform="translate(-151.311 -27.934)" fill="url(#linear-gradient)"></path><path id="Path_815" data-name="Path 815" d="M1784.765,1347.284a1.3,1.3,0,1,0,1.3,1.3A1.3,1.3,0,0,0,1784.765,1347.284Z" transform="translate(-162.95 -27.934)" fill="url(#linear-gradient)"></path><path id="Path_816" data-name="Path 816" d="M1533.67,1366.54a1.3,1.3,0,0,0,1.3-1.3,1.279,1.279,0,0,0-.495-1c-.531.667-1.063,1.334-1.571,2.019A1.274,1.274,0,0,0,1533.67,1366.54Z" transform="translate(-19.341 -37.655)" fill="url(#linear-gradient)"></path><path id="Path_817" data-name="Path 817" d="M1553.259,1363.529a1.3,1.3,0,1,0,1.3,1.3A1.3,1.3,0,0,0,1553.259,1363.529Z" transform="translate(-30.262 -37.245)" fill="url(#linear-gradient)"></path><path id="Path_818" data-name="Path 818" d="M1573.566,1363.529a1.3,1.3,0,1,0,1.3,1.3A1.3,1.3,0,0,0,1573.566,1363.529Z" transform="translate(-41.901 -37.245)" fill="url(#linear-gradient)"></path><path id="Path_819" data-name="Path 819" d="M1593.874,1363.529a1.3,1.3,0,1,0,1.3,1.3A1.3,1.3,0,0,0,1593.874,1363.529Z" transform="translate(-53.541 -37.245)" fill="url(#linear-gradient)"></path><path id="Path_820" data-name="Path 820" d="M1614.182,1363.529a1.3,1.3,0,1,0,1.3,1.3A1.3,1.3,0,0,0,1614.182,1363.529Z" transform="translate(-65.181 -37.245)" fill="url(#linear-gradient)"></path><path id="Path_821" data-name="Path 821" d="M1634.489,1363.529a1.3,1.3,0,1,0,1.3,1.3A1.3,1.3,0,0,0,1634.489,1363.529Z" transform="translate(-76.82 -37.245)" fill="url(#linear-gradient)"></path><path id="Path_822" data-name="Path 822" d="M1654.8,1363.529a1.3,1.3,0,1,0,1.3,1.3A1.3,1.3,0,0,0,1654.8,1363.529Z" transform="translate(-88.459 -37.245)" fill="url(#linear-gradient)"></path><path id="Path_823" data-name="Path 823" d="M1675.1,1363.529a1.3,1.3,0,1,0,1.3,1.3A1.3,1.3,0,0,0,1675.1,1363.529Z" transform="translate(-100.098 -37.245)" fill="url(#linear-gradient)"></path><path id="Path_824" data-name="Path 824" d="M1695.412,1363.529a1.3,1.3,0,1,0,1.3,1.3A1.3,1.3,0,0,0,1695.412,1363.529Z" transform="translate(-111.738 -37.245)" fill="url(#linear-gradient)"></path><path id="Path_825" data-name="Path 825" d="M1715.719,1363.529a1.3,1.3,0,1,0,1.3,1.3A1.3,1.3,0,0,0,1715.719,1363.529Z" transform="translate(-123.377 -37.245)" fill="url(#linear-gradient)"></path><path id="Path_826" data-name="Path 826" d="M1736.027,1363.529a1.3,1.3,0,1,0,1.3,1.3A1.3,1.3,0,0,0,1736.027,1363.529Z" transform="translate(-135.016 -37.245)" fill="url(#linear-gradient)"></path><path id="Path_827" data-name="Path 827" d="M1756.335,1363.529a1.3,1.3,0,1,0,1.3,1.3A1.3,1.3,0,0,0,1756.335,1363.529Z" transform="translate(-146.656 -37.245)" fill="url(#linear-gradient)"></path><path id="Path_828" data-name="Path 828" d="M1776.642,1363.529a1.3,1.3,0,1,0,1.3,1.3A1.3,1.3,0,0,0,1776.642,1363.529Z" transform="translate(-158.294 -37.245)" fill="url(#linear-gradient)"></path><path id="Path_829" data-name="Path 829" d="M1796.949,1363.529a1.3,1.3,0,1,0,1.3,1.3A1.3,1.3,0,0,0,1796.949,1363.529Z" transform="translate(-169.933 -37.245)" fill="url(#linear-gradient)"></path><path id="Path_830" data-name="Path 830" d="M1523.467,1381.714a1.28,1.28,0,0,0-.317-.825c-.426.683-.836,1.375-1.24,2.073a1.2,1.2,0,0,0,.257.052A1.3,1.3,0,0,0,1523.467,1381.714Z" transform="translate(-13.04 -47.195)" fill="url(#linear-gradient)"></path><path id="Path_831" data-name="Path 831" d="M1541.074,1379.775a1.3,1.3,0,1,0,1.3,1.3A1.3,1.3,0,0,0,1541.074,1379.775Z" transform="translate(-23.279 -46.557)" fill="url(#linear-gradient)"></path><path id="Path_832" data-name="Path 832" d="M1561.382,1379.775a1.3,1.3,0,1,0,1.3,1.3A1.3,1.3,0,0,0,1561.382,1379.775Z" transform="translate(-34.918 -46.557)" fill="url(#linear-gradient)"></path><path id="Path_833" data-name="Path 833" d="M1581.69,1379.775a1.3,1.3,0,1,0,1.3,1.3A1.3,1.3,0,0,0,1581.69,1379.775Z" transform="translate(-46.558 -46.557)" fill="url(#linear-gradient)"></path><path id="Path_834" data-name="Path 834" d="M1602,1379.775a1.3,1.3,0,1,0,1.3,1.3A1.3,1.3,0,0,0,1602,1379.775Z" transform="translate(-58.197 -46.557)" fill="url(#linear-gradient)"></path><path id="Path_835" data-name="Path 835" d="M1622.3,1379.775a1.3,1.3,0,1,0,1.3,1.3A1.3,1.3,0,0,0,1622.3,1379.775Z" transform="translate(-69.836 -46.557)" fill="url(#linear-gradient)"></path><path id="Path_836" data-name="Path 836" d="M1642.613,1379.775a1.3,1.3,0,1,0,1.3,1.3A1.3,1.3,0,0,0,1642.613,1379.775Z" transform="translate(-81.475 -46.557)" fill="url(#linear-gradient)"></path><path id="Path_837" data-name="Path 837" d="M1662.92,1379.775a1.3,1.3,0,1,0,1.3,1.3A1.3,1.3,0,0,0,1662.92,1379.775Z" transform="translate(-93.114 -46.557)" fill="url(#linear-gradient)"></path><path id="Path_838" data-name="Path 838" d="M1683.228,1379.775a1.3,1.3,0,1,0,1.3,1.3A1.3,1.3,0,0,0,1683.228,1379.775Z" transform="translate(-104.754 -46.557)" fill="url(#linear-gradient)"></path><path id="Path_839" data-name="Path 839" d="M1703.535,1379.775a1.3,1.3,0,1,0,1.3,1.3A1.3,1.3,0,0,0,1703.535,1379.775Z" transform="translate(-116.393 -46.557)" fill="url(#linear-gradient)"></path><path id="Path_840" data-name="Path 840" d="M1723.842,1379.775a1.3,1.3,0,1,0,1.3,1.3A1.3,1.3,0,0,0,1723.842,1379.775Z" transform="translate(-128.032 -46.557)" fill="url(#linear-gradient)"></path><path id="Path_841" data-name="Path 841" d="M1744.15,1379.775a1.3,1.3,0,1,0,1.3,1.3A1.3,1.3,0,0,0,1744.15,1379.775Z" transform="translate(-139.671 -46.557)" fill="url(#linear-gradient)"></path><path id="Path_842" data-name="Path 842" d="M1764.457,1379.775a1.3,1.3,0,1,0,1.3,1.3A1.3,1.3,0,0,0,1764.457,1379.775Z" transform="translate(-151.311 -46.557)" fill="url(#linear-gradient)"></path><path id="Path_843" data-name="Path 843" d="M1784.765,1379.775a1.3,1.3,0,1,0,1.3,1.3A1.3,1.3,0,0,0,1784.765,1379.775Z" transform="translate(-162.95 -46.557)" fill="url(#linear-gradient)"></path><path id="Path_844" data-name="Path 844" d="M1805.071,1379.775a1.3,1.3,0,1,0,1.3,1.3A1.3,1.3,0,0,0,1805.071,1379.775Z" transform="translate(-174.588 -46.557)" fill="url(#linear-gradient)"></path><path id="Path_845" data-name="Path 845" d="M1825.38,1383.014a1.2,1.2,0,0,0,.257-.052c-.4-.7-.814-1.39-1.24-2.073a1.274,1.274,0,0,0-.318.825A1.3,1.3,0,0,0,1825.38,1383.014Z" transform="translate(-186.229 -47.195)" fill="url(#linear-gradient)"></path><path id="Path_846" data-name="Path 846" d="M1515.238,1397.655a1.279,1.279,0,0,0-.577-1.052c-.368.753-.715,1.518-1.059,2.285a1.231,1.231,0,0,0,1.637-1.233Z" transform="translate(-8.277 -56.201)" fill="url(#linear-gradient)"></path><path id="Path_847" data-name="Path 847" d="M1532.952,1396.021a1.3,1.3,0,1,0,1.3,1.3A1.3,1.3,0,0,0,1532.952,1396.021Z" transform="translate(-18.624 -55.868)" fill="url(#linear-gradient)"></path><path id="Path_848" data-name="Path 848" d="M1553.259,1396.021a1.3,1.3,0,1,0,1.3,1.3A1.3,1.3,0,0,0,1553.259,1396.021Z" transform="translate(-30.262 -55.868)" fill="url(#linear-gradient)"></path><path id="Path_849" data-name="Path 849" d="M1573.566,1396.021a1.3,1.3,0,1,0,1.3,1.3A1.3,1.3,0,0,0,1573.566,1396.021Z" transform="translate(-41.901 -55.868)" fill="url(#linear-gradient)"></path><path id="Path_850" data-name="Path 850" d="M1593.874,1396.021a1.3,1.3,0,1,0,1.3,1.3A1.3,1.3,0,0,0,1593.874,1396.021Z" transform="translate(-53.541 -55.868)" fill="url(#linear-gradient)"></path><path id="Path_851" data-name="Path 851" d="M1614.182,1396.021a1.3,1.3,0,1,0,1.3,1.3A1.3,1.3,0,0,0,1614.182,1396.021Z" transform="translate(-65.181 -55.868)" fill="url(#linear-gradient)"></path><path id="Path_852" data-name="Path 852" d="M1634.489,1396.021a1.3,1.3,0,1,0,1.3,1.3A1.3,1.3,0,0,0,1634.489,1396.021Z" transform="translate(-76.82 -55.868)" fill="url(#linear-gradient)"></path><path id="Path_853" data-name="Path 853" d="M1654.8,1396.021a1.3,1.3,0,1,0,1.3,1.3A1.3,1.3,0,0,0,1654.8,1396.021Z" transform="translate(-88.459 -55.868)" fill="url(#linear-gradient)"></path><path id="Path_854" data-name="Path 854" d="M1675.1,1396.021a1.3,1.3,0,1,0,1.3,1.3A1.3,1.3,0,0,0,1675.1,1396.021Z" transform="translate(-100.098 -55.868)" fill="url(#linear-gradient)"></path><path id="Path_855" data-name="Path 855" d="M1695.412,1396.021a1.3,1.3,0,1,0,1.3,1.3A1.3,1.3,0,0,0,1695.412,1396.021Z" transform="translate(-111.738 -55.868)" fill="url(#linear-gradient)"></path><path id="Path_856" data-name="Path 856" d="M1715.719,1396.021a1.3,1.3,0,1,0,1.3,1.3A1.3,1.3,0,0,0,1715.719,1396.021Z" transform="translate(-123.377 -55.868)" fill="url(#linear-gradient)"></path><path id="Path_857" data-name="Path 857" d="M1736.027,1396.021a1.3,1.3,0,1,0,1.3,1.3A1.3,1.3,0,0,0,1736.027,1396.021Z" transform="translate(-135.016 -55.868)" fill="url(#linear-gradient)"></path><path id="Path_858" data-name="Path 858" d="M1756.335,1396.021a1.3,1.3,0,1,0,1.3,1.3A1.3,1.3,0,0,0,1756.335,1396.021Z" transform="translate(-146.656 -55.868)" fill="url(#linear-gradient)"></path><path id="Path_859" data-name="Path 859" d="M1776.642,1396.021a1.3,1.3,0,1,0,1.3,1.3A1.3,1.3,0,0,0,1776.642,1396.021Z" transform="translate(-158.294 -55.868)" fill="url(#linear-gradient)"></path><path id="Path_860" data-name="Path 860" d="M1796.949,1396.021a1.3,1.3,0,1,0,1.3,1.3A1.3,1.3,0,0,0,1796.949,1396.021Z" transform="translate(-169.933 -55.868)" fill="url(#linear-gradient)"></path><path id="Path_861" data-name="Path 861" d="M1817.257,1396.021a1.3,1.3,0,1,0,1.3,1.3A1.3,1.3,0,0,0,1817.257,1396.021Z" transform="translate(-181.573 -55.868)" fill="url(#linear-gradient)"></path><path id="Path_862" data-name="Path 862" d="M1520.767,1412.269a1.3,1.3,0,1,0,1.3,1.3A1.3,1.3,0,0,0,1520.767,1412.269Z" transform="translate(-11.639 -65.181)" fill="url(#linear-gradient)"></path><path id="Path_863" data-name="Path 863" d="M1541.074,1414.869a1.3,1.3,0,1,0-1.3-1.3A1.3,1.3,0,0,0,1541.074,1414.869Z" transform="translate(-23.279 -65.181)" fill="url(#linear-gradient)"></path><path id="Path_864" data-name="Path 864" d="M1561.382,1412.269a1.3,1.3,0,1,0,1.3,1.3A1.3,1.3,0,0,0,1561.382,1412.269Z" transform="translate(-34.918 -65.181)" fill="url(#linear-gradient)"></path><path id="Path_865" data-name="Path 865" d="M1581.69,1412.269a1.3,1.3,0,1,0,1.3,1.3A1.3,1.3,0,0,0,1581.69,1412.269Z" transform="translate(-46.558 -65.181)" fill="url(#linear-gradient)"></path><path id="Path_866" data-name="Path 866" d="M1602,1412.269a1.3,1.3,0,1,0,1.3,1.3A1.3,1.3,0,0,0,1602,1412.269Z" transform="translate(-58.197 -65.181)" fill="url(#linear-gradient)"></path><path id="Path_867" data-name="Path 867" d="M1622.3,1412.269a1.3,1.3,0,1,0,1.3,1.3A1.3,1.3,0,0,0,1622.3,1412.269Z" transform="translate(-69.836 -65.181)" fill="url(#linear-gradient)"></path><path id="Path_868" data-name="Path 868" d="M1642.613,1412.269a1.3,1.3,0,1,0,1.3,1.3A1.3,1.3,0,0,0,1642.613,1412.269Z" transform="translate(-81.475 -65.181)" fill="url(#linear-gradient)"></path><path id="Path_869" data-name="Path 869" d="M1662.92,1412.269a1.3,1.3,0,1,0,1.3,1.3A1.3,1.3,0,0,0,1662.92,1412.269Z" transform="translate(-93.114 -65.181)" fill="url(#linear-gradient)"></path><path id="Path_870" data-name="Path 870" d="M1683.228,1412.269a1.3,1.3,0,1,0,1.3,1.3A1.3,1.3,0,0,0,1683.228,1412.269Z" transform="translate(-104.754 -65.181)" fill="url(#linear-gradient)"></path><path id="Path_871" data-name="Path 871" d="M1703.535,1412.269a1.3,1.3,0,1,0,1.3,1.3A1.3,1.3,0,0,0,1703.535,1412.269Z" transform="translate(-116.393 -65.181)" fill="url(#linear-gradient)"></path><path id="Path_872" data-name="Path 872" d="M1723.842,1412.269a1.3,1.3,0,1,0,1.3,1.3A1.3,1.3,0,0,0,1723.842,1412.269Z" transform="translate(-128.032 -65.181)" fill="url(#linear-gradient)"></path><path id="Path_873" data-name="Path 873" d="M1744.15,1412.269a1.3,1.3,0,1,0,1.3,1.3A1.3,1.3,0,0,0,1744.15,1412.269Z" transform="translate(-139.671 -65.181)" fill="url(#linear-gradient)"></path><path id="Path_874" data-name="Path 874" d="M1764.457,1412.269a1.3,1.3,0,1,0,1.3,1.3A1.3,1.3,0,0,0,1764.457,1412.269Z" transform="translate(-151.311 -65.181)" fill="url(#linear-gradient)"></path><path id="Path_875" data-name="Path 875" d="M1784.765,1412.269a1.3,1.3,0,1,0,1.3,1.3A1.3,1.3,0,0,0,1784.765,1412.269Z" transform="translate(-162.95 -65.181)" fill="url(#linear-gradient)"></path><path id="Path_876" data-name="Path 876" d="M1805.071,1412.269a1.3,1.3,0,1,0,1.3,1.3A1.3,1.3,0,0,0,1805.071,1412.269Z" transform="translate(-174.588 -65.181)" fill="url(#linear-gradient)"></path><path id="Path_877" data-name="Path 877" d="M1825.38,1412.269a1.3,1.3,0,1,0,1.3,1.3A1.3,1.3,0,0,0,1825.38,1412.269Z" transform="translate(-186.229 -65.181)" fill="url(#linear-gradient)"></path><path id="Path_878" data-name="Path 878" d="M1512.644,1428.515a1.3,1.3,0,1,0,1.3,1.3A1.3,1.3,0,0,0,1512.644,1428.515Z" transform="translate(-6.983 -74.492)" fill="url(#linear-gradient)"></path><path id="Path_879" data-name="Path 879" d="M1532.952,1428.515a1.3,1.3,0,1,0,1.3,1.3A1.3,1.3,0,0,0,1532.952,1428.515Z" transform="translate(-18.624 -74.492)" fill="url(#linear-gradient)"></path><path id="Path_880" data-name="Path 880" d="M1553.259,1428.515a1.3,1.3,0,1,0,1.3,1.3A1.3,1.3,0,0,0,1553.259,1428.515Z" transform="translate(-30.262 -74.492)" fill="url(#linear-gradient)"></path><path id="Path_881" data-name="Path 881" d="M1573.566,1428.515a1.3,1.3,0,1,0,1.3,1.3A1.3,1.3,0,0,0,1573.566,1428.515Z" transform="translate(-41.901 -74.492)" fill="url(#linear-gradient)"></path><circle id="Ellipse_3" data-name="Ellipse 3" cx="1.3" cy="1.3" r="1.3" transform="translate(1539.033 1354.023)" fill="url(#linear-gradient)"></circle><path id="Path_882" data-name="Path 882" d="M1614.182,1428.515a1.3,1.3,0,1,0,1.3,1.3A1.3,1.3,0,0,0,1614.182,1428.515Z" transform="translate(-65.181 -74.492)" fill="url(#linear-gradient)"></path><path id="Path_883" data-name="Path 883" d="M1634.489,1428.515a1.3,1.3,0,1,0,1.3,1.3A1.3,1.3,0,0,0,1634.489,1428.515Z" transform="translate(-76.82 -74.492)" fill="url(#linear-gradient)"></path><path id="Path_884" data-name="Path 884" d="M1654.8,1428.515a1.3,1.3,0,1,0,1.3,1.3A1.3,1.3,0,0,0,1654.8,1428.515Z" transform="translate(-88.459 -74.492)" fill="url(#linear-gradient)"></path><path id="Path_885" data-name="Path 885" d="M1675.1,1428.515a1.3,1.3,0,1,0,1.3,1.3A1.3,1.3,0,0,0,1675.1,1428.515Z" transform="translate(-100.098 -74.492)" fill="url(#linear-gradient)"></path><path id="Path_886" data-name="Path 886" d="M1695.412,1428.515a1.3,1.3,0,1,0,1.3,1.3A1.3,1.3,0,0,0,1695.412,1428.515Z" transform="translate(-111.738 -74.492)" fill="url(#linear-gradient)"></path><path id="Path_887" data-name="Path 887" d="M1715.719,1428.515a1.3,1.3,0,1,0,1.3,1.3A1.3,1.3,0,0,0,1715.719,1428.515Z" transform="translate(-123.377 -74.492)" fill="url(#linear-gradient)"></path><path id="Path_888" data-name="Path 888" d="M1736.027,1428.515a1.3,1.3,0,1,0,1.3,1.3A1.3,1.3,0,0,0,1736.027,1428.515Z" transform="translate(-135.016 -74.492)" fill="url(#linear-gradient)"></path><path id="Path_889" data-name="Path 889" d="M1756.335,1428.515a1.3,1.3,0,1,0,1.3,1.3A1.3,1.3,0,0,0,1756.335,1428.515Z" transform="translate(-146.656 -74.492)" fill="url(#linear-gradient)"></path><path id="Path_890" data-name="Path 890" d="M1776.642,1428.515a1.3,1.3,0,1,0,1.3,1.3A1.3,1.3,0,0,0,1776.642,1428.515Z" transform="translate(-158.294 -74.492)" fill="url(#linear-gradient)"></path><path id="Path_891" data-name="Path 891" d="M1796.949,1428.515a1.3,1.3,0,1,0,1.3,1.3A1.3,1.3,0,0,0,1796.949,1428.515Z" transform="translate(-169.933 -74.492)" fill="url(#linear-gradient)"></path><path id="Path_892" data-name="Path 892" d="M1817.257,1428.515a1.3,1.3,0,1,0,1.3,1.3A1.3,1.3,0,0,0,1817.257,1428.515Z" transform="translate(-181.573 -74.492)" fill="url(#linear-gradient)"></path><path id="Path_893" data-name="Path 893" d="M1837.565,1428.515a1.3,1.3,0,1,0,1.3,1.3A1.3,1.3,0,0,0,1837.565,1428.515Z" transform="translate(-193.213 -74.492)" fill="url(#linear-gradient)"></path><path id="Path_894" data-name="Path 894" d="M1500.871,1447.361a1.3,1.3,0,0,0,0-2.6,1.262,1.262,0,0,0-.715.243q-.152.928-.28,1.865A1.273,1.273,0,0,0,1500.871,1447.361Z" transform="translate(-0.411 -83.804)" fill="url(#linear-gradient)"></path><path id="Path_895" data-name="Path 895" d="M1520.767,1444.761a1.3,1.3,0,1,0,1.3,1.3A1.3,1.3,0,0,0,1520.767,1444.761Z" transform="translate(-11.639 -83.804)" fill="url(#linear-gradient)"></path><path id="Path_896" data-name="Path 896" d="M1541.074,1447.361a1.3,1.3,0,1,0-1.3-1.3A1.3,1.3,0,0,0,1541.074,1447.361Z" transform="translate(-23.279 -83.804)" fill="url(#linear-gradient)"></path><path id="Path_897" data-name="Path 897" d="M1561.382,1444.761a1.3,1.3,0,1,0,1.3,1.3A1.3,1.3,0,0,0,1561.382,1444.761Z" transform="translate(-34.918 -83.804)" fill="url(#linear-gradient)"></path><path id="Path_898" data-name="Path 898" d="M1581.69,1444.761a1.3,1.3,0,1,0,1.3,1.3A1.3,1.3,0,0,0,1581.69,1444.761Z" transform="translate(-46.558 -83.804)" fill="url(#linear-gradient)"></path><path id="Path_899" data-name="Path 899" d="M1602,1444.761a1.3,1.3,0,1,0,1.3,1.3A1.3,1.3,0,0,0,1602,1444.761Z" transform="translate(-58.197 -83.804)" fill="url(#linear-gradient)"></path><path id="Path_900" data-name="Path 900" d="M1622.3,1444.761a1.3,1.3,0,1,0,1.3,1.3A1.3,1.3,0,0,0,1622.3,1444.761Z" transform="translate(-69.836 -83.804)" fill="url(#linear-gradient)"></path><path id="Path_901" data-name="Path 901" d="M1642.613,1444.761a1.3,1.3,0,1,0,1.3,1.3A1.3,1.3,0,0,0,1642.613,1444.761Z" transform="translate(-81.475 -83.804)" fill="url(#linear-gradient)"></path><path id="Path_902" data-name="Path 902" d="M1662.92,1444.761a1.3,1.3,0,1,0,1.3,1.3A1.3,1.3,0,0,0,1662.92,1444.761Z" transform="translate(-93.114 -83.804)" fill="url(#linear-gradient)"></path><path id="Path_903" data-name="Path 903" d="M1683.228,1444.761a1.3,1.3,0,1,0,1.3,1.3A1.3,1.3,0,0,0,1683.228,1444.761Z" transform="translate(-104.754 -83.804)" fill="url(#linear-gradient)"></path><path id="Path_904" data-name="Path 904" d="M1703.535,1444.761a1.3,1.3,0,1,0,1.3,1.3A1.3,1.3,0,0,0,1703.535,1444.761Z" transform="translate(-116.393 -83.804)" fill="url(#linear-gradient)"></path><path id="Path_905" data-name="Path 905" d="M1723.842,1444.761a1.3,1.3,0,1,0,1.3,1.3A1.3,1.3,0,0,0,1723.842,1444.761Z" transform="translate(-128.032 -83.804)" fill="url(#linear-gradient)"></path><path id="Path_906" data-name="Path 906" d="M1744.15,1444.761a1.3,1.3,0,1,0,1.3,1.3A1.3,1.3,0,0,0,1744.15,1444.761Z" transform="translate(-139.671 -83.804)" fill="url(#linear-gradient)"></path><path id="Path_907" data-name="Path 907" d="M1764.457,1444.761a1.3,1.3,0,1,0,1.3,1.3A1.3,1.3,0,0,0,1764.457,1444.761Z" transform="translate(-151.311 -83.804)" fill="url(#linear-gradient)"></path><path id="Path_908" data-name="Path 908" d="M1784.765,1444.761a1.3,1.3,0,1,0,1.3,1.3A1.3,1.3,0,0,0,1784.765,1444.761Z" transform="translate(-162.95 -83.804)" fill="url(#linear-gradient)"></path><path id="Path_909" data-name="Path 909" d="M1805.071,1444.761a1.3,1.3,0,1,0,1.3,1.3A1.3,1.3,0,0,0,1805.071,1444.761Z" transform="translate(-174.588 -83.804)" fill="url(#linear-gradient)"></path><path id="Path_910" data-name="Path 910" d="M1825.38,1444.761a1.3,1.3,0,1,0,1.3,1.3A1.3,1.3,0,0,0,1825.38,1444.761Z" transform="translate(-186.229 -83.804)" fill="url(#linear-gradient)"></path><path id="Path_911" data-name="Path 911" d="M1845.688,1444.761a1.3,1.3,0,0,0,0,2.6,1.274,1.274,0,0,0,.995-.493q-.129-.936-.28-1.865A1.261,1.261,0,0,0,1845.688,1444.761Z" transform="translate(-197.869 -83.804)" fill="url(#linear-gradient)"></path><path id="Path_912" data-name="Path 912" d="M1512.644,1461.006a1.3,1.3,0,1,0,1.3,1.3A1.3,1.3,0,0,0,1512.644,1461.006Z" transform="translate(-6.983 -93.114)" fill="url(#linear-gradient)"></path><path id="Path_913" data-name="Path 913" d="M1532.952,1461.006a1.3,1.3,0,1,0,1.3,1.3A1.3,1.3,0,0,0,1532.952,1461.006Z" transform="translate(-18.624 -93.114)" fill="url(#linear-gradient)"></path><path id="Path_914" data-name="Path 914" d="M1553.259,1461.006a1.3,1.3,0,1,0,1.3,1.3A1.3,1.3,0,0,0,1553.259,1461.006Z" transform="translate(-30.262 -93.114)" fill="url(#linear-gradient)"></path><path id="Path_915" data-name="Path 915" d="M1573.566,1461.006a1.3,1.3,0,1,0,1.3,1.3A1.3,1.3,0,0,0,1573.566,1461.006Z" transform="translate(-41.901 -93.114)" fill="url(#linear-gradient)"></path><path id="Path_916" data-name="Path 916" d="M1593.874,1461.006a1.3,1.3,0,1,0,1.3,1.3A1.3,1.3,0,0,0,1593.874,1461.006Z" transform="translate(-53.541 -93.114)" fill="url(#linear-gradient)"></path><path id="Path_917" data-name="Path 917" d="M1614.182,1461.006a1.3,1.3,0,1,0,1.3,1.3A1.3,1.3,0,0,0,1614.182,1461.006Z" transform="translate(-65.181 -93.114)" fill="url(#linear-gradient)"></path><path id="Path_918" data-name="Path 918" d="M1634.489,1461.006a1.3,1.3,0,1,0,1.3,1.3A1.3,1.3,0,0,0,1634.489,1461.006Z" transform="translate(-76.82 -93.114)" fill="url(#linear-gradient)"></path><path id="Path_919" data-name="Path 919" d="M1654.8,1461.006a1.3,1.3,0,1,0,1.3,1.3A1.3,1.3,0,0,0,1654.8,1461.006Z" transform="translate(-88.459 -93.114)" fill="url(#linear-gradient)"></path><path id="Path_920" data-name="Path 920" d="M1675.1,1461.006a1.3,1.3,0,1,0,1.3,1.3A1.3,1.3,0,0,0,1675.1,1461.006Z" transform="translate(-100.098 -93.114)" fill="url(#linear-gradient)"></path><path id="Path_921" data-name="Path 921" d="M1695.412,1461.006a1.3,1.3,0,1,0,1.3,1.3A1.3,1.3,0,0,0,1695.412,1461.006Z" transform="translate(-111.738 -93.114)" fill="url(#linear-gradient)"></path><path id="Path_922" data-name="Path 922" d="M1715.719,1461.006a1.3,1.3,0,1,0,1.3,1.3A1.3,1.3,0,0,0,1715.719,1461.006Z" transform="translate(-123.377 -93.114)" fill="url(#linear-gradient)"></path><path id="Path_923" data-name="Path 923" d="M1736.027,1461.006a1.3,1.3,0,1,0,1.3,1.3A1.3,1.3,0,0,0,1736.027,1461.006Z" transform="translate(-135.016 -93.114)" fill="url(#linear-gradient)"></path><path id="Path_924" data-name="Path 924" d="M1756.335,1461.006a1.3,1.3,0,1,0,1.3,1.3A1.3,1.3,0,0,0,1756.335,1461.006Z" transform="translate(-146.656 -93.114)" fill="url(#linear-gradient)"></path><path id="Path_925" data-name="Path 925" d="M1776.642,1461.006a1.3,1.3,0,1,0,1.3,1.3A1.3,1.3,0,0,0,1776.642,1461.006Z" transform="translate(-158.294 -93.114)" fill="url(#linear-gradient)"></path><path id="Path_926" data-name="Path 926" d="M1796.949,1461.006a1.3,1.3,0,1,0,1.3,1.3A1.3,1.3,0,0,0,1796.949,1461.006Z" transform="translate(-169.933 -93.114)" fill="url(#linear-gradient)"></path><path id="Path_927" data-name="Path 927" d="M1817.257,1461.006a1.3,1.3,0,1,0,1.3,1.3A1.3,1.3,0,0,0,1817.257,1461.006Z" transform="translate(-181.573 -93.114)" fill="url(#linear-gradient)"></path><path id="Path_928" data-name="Path 928" d="M1837.565,1461.006a1.3,1.3,0,1,0,1.3,1.3A1.3,1.3,0,0,0,1837.565,1461.006Z" transform="translate(-193.213 -93.114)" fill="url(#linear-gradient)"></path><path id="Path_929" data-name="Path 929" d="M1500.46,1479.853a1.3,1.3,0,1,0-1.3-1.3A1.3,1.3,0,0,0,1500.46,1479.853Z" transform="translate(0 -102.426)" fill="url(#linear-gradient)"></path><path id="Path_930" data-name="Path 930" d="M1520.767,1477.253a1.3,1.3,0,1,0,1.3,1.3A1.3,1.3,0,0,0,1520.767,1477.253Z" transform="translate(-11.639 -102.426)" fill="url(#linear-gradient)"></path><path id="Path_931" data-name="Path 931" d="M1541.074,1479.853a1.3,1.3,0,1,0-1.3-1.3A1.3,1.3,0,0,0,1541.074,1479.853Z" transform="translate(-23.279 -102.426)" fill="url(#linear-gradient)"></path><path id="Path_932" data-name="Path 932" d="M1561.382,1477.253a1.3,1.3,0,1,0,1.3,1.3A1.3,1.3,0,0,0,1561.382,1477.253Z" transform="translate(-34.918 -102.426)" fill="url(#linear-gradient)"></path><path id="Path_933" data-name="Path 933" d="M1581.69,1477.253a1.3,1.3,0,1,0,1.3,1.3A1.3,1.3,0,0,0,1581.69,1477.253Z" transform="translate(-46.558 -102.426)" fill="url(#linear-gradient)"></path><path id="Path_934" data-name="Path 934" d="M1602,1477.253a1.3,1.3,0,1,0,1.3,1.3A1.3,1.3,0,0,0,1602,1477.253Z" transform="translate(-58.197 -102.426)" fill="url(#linear-gradient)"></path><path id="Path_935" data-name="Path 935" d="M1622.3,1477.253a1.3,1.3,0,1,0,1.3,1.3A1.3,1.3,0,0,0,1622.3,1477.253Z" transform="translate(-69.836 -102.426)" fill="url(#linear-gradient)"></path><path id="Path_936" data-name="Path 936" d="M1642.613,1477.253a1.3,1.3,0,1,0,1.3,1.3A1.3,1.3,0,0,0,1642.613,1477.253Z" transform="translate(-81.475 -102.426)" fill="url(#linear-gradient)"></path><path id="Path_937" data-name="Path 937" d="M1662.92,1477.253a1.3,1.3,0,1,0,1.3,1.3A1.3,1.3,0,0,0,1662.92,1477.253Z" transform="translate(-93.114 -102.426)" fill="url(#linear-gradient)"></path><path id="Path_938" data-name="Path 938" d="M1683.228,1477.253a1.3,1.3,0,1,0,1.3,1.3A1.3,1.3,0,0,0,1683.228,1477.253Z" transform="translate(-104.754 -102.426)" fill="url(#linear-gradient)"></path><path id="Path_939" data-name="Path 939" d="M1703.535,1477.253a1.3,1.3,0,1,0,1.3,1.3A1.3,1.3,0,0,0,1703.535,1477.253Z" transform="translate(-116.393 -102.426)" fill="url(#linear-gradient)"></path><path id="Path_940" data-name="Path 940" d="M1723.842,1477.253a1.3,1.3,0,1,0,1.3,1.3A1.3,1.3,0,0,0,1723.842,1477.253Z" transform="translate(-128.032 -102.426)" fill="url(#linear-gradient)"></path><path id="Path_941" data-name="Path 941" d="M1744.15,1477.253a1.3,1.3,0,1,0,1.3,1.3A1.3,1.3,0,0,0,1744.15,1477.253Z" transform="translate(-139.671 -102.426)" fill="url(#linear-gradient)"></path><path id="Path_942" data-name="Path 942" d="M1764.457,1477.253a1.3,1.3,0,1,0,1.3,1.3A1.3,1.3,0,0,0,1764.457,1477.253Z" transform="translate(-151.311 -102.426)" fill="url(#linear-gradient)"></path><path id="Path_943" data-name="Path 943" d="M1784.765,1477.253a1.3,1.3,0,1,0,1.3,1.3A1.3,1.3,0,0,0,1784.765,1477.253Z" transform="translate(-162.95 -102.426)" fill="url(#linear-gradient)"></path><path id="Path_944" data-name="Path 944" d="M1805.071,1477.253a1.3,1.3,0,1,0,1.3,1.3A1.3,1.3,0,0,0,1805.071,1477.253Z" transform="translate(-174.588 -102.426)" fill="url(#linear-gradient)"></path><path id="Path_945" data-name="Path 945" d="M1825.38,1477.253a1.3,1.3,0,1,0,1.3,1.3A1.3,1.3,0,0,0,1825.38,1477.253Z" transform="translate(-186.229 -102.426)" fill="url(#linear-gradient)"></path><path id="Path_946" data-name="Path 946" d="M1845.688,1477.253a1.3,1.3,0,1,0,1.3,1.3A1.3,1.3,0,0,0,1845.688,1477.253Z" transform="translate(-197.869 -102.426)" fill="url(#linear-gradient)"></path><path id="Path_947" data-name="Path 947" d="M1512.644,1493.5a1.3,1.3,0,1,0,1.3,1.3A1.3,1.3,0,0,0,1512.644,1493.5Z" transform="translate(-6.983 -111.737)" fill="url(#linear-gradient)"></path><path id="Path_948" data-name="Path 948" d="M1532.952,1493.5a1.3,1.3,0,1,0,1.3,1.3A1.3,1.3,0,0,0,1532.952,1493.5Z" transform="translate(-18.624 -111.737)" fill="url(#linear-gradient)"></path><path id="Path_949" data-name="Path 949" d="M1553.259,1493.5a1.3,1.3,0,1,0,1.3,1.3A1.3,1.3,0,0,0,1553.259,1493.5Z" transform="translate(-30.262 -111.737)" fill="url(#linear-gradient)"></path><path id="Path_950" data-name="Path 950" d="M1573.566,1493.5a1.3,1.3,0,1,0,1.3,1.3A1.3,1.3,0,0,0,1573.566,1493.5Z" transform="translate(-41.901 -111.737)" fill="url(#linear-gradient)"></path><path id="Path_951" data-name="Path 951" d="M1593.874,1493.5a1.3,1.3,0,1,0,1.3,1.3A1.3,1.3,0,0,0,1593.874,1493.5Z" transform="translate(-53.541 -111.737)" fill="url(#linear-gradient)"></path><path id="Path_952" data-name="Path 952" d="M1614.182,1493.5a1.3,1.3,0,1,0,1.3,1.3A1.3,1.3,0,0,0,1614.182,1493.5Z" transform="translate(-65.181 -111.737)" fill="url(#linear-gradient)"></path><path id="Path_953" data-name="Path 953" d="M1634.489,1493.5a1.3,1.3,0,1,0,1.3,1.3A1.3,1.3,0,0,0,1634.489,1493.5Z" transform="translate(-76.82 -111.737)" fill="url(#linear-gradient)"></path><path id="Path_954" data-name="Path 954" d="M1654.8,1493.5a1.3,1.3,0,1,0,1.3,1.3A1.3,1.3,0,0,0,1654.8,1493.5Z" transform="translate(-88.459 -111.737)" fill="url(#linear-gradient)"></path><path id="Path_955" data-name="Path 955" d="M1675.1,1493.5a1.3,1.3,0,1,0,1.3,1.3A1.3,1.3,0,0,0,1675.1,1493.5Z" transform="translate(-100.098 -111.737)" fill="url(#linear-gradient)"></path><path id="Path_956" data-name="Path 956" d="M1695.412,1493.5a1.3,1.3,0,1,0,1.3,1.3A1.3,1.3,0,0,0,1695.412,1493.5Z" transform="translate(-111.738 -111.737)" fill="url(#linear-gradient)"></path><path id="Path_957" data-name="Path 957" d="M1715.719,1493.5a1.3,1.3,0,1,0,1.3,1.3A1.3,1.3,0,0,0,1715.719,1493.5Z" transform="translate(-123.377 -111.737)" fill="url(#linear-gradient)"></path><path id="Path_958" data-name="Path 958" d="M1736.027,1493.5a1.3,1.3,0,1,0,1.3,1.3A1.3,1.3,0,0,0,1736.027,1493.5Z" transform="translate(-135.016 -111.737)" fill="url(#linear-gradient)"></path><path id="Path_959" data-name="Path 959" d="M1756.335,1493.5a1.3,1.3,0,1,0,1.3,1.3A1.3,1.3,0,0,0,1756.335,1493.5Z" transform="translate(-146.656 -111.737)" fill="url(#linear-gradient)"></path><path id="Path_960" data-name="Path 960" d="M1776.642,1493.5a1.3,1.3,0,1,0,1.3,1.3A1.3,1.3,0,0,0,1776.642,1493.5Z" transform="translate(-158.294 -111.737)" fill="url(#linear-gradient)"></path><path id="Path_961" data-name="Path 961" d="M1796.949,1493.5a1.3,1.3,0,1,0,1.3,1.3A1.3,1.3,0,0,0,1796.949,1493.5Z" transform="translate(-169.933 -111.737)" fill="url(#linear-gradient)"></path><path id="Path_962" data-name="Path 962" d="M1817.257,1493.5a1.3,1.3,0,1,0,1.3,1.3A1.3,1.3,0,0,0,1817.257,1493.5Z" transform="translate(-181.573 -111.737)" fill="url(#linear-gradient)"></path><path id="Path_963" data-name="Path 963" d="M1837.565,1493.5a1.3,1.3,0,1,0,1.3,1.3A1.3,1.3,0,0,0,1837.565,1493.5Z" transform="translate(-193.213 -111.737)" fill="url(#linear-gradient)"></path><path id="Path_964" data-name="Path 964" d="M1503.238,1511.044a1.3,1.3,0,0,0-1.3-1.3,1.131,1.131,0,0,0-.2.041c.171.835.375,1.659.573,2.484A1.286,1.286,0,0,0,1503.238,1511.044Z" transform="translate(-1.479 -121.049)" fill="url(#linear-gradient)"></path><path id="Path_965" data-name="Path 965" d="M1520.767,1509.744a1.3,1.3,0,1,0,1.3,1.3A1.3,1.3,0,0,0,1520.767,1509.744Z" transform="translate(-11.639 -121.049)" fill="url(#linear-gradient)"></path><path id="Path_966" data-name="Path 966" d="M1541.074,1512.344a1.3,1.3,0,1,0-1.3-1.3A1.3,1.3,0,0,0,1541.074,1512.344Z" transform="translate(-23.279 -121.049)" fill="url(#linear-gradient)"></path><path id="Path_967" data-name="Path 967" d="M1561.382,1509.744a1.3,1.3,0,1,0,1.3,1.3A1.3,1.3,0,0,0,1561.382,1509.744Z" transform="translate(-34.918 -121.049)" fill="url(#linear-gradient)"></path><path id="Path_968" data-name="Path 968" d="M1581.69,1509.744a1.3,1.3,0,1,0,1.3,1.3A1.3,1.3,0,0,0,1581.69,1509.744Z" transform="translate(-46.558 -121.049)" fill="url(#linear-gradient)"></path><path id="Path_969" data-name="Path 969" d="M1602,1509.744a1.3,1.3,0,1,0,1.3,1.3A1.3,1.3,0,0,0,1602,1509.744Z" transform="translate(-58.197 -121.049)" fill="url(#linear-gradient)"></path><path id="Path_970" data-name="Path 970" d="M1622.3,1509.744a1.3,1.3,0,1,0,1.3,1.3A1.3,1.3,0,0,0,1622.3,1509.744Z" transform="translate(-69.836 -121.049)" fill="url(#linear-gradient)"></path><path id="Path_971" data-name="Path 971" d="M1642.613,1509.744a1.3,1.3,0,1,0,1.3,1.3A1.3,1.3,0,0,0,1642.613,1509.744Z" transform="translate(-81.475 -121.049)" fill="url(#linear-gradient)"></path><path id="Path_972" data-name="Path 972" d="M1662.92,1509.744a1.3,1.3,0,1,0,1.3,1.3A1.3,1.3,0,0,0,1662.92,1509.744Z" transform="translate(-93.114 -121.049)" fill="url(#linear-gradient)"></path><path id="Path_973" data-name="Path 973" d="M1683.228,1509.744a1.3,1.3,0,1,0,1.3,1.3A1.3,1.3,0,0,0,1683.228,1509.744Z" transform="translate(-104.754 -121.049)" fill="url(#linear-gradient)"></path><path id="Path_974" data-name="Path 974" d="M1703.535,1509.744a1.3,1.3,0,1,0,1.3,1.3A1.3,1.3,0,0,0,1703.535,1509.744Z" transform="translate(-116.393 -121.049)" fill="url(#linear-gradient)"></path><path id="Path_975" data-name="Path 975" d="M1723.842,1509.744a1.3,1.3,0,1,0,1.3,1.3A1.3,1.3,0,0,0,1723.842,1509.744Z" transform="translate(-128.032 -121.049)" fill="url(#linear-gradient)"></path><path id="Path_976" data-name="Path 976" d="M1744.15,1509.744a1.3,1.3,0,1,0,1.3,1.3A1.3,1.3,0,0,0,1744.15,1509.744Z" transform="translate(-139.671 -121.049)" fill="url(#linear-gradient)"></path><path id="Path_977" data-name="Path 977" d="M1764.457,1509.744a1.3,1.3,0,1,0,1.3,1.3A1.3,1.3,0,0,0,1764.457,1509.744Z" transform="translate(-151.311 -121.049)" fill="url(#linear-gradient)"></path><path id="Path_978" data-name="Path 978" d="M1784.765,1509.744a1.3,1.3,0,1,0,1.3,1.3A1.3,1.3,0,0,0,1784.765,1509.744Z" transform="translate(-162.95 -121.049)" fill="url(#linear-gradient)"></path><path id="Path_979" data-name="Path 979" d="M1805.071,1509.744a1.3,1.3,0,1,0,1.3,1.3A1.3,1.3,0,0,0,1805.071,1509.744Z" transform="translate(-174.588 -121.049)" fill="url(#linear-gradient)"></path><path id="Path_980" data-name="Path 980" d="M1825.38,1509.744a1.3,1.3,0,1,0,1.3,1.3A1.3,1.3,0,0,0,1825.38,1509.744Z" transform="translate(-186.229 -121.049)" fill="url(#linear-gradient)"></path><path id="Path_981" data-name="Path 981" d="M1844.388,1511.044a1.286,1.286,0,0,0,.926,1.225c.2-.825.4-1.649.574-2.484a1.15,1.15,0,0,0-.2-.041A1.3,1.3,0,0,0,1844.388,1511.044Z" transform="translate(-197.869 -121.049)" fill="url(#linear-gradient)"></path><path id="Path_982" data-name="Path 982" d="M1512.644,1525.99a1.3,1.3,0,1,0,1.3,1.3A1.3,1.3,0,0,0,1512.644,1525.99Z" transform="translate(-6.983 -130.36)" fill="url(#linear-gradient)"></path><path id="Path_983" data-name="Path 983" d="M1532.952,1525.99a1.3,1.3,0,1,0,1.3,1.3A1.3,1.3,0,0,0,1532.952,1525.99Z" transform="translate(-18.624 -130.36)" fill="url(#linear-gradient)"></path><path id="Path_984" data-name="Path 984" d="M1553.259,1525.99a1.3,1.3,0,1,0,1.3,1.3A1.3,1.3,0,0,0,1553.259,1525.99Z" transform="translate(-30.262 -130.36)" fill="url(#linear-gradient)"></path><path id="Path_985" data-name="Path 985" d="M1573.566,1525.99a1.3,1.3,0,1,0,1.3,1.3A1.3,1.3,0,0,0,1573.566,1525.99Z" transform="translate(-41.901 -130.36)" fill="url(#linear-gradient)"></path><circle id="Ellipse_4" data-name="Ellipse 4" cx="1.3" cy="1.3" r="1.3" transform="translate(1539.033 1395.63)" fill="url(#linear-gradient)"></circle><path id="Path_986" data-name="Path 986" d="M1614.182,1525.99a1.3,1.3,0,1,0,1.3,1.3A1.3,1.3,0,0,0,1614.182,1525.99Z" transform="translate(-65.181 -130.36)" fill="url(#linear-gradient)"></path><path id="Path_987" data-name="Path 987" d="M1634.489,1525.99a1.3,1.3,0,1,0,1.3,1.3A1.3,1.3,0,0,0,1634.489,1525.99Z" transform="translate(-76.82 -130.36)" fill="url(#linear-gradient)"></path><path id="Path_988" data-name="Path 988" d="M1654.8,1525.99a1.3,1.3,0,1,0,1.3,1.3A1.3,1.3,0,0,0,1654.8,1525.99Z" transform="translate(-88.459 -130.36)" fill="url(#linear-gradient)"></path><path id="Path_989" data-name="Path 989" d="M1675.1,1525.99a1.3,1.3,0,1,0,1.3,1.3A1.3,1.3,0,0,0,1675.1,1525.99Z" transform="translate(-100.098 -130.36)" fill="url(#linear-gradient)"></path><path id="Path_990" data-name="Path 990" d="M1695.412,1525.99a1.3,1.3,0,1,0,1.3,1.3A1.3,1.3,0,0,0,1695.412,1525.99Z" transform="translate(-111.738 -130.36)" fill="url(#linear-gradient)"></path><path id="Path_991" data-name="Path 991" d="M1715.719,1525.99a1.3,1.3,0,1,0,1.3,1.3A1.3,1.3,0,0,0,1715.719,1525.99Z" transform="translate(-123.377 -130.36)" fill="url(#linear-gradient)"></path><path id="Path_992" data-name="Path 992" d="M1736.027,1525.99a1.3,1.3,0,1,0,1.3,1.3A1.3,1.3,0,0,0,1736.027,1525.99Z" transform="translate(-135.016 -130.36)" fill="url(#linear-gradient)"></path><path id="Path_993" data-name="Path 993" d="M1756.335,1525.99a1.3,1.3,0,1,0,1.3,1.3A1.3,1.3,0,0,0,1756.335,1525.99Z" transform="translate(-146.656 -130.36)" fill="url(#linear-gradient)"></path><path id="Path_994" data-name="Path 994" d="M1776.642,1525.99a1.3,1.3,0,1,0,1.3,1.3A1.3,1.3,0,0,0,1776.642,1525.99Z" transform="translate(-158.294 -130.36)" fill="url(#linear-gradient)"></path><path id="Path_995" data-name="Path 995" d="M1796.949,1525.99a1.3,1.3,0,1,0,1.3,1.3A1.3,1.3,0,0,0,1796.949,1525.99Z" transform="translate(-169.933 -130.36)" fill="url(#linear-gradient)"></path><path id="Path_996" data-name="Path 996" d="M1817.257,1525.99a1.3,1.3,0,1,0,1.3,1.3A1.3,1.3,0,0,0,1817.257,1525.99Z" transform="translate(-181.573 -130.36)" fill="url(#linear-gradient)"></path><path id="Path_997" data-name="Path 997" d="M1837.565,1525.99a1.3,1.3,0,1,0,1.3,1.3A1.3,1.3,0,0,0,1837.565,1525.99Z" transform="translate(-193.213 -130.36)" fill="url(#linear-gradient)"></path><path id="Path_998" data-name="Path 998" d="M1520.767,1542.236a1.3,1.3,0,1,0,1.3,1.3A1.3,1.3,0,0,0,1520.767,1542.236Z" transform="translate(-11.639 -139.672)" fill="url(#linear-gradient)"></path><path id="Path_999" data-name="Path 999" d="M1541.074,1544.837a1.3,1.3,0,1,0-1.3-1.3A1.3,1.3,0,0,0,1541.074,1544.837Z" transform="translate(-23.279 -139.672)" fill="url(#linear-gradient)"></path><path id="Path_1000" data-name="Path 1000" d="M1561.382,1542.236a1.3,1.3,0,1,0,1.3,1.3A1.3,1.3,0,0,0,1561.382,1542.236Z" transform="translate(-34.918 -139.672)" fill="url(#linear-gradient)"></path><path id="Path_1001" data-name="Path 1001" d="M1581.69,1542.236a1.3,1.3,0,1,0,1.3,1.3A1.3,1.3,0,0,0,1581.69,1542.236Z" transform="translate(-46.558 -139.672)" fill="url(#linear-gradient)"></path><path id="Path_1002" data-name="Path 1002" d="M1602,1542.236a1.3,1.3,0,1,0,1.3,1.3A1.3,1.3,0,0,0,1602,1542.236Z" transform="translate(-58.197 -139.672)" fill="url(#linear-gradient)"></path><path id="Path_1003" data-name="Path 1003" d="M1622.3,1542.236a1.3,1.3,0,1,0,1.3,1.3A1.3,1.3,0,0,0,1622.3,1542.236Z" transform="translate(-69.836 -139.672)" fill="url(#linear-gradient)"></path><path id="Path_1004" data-name="Path 1004" d="M1642.613,1542.236a1.3,1.3,0,1,0,1.3,1.3A1.3,1.3,0,0,0,1642.613,1542.236Z" transform="translate(-81.475 -139.672)" fill="url(#linear-gradient)"></path><path id="Path_1005" data-name="Path 1005" d="M1662.92,1542.236a1.3,1.3,0,1,0,1.3,1.3A1.3,1.3,0,0,0,1662.92,1542.236Z" transform="translate(-93.114 -139.672)" fill="url(#linear-gradient)"></path><path id="Path_1006" data-name="Path 1006" d="M1683.228,1542.236a1.3,1.3,0,1,0,1.3,1.3A1.3,1.3,0,0,0,1683.228,1542.236Z" transform="translate(-104.754 -139.672)" fill="url(#linear-gradient)"></path><path id="Path_1007" data-name="Path 1007" d="M1703.535,1542.236a1.3,1.3,0,1,0,1.3,1.3A1.3,1.3,0,0,0,1703.535,1542.236Z" transform="translate(-116.393 -139.672)" fill="url(#linear-gradient)"></path><path id="Path_1008" data-name="Path 1008" d="M1723.842,1542.236a1.3,1.3,0,1,0,1.3,1.3A1.3,1.3,0,0,0,1723.842,1542.236Z" transform="translate(-128.032 -139.672)" fill="url(#linear-gradient)"></path><path id="Path_1009" data-name="Path 1009" d="M1744.15,1542.236a1.3,1.3,0,1,0,1.3,1.3A1.3,1.3,0,0,0,1744.15,1542.236Z" transform="translate(-139.671 -139.672)" fill="url(#linear-gradient)"></path><path id="Path_1010" data-name="Path 1010" d="M1764.457,1542.236a1.3,1.3,0,1,0,1.3,1.3A1.3,1.3,0,0,0,1764.457,1542.236Z" transform="translate(-151.311 -139.672)" fill="url(#linear-gradient)"></path><path id="Path_1011" data-name="Path 1011" d="M1784.765,1542.236a1.3,1.3,0,1,0,1.3,1.3A1.3,1.3,0,0,0,1784.765,1542.236Z" transform="translate(-162.95 -139.672)" fill="url(#linear-gradient)"></path><path id="Path_1012" data-name="Path 1012" d="M1805.071,1542.236a1.3,1.3,0,1,0,1.3,1.3A1.3,1.3,0,0,0,1805.071,1542.236Z" transform="translate(-174.588 -139.672)" fill="url(#linear-gradient)"></path><path id="Path_1013" data-name="Path 1013" d="M1825.38,1542.236a1.3,1.3,0,1,0,1.3,1.3A1.3,1.3,0,0,0,1825.38,1542.236Z" transform="translate(-186.229 -139.672)" fill="url(#linear-gradient)"></path><path id="Path_1014" data-name="Path 1014" d="M1532.952,1558.482a1.3,1.3,0,1,0,1.3,1.3A1.3,1.3,0,0,0,1532.952,1558.482Z" transform="translate(-18.624 -148.983)" fill="url(#linear-gradient)"></path><path id="Path_1015" data-name="Path 1015" d="M1553.259,1558.482a1.3,1.3,0,1,0,1.3,1.3A1.3,1.3,0,0,0,1553.259,1558.482Z" transform="translate(-30.262 -148.983)" fill="url(#linear-gradient)"></path><path id="Path_1016" data-name="Path 1016" d="M1573.566,1558.482a1.3,1.3,0,1,0,1.3,1.3A1.3,1.3,0,0,0,1573.566,1558.482Z" transform="translate(-41.901 -148.983)" fill="url(#linear-gradient)"></path><path id="Path_1017" data-name="Path 1017" d="M1593.874,1558.482a1.3,1.3,0,1,0,1.3,1.3A1.3,1.3,0,0,0,1593.874,1558.482Z" transform="translate(-53.541 -148.983)" fill="url(#linear-gradient)"></path><path id="Path_1018" data-name="Path 1018" d="M1614.182,1558.482a1.3,1.3,0,1,0,1.3,1.3A1.3,1.3,0,0,0,1614.182,1558.482Z" transform="translate(-65.181 -148.983)" fill="url(#linear-gradient)"></path><path id="Path_1019" data-name="Path 1019" d="M1634.489,1558.482a1.3,1.3,0,1,0,1.3,1.3A1.3,1.3,0,0,0,1634.489,1558.482Z" transform="translate(-76.82 -148.983)" fill="url(#linear-gradient)"></path><path id="Path_1020" data-name="Path 1020" d="M1654.8,1558.482a1.3,1.3,0,1,0,1.3,1.3A1.3,1.3,0,0,0,1654.8,1558.482Z" transform="translate(-88.459 -148.983)" fill="url(#linear-gradient)"></path><path id="Path_1021" data-name="Path 1021" d="M1675.1,1558.482a1.3,1.3,0,1,0,1.3,1.3A1.3,1.3,0,0,0,1675.1,1558.482Z" transform="translate(-100.098 -148.983)" fill="url(#linear-gradient)"></path><path id="Path_1022" data-name="Path 1022" d="M1695.412,1558.482a1.3,1.3,0,1,0,1.3,1.3A1.3,1.3,0,0,0,1695.412,1558.482Z" transform="translate(-111.738 -148.983)" fill="url(#linear-gradient)"></path><path id="Path_1023" data-name="Path 1023" d="M1715.719,1558.482a1.3,1.3,0,1,0,1.3,1.3A1.3,1.3,0,0,0,1715.719,1558.482Z" transform="translate(-123.377 -148.983)" fill="url(#linear-gradient)"></path><path id="Path_1024" data-name="Path 1024" d="M1736.027,1558.482a1.3,1.3,0,1,0,1.3,1.3A1.3,1.3,0,0,0,1736.027,1558.482Z" transform="translate(-135.016 -148.983)" fill="url(#linear-gradient)"></path><path id="Path_1025" data-name="Path 1025" d="M1756.335,1558.482a1.3,1.3,0,1,0,1.3,1.3A1.3,1.3,0,0,0,1756.335,1558.482Z" transform="translate(-146.656 -148.983)" fill="url(#linear-gradient)"></path><path id="Path_1026" data-name="Path 1026" d="M1776.642,1558.482a1.3,1.3,0,1,0,1.3,1.3A1.3,1.3,0,0,0,1776.642,1558.482Z" transform="translate(-158.294 -148.983)" fill="url(#linear-gradient)"></path><path id="Path_1027" data-name="Path 1027" d="M1796.949,1558.482a1.3,1.3,0,1,0,1.3,1.3A1.3,1.3,0,0,0,1796.949,1558.482Z" transform="translate(-169.933 -148.983)" fill="url(#linear-gradient)"></path><path id="Path_1028" data-name="Path 1028" d="M1817.257,1558.482a1.3,1.3,0,1,0,1.3,1.3A1.3,1.3,0,0,0,1817.257,1558.482Z" transform="translate(-181.573 -148.983)" fill="url(#linear-gradient)"></path><path id="Path_1029" data-name="Path 1029" d="M1541.074,1577.328a1.3,1.3,0,1,0-1.3-1.3A1.3,1.3,0,0,0,1541.074,1577.328Z" transform="translate(-23.279 -158.294)" fill="url(#linear-gradient)"></path><path id="Path_1030" data-name="Path 1030" d="M1561.382,1574.728a1.3,1.3,0,1,0,1.3,1.3A1.3,1.3,0,0,0,1561.382,1574.728Z" transform="translate(-34.918 -158.294)" fill="url(#linear-gradient)"></path><path id="Path_1031" data-name="Path 1031" d="M1581.69,1574.728a1.3,1.3,0,1,0,1.3,1.3A1.3,1.3,0,0,0,1581.69,1574.728Z" transform="translate(-46.558 -158.294)" fill="url(#linear-gradient)"></path><path id="Path_1032" data-name="Path 1032" d="M1602,1574.728a1.3,1.3,0,1,0,1.3,1.3A1.3,1.3,0,0,0,1602,1574.728Z" transform="translate(-58.197 -158.294)" fill="url(#linear-gradient)"></path><path id="Path_1033" data-name="Path 1033" d="M1622.3,1574.728a1.3,1.3,0,1,0,1.3,1.3A1.3,1.3,0,0,0,1622.3,1574.728Z" transform="translate(-69.836 -158.294)" fill="url(#linear-gradient)"></path><path id="Path_1034" data-name="Path 1034" d="M1642.613,1574.728a1.3,1.3,0,1,0,1.3,1.3A1.3,1.3,0,0,0,1642.613,1574.728Z" transform="translate(-81.475 -158.294)" fill="url(#linear-gradient)"></path><path id="Path_1035" data-name="Path 1035" d="M1662.92,1574.728a1.3,1.3,0,1,0,1.3,1.3A1.3,1.3,0,0,0,1662.92,1574.728Z" transform="translate(-93.114 -158.294)" fill="url(#linear-gradient)"></path><path id="Path_1036" data-name="Path 1036" d="M1683.228,1574.728a1.3,1.3,0,1,0,1.3,1.3A1.3,1.3,0,0,0,1683.228,1574.728Z" transform="translate(-104.754 -158.294)" fill="url(#linear-gradient)"></path><path id="Path_1037" data-name="Path 1037" d="M1703.535,1574.728a1.3,1.3,0,1,0,1.3,1.3A1.3,1.3,0,0,0,1703.535,1574.728Z" transform="translate(-116.393 -158.294)" fill="url(#linear-gradient)"></path><path id="Path_1038" data-name="Path 1038" d="M1723.842,1574.728a1.3,1.3,0,1,0,1.3,1.3A1.3,1.3,0,0,0,1723.842,1574.728Z" transform="translate(-128.032 -158.294)" fill="url(#linear-gradient)"></path><path id="Path_1039" data-name="Path 1039" d="M1744.15,1574.728a1.3,1.3,0,1,0,1.3,1.3A1.3,1.3,0,0,0,1744.15,1574.728Z" transform="translate(-139.671 -158.294)" fill="url(#linear-gradient)"></path><path id="Path_1040" data-name="Path 1040" d="M1764.457,1574.728a1.3,1.3,0,1,0,1.3,1.3A1.3,1.3,0,0,0,1764.457,1574.728Z" transform="translate(-151.311 -158.294)" fill="url(#linear-gradient)"></path><path id="Path_1041" data-name="Path 1041" d="M1784.765,1574.728a1.3,1.3,0,1,0,1.3,1.3A1.3,1.3,0,0,0,1784.765,1574.728Z" transform="translate(-162.95 -158.294)" fill="url(#linear-gradient)"></path><path id="Path_1042" data-name="Path 1042" d="M1805.071,1574.728a1.3,1.3,0,1,0,1.3,1.3A1.3,1.3,0,0,0,1805.071,1574.728Z" transform="translate(-174.588 -158.294)" fill="url(#linear-gradient)"></path><path id="Path_1043" data-name="Path 1043" d="M1553.259,1593.575a1.3,1.3,0,1,0-1.3-1.3A1.3,1.3,0,0,0,1553.259,1593.575Z" transform="translate(-30.262 -167.606)" fill="url(#linear-gradient)"></path><path id="Path_1044" data-name="Path 1044" d="M1573.566,1590.975a1.3,1.3,0,1,0,1.3,1.3A1.3,1.3,0,0,0,1573.566,1590.975Z" transform="translate(-41.901 -167.606)" fill="url(#linear-gradient)"></path><circle id="Ellipse_5" data-name="Ellipse 5" cx="1.3" cy="1.3" r="1.3" transform="translate(1539.033 1423.369)" fill="url(#linear-gradient)"></circle><path id="Path_1045" data-name="Path 1045" d="M1614.182,1590.975a1.3,1.3,0,1,0,1.3,1.3A1.3,1.3,0,0,0,1614.182,1590.975Z" transform="translate(-65.181 -167.606)" fill="url(#linear-gradient)"></path><path id="Path_1046" data-name="Path 1046" d="M1634.489,1590.975a1.3,1.3,0,1,0,1.3,1.3A1.3,1.3,0,0,0,1634.489,1590.975Z" transform="translate(-76.82 -167.606)" fill="url(#linear-gradient)"></path><path id="Path_1047" data-name="Path 1047" d="M1654.8,1590.975a1.3,1.3,0,1,0,1.3,1.3A1.3,1.3,0,0,0,1654.8,1590.975Z" transform="translate(-88.459 -167.606)" fill="url(#linear-gradient)"></path><path id="Path_1048" data-name="Path 1048" d="M1675.1,1590.975a1.3,1.3,0,1,0,1.3,1.3A1.3,1.3,0,0,0,1675.1,1590.975Z" transform="translate(-100.098 -167.606)" fill="url(#linear-gradient)"></path><path id="Path_1049" data-name="Path 1049" d="M1695.412,1590.975a1.3,1.3,0,1,0,1.3,1.3A1.3,1.3,0,0,0,1695.412,1590.975Z" transform="translate(-111.738 -167.606)" fill="url(#linear-gradient)"></path><path id="Path_1050" data-name="Path 1050" d="M1715.719,1590.975a1.3,1.3,0,1,0,1.3,1.3A1.3,1.3,0,0,0,1715.719,1590.975Z" transform="translate(-123.377 -167.606)" fill="url(#linear-gradient)"></path><path id="Path_1051" data-name="Path 1051" d="M1736.027,1590.975a1.3,1.3,0,1,0,1.3,1.3A1.3,1.3,0,0,0,1736.027,1590.975Z" transform="translate(-135.016 -167.606)" fill="url(#linear-gradient)"></path><path id="Path_1052" data-name="Path 1052" d="M1756.335,1590.975a1.3,1.3,0,1,0,1.3,1.3A1.3,1.3,0,0,0,1756.335,1590.975Z" transform="translate(-146.656 -167.606)" fill="url(#linear-gradient)"></path><path id="Path_1053" data-name="Path 1053" d="M1776.642,1590.975a1.3,1.3,0,1,0,1.3,1.3A1.3,1.3,0,0,0,1776.642,1590.975Z" transform="translate(-158.294 -167.606)" fill="url(#linear-gradient)"></path><path id="Path_1054" data-name="Path 1054" d="M1796.949,1590.975a1.3,1.3,0,1,0,1.3,1.3A1.3,1.3,0,0,0,1796.949,1590.975Z" transform="translate(-169.933 -167.606)" fill="url(#linear-gradient)"></path><path id="Path_1055" data-name="Path 1055" d="M1562.912,1608.521a1.3,1.3,0,0,0-1.3-1.3,1.286,1.286,0,0,0-1.129.692q.959.815,1.946,1.6A1.276,1.276,0,0,0,1562.912,1608.521Z" transform="translate(-35.147 -176.918)" fill="url(#linear-gradient)"></path><path id="Path_1056" data-name="Path 1056" d="M1581.69,1607.221a1.3,1.3,0,1,0,1.3,1.3A1.3,1.3,0,0,0,1581.69,1607.221Z" transform="translate(-46.558 -176.918)" fill="url(#linear-gradient)"></path><path id="Path_1057" data-name="Path 1057" d="M1602,1607.221a1.3,1.3,0,1,0,1.3,1.3A1.3,1.3,0,0,0,1602,1607.221Z" transform="translate(-58.197 -176.918)" fill="url(#linear-gradient)"></path><path id="Path_1058" data-name="Path 1058" d="M1622.3,1607.221a1.3,1.3,0,1,0,1.3,1.3A1.3,1.3,0,0,0,1622.3,1607.221Z" transform="translate(-69.836 -176.918)" fill="url(#linear-gradient)"></path><path id="Path_1059" data-name="Path 1059" d="M1642.613,1607.221a1.3,1.3,0,1,0,1.3,1.3A1.3,1.3,0,0,0,1642.613,1607.221Z" transform="translate(-81.475 -176.918)" fill="url(#linear-gradient)"></path><path id="Path_1060" data-name="Path 1060" d="M1662.92,1607.221a1.3,1.3,0,1,0,1.3,1.3A1.3,1.3,0,0,0,1662.92,1607.221Z" transform="translate(-93.114 -176.918)" fill="url(#linear-gradient)"></path><path id="Path_1061" data-name="Path 1061" d="M1683.228,1607.221a1.3,1.3,0,1,0,1.3,1.3A1.3,1.3,0,0,0,1683.228,1607.221Z" transform="translate(-104.754 -176.918)" fill="url(#linear-gradient)"></path><path id="Path_1062" data-name="Path 1062" d="M1703.535,1607.221a1.3,1.3,0,1,0,1.3,1.3A1.3,1.3,0,0,0,1703.535,1607.221Z" transform="translate(-116.393 -176.918)" fill="url(#linear-gradient)"></path><path id="Path_1063" data-name="Path 1063" d="M1723.842,1607.221a1.3,1.3,0,1,0,1.3,1.3A1.3,1.3,0,0,0,1723.842,1607.221Z" transform="translate(-128.032 -176.918)" fill="url(#linear-gradient)"></path><path id="Path_1064" data-name="Path 1064" d="M1744.15,1607.221a1.3,1.3,0,1,0,1.3,1.3A1.3,1.3,0,0,0,1744.15,1607.221Z" transform="translate(-139.671 -176.918)" fill="url(#linear-gradient)"></path><path id="Path_1065" data-name="Path 1065" d="M1764.457,1607.221a1.3,1.3,0,1,0,1.3,1.3A1.3,1.3,0,0,0,1764.457,1607.221Z" transform="translate(-151.311 -176.918)" fill="url(#linear-gradient)"></path><path id="Path_1066" data-name="Path 1066" d="M1784.765,1607.221a1.3,1.3,0,0,0-1.3,1.3,1.274,1.274,0,0,0,.484.988q.985-.783,1.945-1.6A1.286,1.286,0,0,0,1784.765,1607.221Z" transform="translate(-162.95 -176.918)" fill="url(#linear-gradient)"></path><path id="Path_1067" data-name="Path 1067" d="M1593.874,1623.466a1.3,1.3,0,1,0,1.3,1.3A1.3,1.3,0,0,0,1593.874,1623.466Z" transform="translate(-53.541 -186.229)" fill="url(#linear-gradient)"></path><path id="Path_1068" data-name="Path 1068" d="M1614.182,1623.466a1.3,1.3,0,1,0,1.3,1.3A1.3,1.3,0,0,0,1614.182,1623.466Z" transform="translate(-65.181 -186.229)" fill="url(#linear-gradient)"></path><path id="Path_1069" data-name="Path 1069" d="M1634.489,1623.466a1.3,1.3,0,1,0,1.3,1.3A1.3,1.3,0,0,0,1634.489,1623.466Z" transform="translate(-76.82 -186.229)" fill="url(#linear-gradient)"></path><path id="Path_1070" data-name="Path 1070" d="M1654.8,1623.466a1.3,1.3,0,1,0,1.3,1.3A1.3,1.3,0,0,0,1654.8,1623.466Z" transform="translate(-88.459 -186.229)" fill="url(#linear-gradient)"></path><path id="Path_1071" data-name="Path 1071" d="M1676.4,1624.766a1.3,1.3,0,1,0-1.3,1.3A1.3,1.3,0,0,0,1676.4,1624.766Z" transform="translate(-100.098 -186.229)" fill="url(#linear-gradient)"></path><path id="Path_1072" data-name="Path 1072" d="M1695.412,1623.466a1.3,1.3,0,1,0,1.3,1.3A1.3,1.3,0,0,0,1695.412,1623.466Z" transform="translate(-111.738 -186.229)" fill="url(#linear-gradient)"></path><path id="Path_1073" data-name="Path 1073" d="M1715.719,1623.466a1.3,1.3,0,1,0,1.3,1.3A1.3,1.3,0,0,0,1715.719,1623.466Z" transform="translate(-123.377 -186.229)" fill="url(#linear-gradient)"></path><path id="Path_1074" data-name="Path 1074" d="M1736.027,1623.466a1.3,1.3,0,1,0,1.3,1.3A1.3,1.3,0,0,0,1736.027,1623.466Z" transform="translate(-135.016 -186.229)" fill="url(#linear-gradient)"></path><path id="Path_1075" data-name="Path 1075" d="M1756.335,1623.466a1.3,1.3,0,1,0,1.3,1.3A1.3,1.3,0,0,0,1756.335,1623.466Z" transform="translate(-146.656 -186.229)" fill="url(#linear-gradient)"></path><path id="Path_1076" data-name="Path 1076" d="M1623.632,1641.012a1.292,1.292,0,0,0-2.58-.1c.8.254,1.6.484,2.406.712A1.268,1.268,0,0,0,1623.632,1641.012Z" transform="translate(-69.863 -195.54)" fill="url(#linear-gradient)"></path><path id="Path_1077" data-name="Path 1077" d="M1642.613,1639.712a1.3,1.3,0,1,0,1.3,1.3A1.3,1.3,0,0,0,1642.613,1639.712Z" transform="translate(-81.475 -195.54)" fill="url(#linear-gradient)"></path><path id="Path_1078" data-name="Path 1078" d="M1662.92,1639.712a1.3,1.3,0,1,0,1.3,1.3A1.3,1.3,0,0,0,1662.92,1639.712Z" transform="translate(-93.114 -195.54)" fill="url(#linear-gradient)"></path><path id="Path_1079" data-name="Path 1079" d="M1683.228,1639.712a1.3,1.3,0,1,0,1.3,1.3A1.3,1.3,0,0,0,1683.228,1639.712Z" transform="translate(-104.754 -195.54)" fill="url(#linear-gradient)"></path><path id="Path_1080" data-name="Path 1080" d="M1703.535,1639.712a1.3,1.3,0,1,0,1.3,1.3A1.3,1.3,0,0,0,1703.535,1639.712Z" transform="translate(-116.393 -195.54)" fill="url(#linear-gradient)"></path><path id="Path_1081" data-name="Path 1081" d="M1723.842,1639.712a1.3,1.3,0,0,0-1.3,1.3,1.27,1.27,0,0,0,.173.611c.806-.228,1.611-.458,2.407-.712A1.291,1.291,0,0,0,1723.842,1639.712Z" transform="translate(-128.032 -195.54)" fill="url(#linear-gradient)"></path></g></svg> 