<?xml version="1.0" encoding="UTF-8"?> <svg xmlns="http://www.w3.org/2000/svg" xmlns:xlink="http://www.w3.org/1999/xlink" id="Group_570" data-name="Group 570" width="172.584" height="172.859" viewBox="0 0 172.584 172.859"><defs><linearGradient id="linear-gradient" x1="0.5" x2="0.5" y2="1" gradientUnits="objectBoundingBox"><stop offset="0" stop-color="#00c1c2"></stop><stop offset="1" stop-color="#03d59f"></stop></linearGradient></defs><path id="Path_1101" data-name="Path 1101" d="M2509.143,1506.949a1.534,1.534,0,0,0,.129-.194c-.819-.542-1.658-1.047-2.492-1.557a1.477,1.477,0,0,0,.246,1.75A1.5,1.5,0,0,0,2509.143,1506.949Z" transform="translate(-2374.956 -1493)" fill="url(#linear-gradient)"></path><path id="Path_1102" data-name="Path 1102" d="M2517.5,1517.036a1.5,1.5,0,1,0,0-2.119A1.5,1.5,0,0,0,2517.5,1517.036Z" transform="translate(-2378.361 -1496.024)" fill="url(#linear-gradient)"></path><path id="Path_1103" data-name="Path 1103" d="M2527.971,1527.51a1.5,1.5,0,1,0,0-2.118A1.5,1.5,0,0,0,2527.971,1527.51Z" transform="translate(-2381.774 -1499.435)" fill="url(#linear-gradient)"></path><path id="Path_1104" data-name="Path 1104" d="M2538.446,1537.989a1.5,1.5,0,0,0,2.121,0,1.471,1.471,0,0,0,.4-1.248c-.3-.4-.618-.806-.932-1.2a1.492,1.492,0,0,0-1.587,2.452Z" transform="translate(-2385.185 -1502.85)" fill="url(#linear-gradient)"></path><path id="Path_1105" data-name="Path 1105" d="M2548.932,1548.77a1.461,1.461,0,0,0,1.287.394c-.455-.78-.941-1.545-1.421-2.314A1.478,1.478,0,0,0,2548.932,1548.77Z" transform="translate(-2388.605 -1506.567)" fill="url(#linear-gradient)"></path><path id="Path_1106" data-name="Path 1106" d="M2481.885,1498.171a1.5,1.5,0,1,0,0-2.119A1.5,1.5,0,0,0,2481.885,1498.171Z" transform="translate(-2366.763 -1489.88)" fill="url(#linear-gradient)"></path><path id="Path_1107" data-name="Path 1107" d="M2492.36,1508.648a1.5,1.5,0,1,0,0-2.119A1.5,1.5,0,0,0,2492.36,1508.648Z" transform="translate(-2370.175 -1493.291)" fill="url(#linear-gradient)"></path><path id="Path_1108" data-name="Path 1108" d="M2502.838,1519.123a1.5,1.5,0,1,0,0-2.119A1.5,1.5,0,0,0,2502.838,1519.123Z" transform="translate(-2373.588 -1496.704)" fill="url(#linear-gradient)"></path><path id="Path_1109" data-name="Path 1109" d="M2513.312,1529.6a1.5,1.5,0,1,0,0-2.119A1.5,1.5,0,0,0,2513.312,1529.6Z" transform="translate(-2376.999 -1500.115)" fill="url(#linear-gradient)"></path><path id="Path_1110" data-name="Path 1110" d="M2523.787,1540.074a1.5,1.5,0,1,0,0-2.118A1.5,1.5,0,0,0,2523.787,1540.074Z" transform="translate(-2380.411 -1503.527)" fill="url(#linear-gradient)"></path><path id="Path_1111" data-name="Path 1111" d="M2534.264,1550.549a1.5,1.5,0,1,0,0-2.118A1.5,1.5,0,0,0,2534.264,1550.549Z" transform="translate(-2383.823 -1506.939)" fill="url(#linear-gradient)"></path><path id="Path_1112" data-name="Path 1112" d="M2544.74,1561.027a1.5,1.5,0,1,0,0-2.119A1.5,1.5,0,0,0,2544.74,1561.027Z" transform="translate(-2387.235 -1510.352)" fill="url(#linear-gradient)"></path><path id="Path_1113" data-name="Path 1113" d="M2555.216,1571.5a1.5,1.5,0,1,0,0-2.118A1.5,1.5,0,0,0,2555.216,1571.5Z" transform="translate(-2390.647 -1513.763)" fill="url(#linear-gradient)"></path><path id="Path_1114" data-name="Path 1114" d="M2458.847,1491.877a1.5,1.5,0,1,0,0-2.117A1.5,1.5,0,0,0,2458.847,1491.877Z" transform="translate(-2359.259 -1487.829)" fill="url(#linear-gradient)"></path><path id="Path_1115" data-name="Path 1115" d="M2469.323,1502.353a1.5,1.5,0,1,0,0-2.118A1.5,1.5,0,0,0,2469.323,1502.353Z" transform="translate(-2362.671 -1491.241)" fill="url(#linear-gradient)"></path><path id="Path_1116" data-name="Path 1116" d="M2479.8,1512.829a1.5,1.5,0,1,0,0-2.117A1.5,1.5,0,0,0,2479.8,1512.829Z" transform="translate(-2366.084 -1494.654)" fill="url(#linear-gradient)"></path><path id="Path_1117" data-name="Path 1117" d="M2490.274,1523.3a1.5,1.5,0,1,0,0-2.117A1.5,1.5,0,0,0,2490.274,1523.3Z" transform="translate(-2369.495 -1498.065)" fill="url(#linear-gradient)"></path><path id="Path_1118" data-name="Path 1118" d="M2500.75,1533.781a1.5,1.5,0,1,0,0-2.118A1.5,1.5,0,0,0,2500.75,1533.781Z" transform="translate(-2372.908 -1501.478)" fill="url(#linear-gradient)"></path><path id="Path_1119" data-name="Path 1119" d="M2513.342,1542.14a1.5,1.5,0,1,0,0,2.117A1.5,1.5,0,0,0,2513.342,1542.14Z" transform="translate(-2376.319 -1504.89)" fill="url(#linear-gradient)"></path><path id="Path_1120" data-name="Path 1120" d="M2521.7,1554.731a1.5,1.5,0,1,0,0-2.117A1.5,1.5,0,0,0,2521.7,1554.731Z" transform="translate(-2379.732 -1508.301)" fill="url(#linear-gradient)"></path><path id="Path_1121" data-name="Path 1121" d="M2532.176,1565.208a1.5,1.5,0,1,0,0-2.117A1.5,1.5,0,0,0,2532.176,1565.208Z" transform="translate(-2383.143 -1511.714)" fill="url(#linear-gradient)"></path><path id="Path_1122" data-name="Path 1122" d="M2542.654,1575.683a1.5,1.5,0,1,0,0-2.116A1.5,1.5,0,0,0,2542.654,1575.683Z" transform="translate(-2386.556 -1515.125)" fill="url(#linear-gradient)"></path><path id="Path_1123" data-name="Path 1123" d="M2553.128,1586.16a1.5,1.5,0,1,0,0-2.117A1.5,1.5,0,0,0,2553.128,1586.16Z" transform="translate(-2389.967 -1518.538)" fill="url(#linear-gradient)"></path><path id="Path_1124" data-name="Path 1124" d="M2563.6,1596.638a1.5,1.5,0,0,0,2.118,0,1.375,1.375,0,0,0,.242-.367c-.08-.592-.18-1.181-.274-1.773a1.494,1.494,0,0,0-2.086,2.138Z" transform="translate(-2393.379 -1521.952)" fill="url(#linear-gradient)"></path><path id="Path_1125" data-name="Path 1125" d="M2446.3,1491.849a1.5,1.5,0,1,0,0,2.116A1.5,1.5,0,0,0,2446.3,1491.849Z" transform="translate(-2354.485 -1488.509)" fill="url(#linear-gradient)"></path><path id="Path_1126" data-name="Path 1126" d="M2454.664,1504.441a1.5,1.5,0,1,0,0-2.119A1.5,1.5,0,0,0,2454.664,1504.441Z" transform="translate(-2357.897 -1491.922)" fill="url(#linear-gradient)"></path><path id="Path_1127" data-name="Path 1127" d="M2465.139,1514.917a1.5,1.5,0,1,0,0-2.119A1.5,1.5,0,0,0,2465.139,1514.917Z" transform="translate(-2361.309 -1495.334)" fill="url(#linear-gradient)"></path><path id="Path_1128" data-name="Path 1128" d="M2475.615,1525.393a1.5,1.5,0,1,0,0-2.118A1.5,1.5,0,0,0,2475.615,1525.393Z" transform="translate(-2364.721 -1498.745)" fill="url(#linear-gradient)"></path><path id="Path_1129" data-name="Path 1129" d="M2486.091,1535.869a1.5,1.5,0,1,0,0-2.119A1.5,1.5,0,0,0,2486.091,1535.869Z" transform="translate(-2368.133 -1502.157)" fill="url(#linear-gradient)"></path><path id="Path_1130" data-name="Path 1130" d="M2496.566,1546.345a1.5,1.5,0,1,0,0-2.119A1.5,1.5,0,0,0,2496.566,1546.345Z" transform="translate(-2371.545 -1505.569)" fill="url(#linear-gradient)"></path><path id="Path_1131" data-name="Path 1131" d="M2507.042,1556.821a1.5,1.5,0,1,0,0-2.119A1.5,1.5,0,0,0,2507.042,1556.821Z" transform="translate(-2374.958 -1508.981)" fill="url(#linear-gradient)"></path><path id="Path_1132" data-name="Path 1132" d="M2517.518,1567.3a1.5,1.5,0,1,0,0-2.118A1.5,1.5,0,0,0,2517.518,1567.3Z" transform="translate(-2378.369 -1512.393)" fill="url(#linear-gradient)"></path><path id="Path_1133" data-name="Path 1133" d="M2527.993,1577.773a1.5,1.5,0,1,0,0-2.119A1.5,1.5,0,0,0,2527.993,1577.773Z" transform="translate(-2381.781 -1515.806)" fill="url(#linear-gradient)"></path><path id="Path_1134" data-name="Path 1134" d="M2538.471,1588.248a1.5,1.5,0,1,0,0-2.118A1.5,1.5,0,0,0,2538.471,1588.248Z" transform="translate(-2385.193 -1519.218)" fill="url(#linear-gradient)"></path><path id="Path_1135" data-name="Path 1135" d="M2548.946,1598.724a1.5,1.5,0,1,0,0-2.119A1.5,1.5,0,0,0,2548.946,1598.724Z" transform="translate(-2388.605 -1522.63)" fill="url(#linear-gradient)"></path><path id="Path_1136" data-name="Path 1136" d="M2561.539,1607.083a1.5,1.5,0,1,0,0,2.119A1.5,1.5,0,0,0,2561.539,1607.083Z" transform="translate(-2392.017 -1526.042)" fill="url(#linear-gradient)"></path><path id="Path_1137" data-name="Path 1137" d="M2423.693,1487.109c-.975.111-1.951.22-2.922.364a1.449,1.449,0,0,0,.4.847,1.5,1.5,0,0,0,2.117,0A1.474,1.474,0,0,0,2423.693,1487.109Z" transform="translate(-2347.001 -1487.109)" fill="url(#linear-gradient)"></path><path id="Path_1138" data-name="Path 1138" d="M2433.742,1496.03a1.5,1.5,0,1,0,0,2.119A1.5,1.5,0,0,0,2433.742,1496.03Z" transform="translate(-2350.394 -1489.872)" fill="url(#linear-gradient)"></path><path id="Path_1139" data-name="Path 1139" d="M2442.1,1508.623a1.5,1.5,0,1,0,0-2.118A1.5,1.5,0,0,0,2442.1,1508.623Z" transform="translate(-2353.805 -1493.284)" fill="url(#linear-gradient)"></path><path id="Path_1140" data-name="Path 1140" d="M2452.577,1519.1a1.5,1.5,0,1,0,0-2.119A1.5,1.5,0,0,0,2452.577,1519.1Z" transform="translate(-2357.217 -1496.695)" fill="url(#linear-gradient)"></path><path id="Path_1141" data-name="Path 1141" d="M2463.054,1529.575a1.5,1.5,0,1,0,0-2.119A1.5,1.5,0,0,0,2463.054,1529.575Z" transform="translate(-2360.629 -1500.107)" fill="url(#linear-gradient)"></path><path id="Path_1142" data-name="Path 1142" d="M2473.528,1540.05a1.5,1.5,0,1,0,0-2.117A1.5,1.5,0,0,0,2473.528,1540.05Z" transform="translate(-2364.041 -1503.519)" fill="url(#linear-gradient)"></path><path id="Path_1143" data-name="Path 1143" d="M2486.4,1548.412a1.494,1.494,0,0,0-1.984-.111q1.184.8,2.333,1.666A1.492,1.492,0,0,0,2486.4,1548.412Z" transform="translate(-2367.729 -1506.934)" fill="url(#linear-gradient)"></path><path id="Path_1144" data-name="Path 1144" d="M2496.484,1558.467c.458.462.9.931,1.34,1.406a1.473,1.473,0,0,0-1.34-1.406Z" transform="translate(-2371.661 -1510.35)" fill="url(#linear-gradient)"></path><path id="Path_1145" data-name="Path 1145" d="M2507.385,1571.48a1.5,1.5,0,0,0-1.914-2.286q.848,1.236,1.618,2.509A1.507,1.507,0,0,0,2507.385,1571.48Z" transform="translate(-2374.588 -1513.756)" fill="url(#linear-gradient)"></path><path id="Path_1146" data-name="Path 1146" d="M2515.432,1581.953a1.5,1.5,0,1,0,0-2.117A1.5,1.5,0,0,0,2515.432,1581.953Z" transform="translate(-2377.689 -1517.168)" fill="url(#linear-gradient)"></path><path id="Path_1147" data-name="Path 1147" d="M2525.908,1592.429a1.5,1.5,0,1,0,0-2.117A1.5,1.5,0,0,0,2525.908,1592.429Z" transform="translate(-2381.101 -1520.579)" fill="url(#linear-gradient)"></path><path id="Path_1148" data-name="Path 1148" d="M2536.385,1602.906a1.5,1.5,0,1,0,0-2.118A1.5,1.5,0,0,0,2536.385,1602.906Z" transform="translate(-2384.514 -1523.992)" fill="url(#linear-gradient)"></path><path id="Path_1149" data-name="Path 1149" d="M2546.859,1613.381a1.5,1.5,0,1,0,0-2.117A1.5,1.5,0,0,0,2546.859,1613.381Z" transform="translate(-2387.926 -1527.403)" fill="url(#linear-gradient)"></path><path id="Path_1150" data-name="Path 1150" d="M2559.452,1621.74a1.5,1.5,0,1,0,0,2.119A1.5,1.5,0,0,0,2559.452,1621.74Z" transform="translate(-2391.337 -1530.815)" fill="url(#linear-gradient)"></path><path id="Path_1151" data-name="Path 1151" d="M2406.62,1490.546a1.5,1.5,0,0,0,2.121,0,1.464,1.464,0,0,0,.411-.928c-.9.208-1.8.439-2.7.677A1.519,1.519,0,0,0,2406.62,1490.546Z" transform="translate(-2342.338 -1487.926)" fill="url(#linear-gradient)"></path><path id="Path_1152" data-name="Path 1152" d="M2419.084,1498.118a1.5,1.5,0,1,0,0,2.118A1.5,1.5,0,0,0,2419.084,1498.118Z" transform="translate(-2345.619 -1490.551)" fill="url(#linear-gradient)"></path><path id="Path_1153" data-name="Path 1153" d="M2429.559,1508.594a1.5,1.5,0,1,0,0,2.116A1.5,1.5,0,0,0,2429.559,1508.594Z" transform="translate(-2349.031 -1493.963)" fill="url(#linear-gradient)"></path><path id="Path_1154" data-name="Path 1154" d="M2437.917,1521.187a1.5,1.5,0,1,0,0-2.119A1.5,1.5,0,0,0,2437.917,1521.187Z" transform="translate(-2352.443 -1497.375)" fill="url(#linear-gradient)"></path><path id="Path_1155" data-name="Path 1155" d="M2448.393,1531.663a1.5,1.5,0,1,0,0-2.119A1.5,1.5,0,0,0,2448.393,1531.663Z" transform="translate(-2355.855 -1500.788)" fill="url(#linear-gradient)"></path><path id="Path_1156" data-name="Path 1156" d="M2521.723,1604.994a1.5,1.5,0,1,0,0-2.119A1.5,1.5,0,0,0,2521.723,1604.994Z" transform="translate(-2379.739 -1524.672)" fill="url(#linear-gradient)"></path><path id="Path_1157" data-name="Path 1157" d="M2532.2,1615.469a1.5,1.5,0,1,0,0-2.118A1.5,1.5,0,0,0,2532.2,1615.469Z" transform="translate(-2383.151 -1528.084)" fill="url(#linear-gradient)"></path><path id="Path_1158" data-name="Path 1158" d="M2544.793,1623.827a1.5,1.5,0,1,0,0,2.119A1.5,1.5,0,0,0,2544.793,1623.827Z" transform="translate(-2386.563 -1531.496)" fill="url(#linear-gradient)"></path><path id="Path_1159" data-name="Path 1159" d="M2555.269,1634.3a1.5,1.5,0,1,0,0,2.117A1.5,1.5,0,0,0,2555.269,1634.3Z" transform="translate(-2389.975 -1534.907)" fill="url(#linear-gradient)"></path><path id="Path_1160" data-name="Path 1160" d="M2563.626,1646.909a1.425,1.425,0,0,0,.253.168c.238-.9.469-1.8.678-2.7a1.465,1.465,0,0,0-.931.411A1.5,1.5,0,0,0,2563.626,1646.909Z" transform="translate(-2393.386 -1538.332)" fill="url(#linear-gradient)"></path><path id="Path_1161" data-name="Path 1161" d="M2396.536,1493.21c-.913.313-1.818.655-2.722,1a1.462,1.462,0,0,0,.219.33,1.5,1.5,0,0,0,2.119,0A1.475,1.475,0,0,0,2396.536,1493.21Z" transform="translate(-2338.222 -1489.096)" fill="url(#linear-gradient)"></path><path id="Path_1162" data-name="Path 1162" d="M2406.52,1502.3a1.5,1.5,0,1,0,0,2.117A1.5,1.5,0,0,0,2406.52,1502.3Z" transform="translate(-2341.527 -1491.914)" fill="url(#linear-gradient)"></path><path id="Path_1163" data-name="Path 1163" d="M2417,1512.777a1.5,1.5,0,1,0,0,2.117A1.5,1.5,0,0,0,2417,1512.777Z" transform="translate(-2344.939 -1495.326)" fill="url(#linear-gradient)"></path><path id="Path_1164" data-name="Path 1164" d="M2425.354,1525.369a1.5,1.5,0,1,0,0-2.119A1.5,1.5,0,0,0,2425.354,1525.369Z" transform="translate(-2348.351 -1498.738)" fill="url(#linear-gradient)"></path><path id="Path_1165" data-name="Path 1165" d="M2437.957,1533.729a1.488,1.488,0,0,0-2.539.871q1.471-.1,2.948-.106A1.5,1.5,0,0,0,2437.957,1533.729Z" transform="translate(-2351.772 -1502.15)" fill="url(#linear-gradient)"></path><path id="Path_1166" data-name="Path 1166" d="M2519.637,1619.653a1.5,1.5,0,1,0,0-2.119A1.5,1.5,0,0,0,2519.637,1619.653Z" transform="translate(-2379.059 -1529.446)" fill="url(#linear-gradient)"></path><path id="Path_1167" data-name="Path 1167" d="M2530.112,1630.127a1.5,1.5,0,1,0,0-2.118A1.5,1.5,0,0,0,2530.112,1630.127Z" transform="translate(-2382.471 -1532.858)" fill="url(#linear-gradient)"></path><path id="Path_1168" data-name="Path 1168" d="M2542.7,1638.487a1.5,1.5,0,1,0,0,2.118A1.5,1.5,0,0,0,2542.7,1638.487Z" transform="translate(-2385.883 -1536.27)" fill="url(#linear-gradient)"></path><path id="Path_1169" data-name="Path 1169" d="M2553.18,1648.963a1.5,1.5,0,1,0,0,2.118A1.5,1.5,0,0,0,2553.18,1648.963Z" transform="translate(-2389.295 -1539.682)" fill="url(#linear-gradient)"></path><path id="Path_1170" data-name="Path 1170" d="M2391.862,1504.389a1.5,1.5,0,1,0,0,2.118A1.5,1.5,0,0,0,2391.862,1504.389Z" transform="translate(-2336.753 -1492.594)" fill="url(#linear-gradient)"></path><path id="Path_1171" data-name="Path 1171" d="M2402.339,1514.865a1.5,1.5,0,1,0,0,2.118A1.5,1.5,0,0,0,2402.339,1514.865Z" transform="translate(-2340.165 -1496.006)" fill="url(#linear-gradient)"></path><path id="Path_1172" data-name="Path 1172" d="M2412.814,1525.341a1.5,1.5,0,1,0,0,2.117A1.5,1.5,0,0,0,2412.814,1525.341Z" transform="translate(-2343.577 -1499.418)" fill="url(#linear-gradient)"></path><path id="Path_1173" data-name="Path 1173" d="M2423.288,1535.815a1.5,1.5,0,0,0-2.117,0,1.482,1.482,0,0,0-.436,1.042q1.409-.363,2.83-.649A1.476,1.476,0,0,0,2423.288,1535.815Z" transform="translate(-2346.99 -1502.83)" fill="url(#linear-gradient)"></path><path id="Path_1174" data-name="Path 1174" d="M2518.1,1632.229a1.5,1.5,0,0,0-.779-2.531q-.3,1.46-.678,2.907A1.488,1.488,0,0,0,2518.1,1632.229Z" transform="translate(-2378.228 -1533.551)" fill="url(#linear-gradient)"></path><path id="Path_1175" data-name="Path 1175" d="M2528.049,1640.575a1.5,1.5,0,1,0,0,2.118A1.5,1.5,0,0,0,2528.049,1640.575Z" transform="translate(-2381.109 -1536.95)" fill="url(#linear-gradient)"></path><path id="Path_1176" data-name="Path 1176" d="M2538.524,1651.051a1.5,1.5,0,1,0,0,2.117A1.5,1.5,0,0,0,2538.524,1651.051Z" transform="translate(-2384.521 -1540.362)" fill="url(#linear-gradient)"></path><path id="Path_1177" data-name="Path 1177" d="M2549,1661.525a1.5,1.5,0,1,0,0,2.119A1.5,1.5,0,0,0,2549,1661.525Z" transform="translate(-2387.933 -1543.773)" fill="url(#linear-gradient)"></path><path id="Path_1178" data-name="Path 1178" d="M2379.3,1508.571a1.5,1.5,0,1,0,0,2.118A1.5,1.5,0,0,0,2379.3,1508.571Z" transform="translate(-2332.66 -1493.956)" fill="url(#linear-gradient)"></path><path id="Path_1179" data-name="Path 1179" d="M2389.774,1519.047a1.5,1.5,0,1,0,0,2.117A1.5,1.5,0,0,0,2389.774,1519.047Z" transform="translate(-2336.073 -1497.368)" fill="url(#linear-gradient)"></path><path id="Path_1180" data-name="Path 1180" d="M2400.25,1529.522a1.5,1.5,0,1,0,0,2.118A1.5,1.5,0,0,0,2400.25,1529.522Z" transform="translate(-2339.485 -1500.78)" fill="url(#linear-gradient)"></path><path id="Path_1181" data-name="Path 1181" d="M2410.729,1540a1.49,1.49,0,0,0-2.543,1.188q1.3-.584,2.621-1.094C2410.78,1540.062,2410.758,1540.028,2410.729,1540Z" transform="translate(-2342.9 -1504.192)" fill="url(#linear-gradient)"></path><path id="Path_1182" data-name="Path 1182" d="M2513.367,1646.873a1.5,1.5,0,1,0,0-2.118A1.5,1.5,0,0,0,2513.367,1646.873Z" transform="translate(-2377.017 -1538.312)" fill="url(#linear-gradient)"></path><path id="Path_1183" data-name="Path 1183" d="M2525.959,1655.232a1.5,1.5,0,1,0,0,2.117A1.5,1.5,0,0,0,2525.959,1655.232Z" transform="translate(-2380.429 -1541.724)" fill="url(#linear-gradient)"></path><path id="Path_1184" data-name="Path 1184" d="M2536.435,1665.709a1.5,1.5,0,1,0,0,2.117A1.5,1.5,0,0,0,2536.435,1665.709Z" transform="translate(-2383.841 -1545.136)" fill="url(#linear-gradient)"></path><path id="Path_1185" data-name="Path 1185" d="M2546.912,1676.185a1.5,1.5,0,1,0,0,2.117A1.5,1.5,0,0,0,2546.912,1676.185Z" transform="translate(-2387.253 -1548.548)" fill="url(#linear-gradient)"></path><path id="Path_1186" data-name="Path 1186" d="M2363.87,1510.3q-.883.633-1.748,1.29a1.467,1.467,0,0,0,.411,1.211,1.5,1.5,0,1,0,2.117-2.117A1.455,1.455,0,0,0,2363.87,1510.3Z" transform="translate(-2327.896 -1494.663)" fill="url(#linear-gradient)"></path><path id="Path_1187" data-name="Path 1187" d="M2375.116,1521.135a1.5,1.5,0,1,0,0,2.117A1.5,1.5,0,0,0,2375.116,1521.135Z" transform="translate(-2331.299 -1498.048)" fill="url(#linear-gradient)"></path><path id="Path_1188" data-name="Path 1188" d="M2385.592,1531.61a1.5,1.5,0,1,0,0,2.117A1.5,1.5,0,0,0,2385.592,1531.61Z" transform="translate(-2334.711 -1501.46)" fill="url(#linear-gradient)"></path><path id="Path_1189" data-name="Path 1189" d="M2396.068,1542.086a1.5,1.5,0,1,0,0,2.117A1.5,1.5,0,0,0,2396.068,1542.086Z" transform="translate(-2338.123 -1504.872)" fill="url(#linear-gradient)"></path><path id="Path_1190" data-name="Path 1190" d="M2511.3,1657.321a1.5,1.5,0,1,0,0,2.118A1.5,1.5,0,0,0,2511.3,1657.321Z" transform="translate(-2375.655 -1542.404)" fill="url(#linear-gradient)"></path><path id="Path_1191" data-name="Path 1191" d="M2521.777,1667.8a1.5,1.5,0,1,0,0,2.117A1.5,1.5,0,0,0,2521.777,1667.8Z" transform="translate(-2379.066 -1545.816)" fill="url(#linear-gradient)"></path><path id="Path_1192" data-name="Path 1192" d="M2532.252,1678.271a1.5,1.5,0,1,0,0,2.118A1.5,1.5,0,0,0,2532.252,1678.271Z" transform="translate(-2382.479 -1549.228)" fill="url(#linear-gradient)"></path><path id="Path_1193" data-name="Path 1193" d="M2540.611,1690.864a1.468,1.468,0,0,0,1.211.41c.438-.578.866-1.16,1.289-1.746a1.456,1.456,0,0,0-.384-.781,1.5,1.5,0,1,0-2.117,2.117Z" transform="translate(-2385.89 -1552.64)" fill="url(#linear-gradient)"></path><path id="Path_1194" data-name="Path 1194" d="M2362.552,1525.316a1.5,1.5,0,1,0,0,2.119A1.5,1.5,0,0,0,2362.552,1525.316Z" transform="translate(-2327.207 -1499.41)" fill="url(#linear-gradient)"></path><path id="Path_1195" data-name="Path 1195" d="M2373.029,1535.792a1.5,1.5,0,1,0,0,2.119A1.5,1.5,0,0,0,2373.029,1535.792Z" transform="translate(-2330.619 -1502.822)" fill="url(#linear-gradient)"></path><path id="Path_1196" data-name="Path 1196" d="M2383.5,1546.268a1.5,1.5,0,1,0,0,2.118A1.5,1.5,0,0,0,2383.5,1546.268Z" transform="translate(-2334.031 -1506.234)" fill="url(#linear-gradient)"></path><path id="Path_1197" data-name="Path 1197" d="M2509.214,1671.978a1.5,1.5,0,1,0,0,2.118A1.5,1.5,0,0,0,2509.214,1671.978Z" transform="translate(-2374.974 -1547.178)" fill="url(#linear-gradient)"></path><path id="Path_1198" data-name="Path 1198" d="M2519.69,1682.454a1.5,1.5,0,1,0,0,2.118A1.5,1.5,0,0,0,2519.69,1682.454Z" transform="translate(-2378.386 -1550.59)" fill="url(#linear-gradient)"></path><path id="Path_1199" data-name="Path 1199" d="M2530.165,1692.931a1.5,1.5,0,1,0,0,2.117A1.494,1.494,0,0,0,2530.165,1692.931Z" transform="translate(-2381.799 -1554.002)" fill="url(#linear-gradient)"></path><path id="Path_1200" data-name="Path 1200" d="M2345.778,1529.521a1.5,1.5,0,1,0,0-2.119A1.5,1.5,0,0,0,2345.778,1529.521Z" transform="translate(-2322.432 -1500.09)" fill="url(#linear-gradient)"></path><path id="Path_1201" data-name="Path 1201" d="M2358.369,1537.881a1.5,1.5,0,1,0,0,2.117A1.5,1.5,0,0,0,2358.369,1537.881Z" transform="translate(-2325.844 -1503.502)" fill="url(#linear-gradient)"></path><path id="Path_1202" data-name="Path 1202" d="M2368.846,1548.357a1.5,1.5,0,1,0,0,2.116A1.5,1.5,0,0,0,2368.846,1548.357Z" transform="translate(-2329.257 -1506.914)" fill="url(#linear-gradient)"></path><path id="Path_1203" data-name="Path 1203" d="M2379.321,1558.832a1.5,1.5,0,1,0,0,2.117A1.5,1.5,0,0,0,2379.321,1558.832Z" transform="translate(-2332.669 -1510.326)" fill="url(#linear-gradient)"></path><path id="Path_1204" data-name="Path 1204" d="M2494.555,1674.067a1.5,1.5,0,1,0,0,2.117A1.5,1.5,0,0,0,2494.555,1674.067Z" transform="translate(-2370.201 -1547.858)" fill="url(#linear-gradient)"></path><path id="Path_1205" data-name="Path 1205" d="M2505.032,1684.542a1.5,1.5,0,1,0,0,2.117A1.5,1.5,0,0,0,2505.032,1684.542Z" transform="translate(-2373.612 -1551.27)" fill="url(#linear-gradient)"></path><path id="Path_1206" data-name="Path 1206" d="M2515.507,1695.018a1.5,1.5,0,1,0,0,2.117A1.5,1.5,0,0,0,2515.507,1695.018Z" transform="translate(-2377.025 -1554.682)" fill="url(#linear-gradient)"></path><path id="Path_1207" data-name="Path 1207" d="M2525.985,1707.611a1.5,1.5,0,1,0-2.118,0A1.5,1.5,0,0,0,2525.985,1707.611Z" transform="translate(-2380.437 -1558.094)" fill="url(#linear-gradient)"></path><path id="Path_1208" data-name="Path 1208" d="M2345.8,1542.062a1.5,1.5,0,1,0,0,2.119A1.5,1.5,0,0,0,2345.8,1542.062Z" transform="translate(-2321.753 -1504.865)" fill="url(#linear-gradient)"></path><path id="Path_1209" data-name="Path 1209" d="M2356.283,1552.538a1.5,1.5,0,1,0,0,2.119A1.5,1.5,0,0,0,2356.283,1552.538Z" transform="translate(-2325.165 -1508.276)" fill="url(#linear-gradient)"></path><path id="Path_1210" data-name="Path 1210" d="M2366.758,1563.015a1.5,1.5,0,1,0,0,2.118A1.5,1.5,0,0,0,2366.758,1563.015Z" transform="translate(-2328.577 -1511.688)" fill="url(#linear-gradient)"></path><path id="Path_1211" data-name="Path 1211" d="M2482.277,1680.948a1.5,1.5,0,0,0,.408-1.354c-.78.515-1.575,1-2.376,1.475A1.494,1.494,0,0,0,2482.277,1680.948Z" transform="translate(-2366.393 -1549.802)" fill="url(#linear-gradient)"></path><path id="Path_1212" data-name="Path 1212" d="M2492.467,1688.724a1.5,1.5,0,1,0,0,2.119A1.495,1.495,0,0,0,2492.467,1688.724Z" transform="translate(-2369.521 -1552.632)" fill="url(#linear-gradient)"></path><path id="Path_1213" data-name="Path 1213" d="M2502.945,1699.2a1.5,1.5,0,1,0,0,2.119A1.5,1.5,0,0,0,2502.945,1699.2Z" transform="translate(-2372.933 -1556.044)" fill="url(#linear-gradient)"></path><path id="Path_1214" data-name="Path 1214" d="M2513.42,1709.676a1.5,1.5,0,1,0,0,2.118A1.5,1.5,0,0,0,2513.42,1709.676Z" transform="translate(-2376.345 -1559.456)" fill="url(#linear-gradient)"></path><path id="Path_1215" data-name="Path 1215" d="M2331.537,1544.3a1.53,1.53,0,0,0-.2-.129c-.542.821-1.046,1.657-1.557,2.49a1.481,1.481,0,0,0,1.753-.242A1.5,1.5,0,0,0,2331.537,1544.3Z" transform="translate(-2317.367 -1505.694)" fill="url(#linear-gradient)"></path><path id="Path_1216" data-name="Path 1216" d="M2341.625,1554.626a1.5,1.5,0,1,0,0,2.118A1.5,1.5,0,0,0,2341.625,1554.626Z" transform="translate(-2320.39 -1508.956)" fill="url(#linear-gradient)"></path><path id="Path_1217" data-name="Path 1217" d="M2352.1,1565.1a1.5,1.5,0,1,0,0,2.117A1.5,1.5,0,0,0,2352.1,1565.1Z" transform="translate(-2323.802 -1512.368)" fill="url(#linear-gradient)"></path><path id="Path_1218" data-name="Path 1218" d="M2362.577,1575.577a1.5,1.5,0,1,0,0,2.118A1.5,1.5,0,0,0,2362.577,1575.577Z" transform="translate(-2327.215 -1515.78)" fill="url(#linear-gradient)"></path><path id="Path_1219" data-name="Path 1219" d="M2477.811,1690.812a1.5,1.5,0,1,0,0,2.118A1.5,1.5,0,0,0,2477.811,1690.812Z" transform="translate(-2364.747 -1553.313)" fill="url(#linear-gradient)"></path><path id="Path_1220" data-name="Path 1220" d="M2488.287,1701.287a1.5,1.5,0,1,0,0,2.118A1.5,1.5,0,0,0,2488.287,1701.287Z" transform="translate(-2368.158 -1556.724)" fill="url(#linear-gradient)"></path><path id="Path_1221" data-name="Path 1221" d="M2498.762,1711.763a1.5,1.5,0,1,0,0,2.118A1.5,1.5,0,0,0,2498.762,1711.763Z" transform="translate(-2371.57 -1560.137)" fill="url(#linear-gradient)"></path><path id="Path_1222" data-name="Path 1222" d="M2507.124,1722.238a1.479,1.479,0,0,0-.241,1.753c.832-.511,1.669-1.016,2.49-1.556a1.349,1.349,0,0,0-2.249-.2Z" transform="translate(-2374.989 -1563.548)" fill="url(#linear-gradient)"></path><path id="Path_1223" data-name="Path 1223" d="M2329.061,1558.808a1.5,1.5,0,1,0,0,2.117A1.5,1.5,0,0,0,2329.061,1558.808Z" transform="translate(-2316.298 -1510.318)" fill="url(#linear-gradient)"></path><path id="Path_1224" data-name="Path 1224" d="M2339.537,1569.284a1.5,1.5,0,1,0,0,2.119A1.5,1.5,0,0,0,2339.537,1569.284Z" transform="translate(-2319.711 -1513.73)" fill="url(#linear-gradient)"></path><path id="Path_1225" data-name="Path 1225" d="M2350.013,1579.76a1.5,1.5,0,1,0,0,2.118A1.5,1.5,0,0,0,2350.013,1579.76Z" transform="translate(-2323.123 -1517.142)" fill="url(#linear-gradient)"></path><path id="Path_1226" data-name="Path 1226" d="M2360.488,1590.235a1.5,1.5,0,1,0,0,2.119A1.5,1.5,0,0,0,2360.488,1590.235Z" transform="translate(-2326.535 -1520.554)" fill="url(#linear-gradient)"></path><path id="Path_1227" data-name="Path 1227" d="M2465.246,1694.993a1.5,1.5,0,1,0,0,2.119A1.5,1.5,0,0,0,2465.246,1694.993Z" transform="translate(-2360.654 -1554.674)" fill="url(#linear-gradient)"></path><path id="Path_1228" data-name="Path 1228" d="M2475.723,1705.47a1.5,1.5,0,1,0,0,2.118A1.5,1.5,0,0,0,2475.723,1705.47Z" transform="translate(-2364.066 -1558.086)" fill="url(#linear-gradient)"></path><path id="Path_1229" data-name="Path 1229" d="M2486.2,1715.945a1.5,1.5,0,1,0,0,2.119A1.5,1.5,0,0,0,2486.2,1715.945Z" transform="translate(-2367.478 -1561.498)" fill="url(#linear-gradient)"></path><path id="Path_1230" data-name="Path 1230" d="M2496.674,1726.421a1.5,1.5,0,1,0,0,2.118A1.5,1.5,0,0,0,2496.674,1726.421Z" transform="translate(-2370.891 -1564.91)" fill="url(#linear-gradient)"></path><path id="Path_1231" data-name="Path 1231" d="M2324.878,1573.49a1.5,1.5,0,1,0-2.118,0A1.5,1.5,0,0,0,2324.878,1573.49Z" transform="translate(-2314.936 -1514.41)" fill="url(#linear-gradient)"></path><path id="Path_1232" data-name="Path 1232" d="M2335.356,1581.847a1.5,1.5,0,1,0,0,2.118A1.5,1.5,0,0,0,2335.356,1581.847Z" transform="translate(-2318.348 -1517.822)" fill="url(#linear-gradient)"></path><path id="Path_1233" data-name="Path 1233" d="M2345.831,1592.323a1.5,1.5,0,1,0,0,2.118A1.5,1.5,0,0,0,2345.831,1592.323Z" transform="translate(-2321.76 -1521.234)" fill="url(#linear-gradient)"></path><path id="Path_1234" data-name="Path 1234" d="M2356.306,1602.8a1.5,1.5,0,1,0,0,2.119A1.5,1.5,0,0,0,2356.306,1602.8Z" transform="translate(-2325.172 -1524.646)" fill="url(#linear-gradient)"></path><path id="Path_1235" data-name="Path 1235" d="M2450.589,1697.081a1.5,1.5,0,1,0,0,2.119A1.5,1.5,0,0,0,2450.589,1697.081Z" transform="translate(-2355.88 -1555.354)" fill="url(#linear-gradient)"></path><path id="Path_1236" data-name="Path 1236" d="M2461.065,1707.557a1.5,1.5,0,1,0,0,2.119A1.5,1.5,0,0,0,2461.065,1707.557Z" transform="translate(-2359.292 -1558.766)" fill="url(#linear-gradient)"></path><path id="Path_1237" data-name="Path 1237" d="M2471.542,1718.032a1.5,1.5,0,1,0,0,2.119A1.5,1.5,0,0,0,2471.542,1718.032Z" transform="translate(-2362.704 -1562.178)" fill="url(#linear-gradient)"></path><path id="Path_1238" data-name="Path 1238" d="M2479.9,1730.626a1.5,1.5,0,1,0,0-2.119A1.5,1.5,0,0,0,2479.9,1730.626Z" transform="translate(-2366.116 -1565.59)" fill="url(#linear-gradient)"></path><path id="Path_1239" data-name="Path 1239" d="M2322.791,1586.03a1.5,1.5,0,1,0,0,2.118A1.5,1.5,0,0,0,2322.791,1586.03Z" transform="translate(-2314.256 -1519.185)" fill="url(#linear-gradient)"></path><path id="Path_1240" data-name="Path 1240" d="M2333.266,1596.506a1.5,1.5,0,1,0,0,2.118A1.5,1.5,0,0,0,2333.266,1596.506Z" transform="translate(-2317.668 -1522.597)" fill="url(#linear-gradient)"></path><path id="Path_1241" data-name="Path 1241" d="M2343.743,1606.981a1.5,1.5,0,1,0,0,2.118A1.5,1.5,0,0,0,2343.743,1606.981Z" transform="translate(-2321.08 -1526.008)" fill="url(#linear-gradient)"></path><path id="Path_1242" data-name="Path 1242" d="M2354.218,1617.458a1.5,1.5,0,1,0,0,2.118A1.5,1.5,0,0,0,2354.218,1617.458Z" transform="translate(-2324.492 -1529.421)" fill="url(#linear-gradient)"></path><path id="Path_1243" data-name="Path 1243" d="M2362.576,1628.06a1.5,1.5,0,0,0,.772,2.531q-.32-1.346-.564-2.7A1.479,1.479,0,0,0,2362.576,1628.06Z" transform="translate(-2327.904 -1532.962)" fill="url(#linear-gradient)"></path><path id="Path_1244" data-name="Path 1244" d="M2425.432,1693.142a1.5,1.5,0,0,0,2.433-1.649q-1.242-.179-2.474-.419A1.5,1.5,0,0,0,2425.432,1693.142Z" transform="translate(-2348.377 -1553.541)" fill="url(#linear-gradient)"></path><path id="Path_1245" data-name="Path 1245" d="M2438.026,1701.265a1.5,1.5,0,1,0,0,2.117A1.5,1.5,0,0,0,2438.026,1701.265Z" transform="translate(-2351.788 -1556.716)" fill="url(#linear-gradient)"></path><path id="Path_1246" data-name="Path 1246" d="M2448.5,1711.74a1.5,1.5,0,1,0,0,2.117A1.5,1.5,0,0,0,2448.5,1711.74Z" transform="translate(-2355.2 -1560.128)" fill="url(#linear-gradient)"></path><path id="Path_1247" data-name="Path 1247" d="M2458.977,1722.216a1.5,1.5,0,1,0,0,2.117A1.5,1.5,0,0,0,2458.977,1722.216Z" transform="translate(-2358.612 -1563.541)" fill="url(#linear-gradient)"></path><path id="Path_1248" data-name="Path 1248" d="M2469.453,1732.691a1.5,1.5,0,1,0,0,2.118A1.5,1.5,0,0,0,2469.453,1732.691Z" transform="translate(-2362.024 -1566.952)" fill="url(#linear-gradient)"></path><path id="Path_1249" data-name="Path 1249" d="M2318.61,1598.594a1.5,1.5,0,1,0,0,2.117A1.5,1.5,0,0,0,2318.61,1598.594Z" transform="translate(-2312.894 -1523.276)" fill="url(#linear-gradient)"></path><path id="Path_1250" data-name="Path 1250" d="M2329.084,1609.069a1.5,1.5,0,1,0,0,2.119A1.5,1.5,0,0,0,2329.084,1609.069Z" transform="translate(-2316.306 -1526.688)" fill="url(#linear-gradient)"></path><path id="Path_1251" data-name="Path 1251" d="M2339.559,1619.545a1.5,1.5,0,1,0,0,2.119A1.5,1.5,0,0,0,2339.559,1619.545Z" transform="translate(-2319.718 -1530.101)" fill="url(#linear-gradient)"></path><path id="Path_1252" data-name="Path 1252" d="M2350.036,1630.021a1.5,1.5,0,1,0,0,2.119A1.5,1.5,0,0,0,2350.036,1630.021Z" transform="translate(-2323.131 -1533.512)" fill="url(#linear-gradient)"></path><path id="Path_1253" data-name="Path 1253" d="M2360.511,1640.5a1.5,1.5,0,1,0,0,2.118A1.5,1.5,0,0,0,2360.511,1640.5Z" transform="translate(-2326.542 -1536.925)" fill="url(#linear-gradient)"></path><path id="Path_1254" data-name="Path 1254" d="M2368.869,1650.975a1.5,1.5,0,0,0,2.119,2.119,1.52,1.52,0,0,0,.3-.447q-.611-1.035-1.168-2.091A1.484,1.484,0,0,0,2368.869,1650.975Z" transform="translate(-2329.954 -1540.34)" fill="url(#linear-gradient)"></path><path id="Path_1255" data-name="Path 1255" d="M2379.346,1664.141a1.491,1.491,0,0,0,1.094.435q-.774-.885-1.5-1.8A1.5,1.5,0,0,0,2379.346,1664.141Z" transform="translate(-2333.367 -1544.325)" fill="url(#linear-gradient)"></path><path id="Path_1256" data-name="Path 1256" d="M2389.824,1674.728a1.5,1.5,0,0,0,1.428.388q-.943-.737-1.859-1.52A1.483,1.483,0,0,0,2389.824,1674.728Z" transform="translate(-2336.781 -1547.848)" fill="url(#linear-gradient)"></path><path id="Path_1257" data-name="Path 1257" d="M2400.3,1682.437a1.5,1.5,0,1,0,2.5.682c-.64-.332-1.273-.681-1.9-1.042A1.515,1.515,0,0,0,2400.3,1682.437Z" transform="translate(-2340.19 -1550.61)" fill="url(#linear-gradient)"></path><path id="Path_1258" data-name="Path 1258" d="M2412.89,1692.876a1.5,1.5,0,1,0,0,2.119A1.5,1.5,0,0,0,2412.89,1692.876Z" transform="translate(-2343.602 -1553.985)" fill="url(#linear-gradient)"></path><path id="Path_1259" data-name="Path 1259" d="M2423.367,1703.352a1.5,1.5,0,1,0,0,2.119A1.5,1.5,0,0,0,2423.367,1703.352Z" transform="translate(-2347.014 -1557.396)" fill="url(#linear-gradient)"></path><path id="Path_1260" data-name="Path 1260" d="M2433.843,1713.827a1.5,1.5,0,1,0,0,2.119A1.5,1.5,0,0,0,2433.843,1713.827Z" transform="translate(-2350.426 -1560.809)" fill="url(#linear-gradient)"></path><path id="Path_1261" data-name="Path 1261" d="M2444.32,1724.3a1.5,1.5,0,1,0,0,2.118A1.5,1.5,0,0,0,2444.32,1724.3Z" transform="translate(-2353.838 -1564.221)" fill="url(#linear-gradient)"></path><path id="Path_1262" data-name="Path 1262" d="M2454.794,1734.779a1.5,1.5,0,1,0,0,2.119A1.5,1.5,0,0,0,2454.794,1734.779Z" transform="translate(-2357.25 -1567.632)" fill="url(#linear-gradient)"></path><path id="Path_1263" data-name="Path 1263" d="M2316.521,1613.252a1.5,1.5,0,1,0,0,2.118A1.5,1.5,0,0,0,2316.521,1613.252Z" transform="translate(-2312.214 -1528.051)" fill="url(#linear-gradient)"></path><path id="Path_1264" data-name="Path 1264" d="M2327,1623.728a1.5,1.5,0,1,0,0,2.117A1.5,1.5,0,0,0,2327,1623.728Z" transform="translate(-2315.626 -1531.463)" fill="url(#linear-gradient)"></path><path id="Path_1265" data-name="Path 1265" d="M2337.471,1634.2a1.5,1.5,0,1,0,0,2.118A1.5,1.5,0,0,0,2337.471,1634.2Z" transform="translate(-2319.038 -1534.875)" fill="url(#linear-gradient)"></path><path id="Path_1266" data-name="Path 1266" d="M2347.948,1644.679a1.5,1.5,0,1,0,0,2.117A1.5,1.5,0,0,0,2347.948,1644.679Z" transform="translate(-2322.45 -1538.287)" fill="url(#linear-gradient)"></path><path id="Path_1267" data-name="Path 1267" d="M2358.424,1655.155a1.5,1.5,0,1,0,0,2.118A1.5,1.5,0,0,0,2358.424,1655.155Z" transform="translate(-2325.862 -1541.699)" fill="url(#linear-gradient)"></path><path id="Path_1268" data-name="Path 1268" d="M2368.9,1665.632a1.5,1.5,0,1,0,0,2.117A1.5,1.5,0,0,0,2368.9,1665.632Z" transform="translate(-2329.274 -1545.111)" fill="url(#linear-gradient)"></path><path id="Path_1269" data-name="Path 1269" d="M2377.259,1676.1a1.5,1.5,0,1,0,2.117,0A1.5,1.5,0,0,0,2377.259,1676.1Z" transform="translate(-2332.686 -1548.523)" fill="url(#linear-gradient)"></path><path id="Path_1270" data-name="Path 1270" d="M2389.85,1686.583a1.5,1.5,0,1,0,0,2.117A1.5,1.5,0,0,0,2389.85,1686.583Z" transform="translate(-2336.098 -1551.935)" fill="url(#linear-gradient)"></path><path id="Path_1271" data-name="Path 1271" d="M2400.327,1697.058a1.5,1.5,0,1,0,0,2.117A1.5,1.5,0,0,0,2400.327,1697.058Z" transform="translate(-2339.51 -1555.346)" fill="url(#linear-gradient)"></path><path id="Path_1272" data-name="Path 1272" d="M2410.8,1707.534a1.5,1.5,0,1,0,0,2.119A1.5,1.5,0,0,0,2410.8,1707.534Z" transform="translate(-2342.922 -1558.759)" fill="url(#linear-gradient)"></path><path id="Path_1273" data-name="Path 1273" d="M2421.279,1718.01a1.5,1.5,0,1,0,0,2.117A1.5,1.5,0,0,0,2421.279,1718.01Z" transform="translate(-2346.334 -1562.171)" fill="url(#linear-gradient)"></path><path id="Path_1274" data-name="Path 1274" d="M2431.753,1728.485a1.5,1.5,0,1,0,0,2.118A1.5,1.5,0,0,0,2431.753,1728.485Z" transform="translate(-2349.746 -1565.582)" fill="url(#linear-gradient)"></path><path id="Path_1275" data-name="Path 1275" d="M2442.23,1738.962a1.5,1.5,0,1,0,0,2.118A1.5,1.5,0,0,0,2442.23,1738.962Z" transform="translate(-2353.158 -1568.995)" fill="url(#linear-gradient)"></path><path id="Path_1276" data-name="Path 1276" d="M2312.854,1625.823a1.483,1.483,0,0,0-1.485-.355q.121,1.442.288,2.884a1.464,1.464,0,0,0,1.2-.411A1.5,1.5,0,0,0,2312.854,1625.823Z" transform="translate(-2311.369 -1532.151)" fill="url(#linear-gradient)"></path><path id="Path_1277" data-name="Path 1277" d="M2322.814,1636.29a1.5,1.5,0,1,0,0,2.119A1.5,1.5,0,0,0,2322.814,1636.29Z" transform="translate(-2314.264 -1535.555)" fill="url(#linear-gradient)"></path><path id="Path_1278" data-name="Path 1278" d="M2333.29,1646.767a1.5,1.5,0,1,0,0,2.117A1.495,1.495,0,0,0,2333.29,1646.767Z" transform="translate(-2317.676 -1538.967)" fill="url(#linear-gradient)"></path><path id="Path_1279" data-name="Path 1279" d="M2343.766,1657.243a1.5,1.5,0,1,0,0,2.118A1.5,1.5,0,0,0,2343.766,1657.243Z" transform="translate(-2321.088 -1542.379)" fill="url(#linear-gradient)"></path><path id="Path_1280" data-name="Path 1280" d="M2354.242,1667.719a1.5,1.5,0,1,0,0,2.117A1.5,1.5,0,0,0,2354.242,1667.719Z" transform="translate(-2324.5 -1545.791)" fill="url(#linear-gradient)"></path><path id="Path_1281" data-name="Path 1281" d="M2364.717,1678.194a1.5,1.5,0,1,0,0,2.118A1.5,1.5,0,0,0,2364.717,1678.194Z" transform="translate(-2327.912 -1549.203)" fill="url(#linear-gradient)"></path><path id="Path_1282" data-name="Path 1282" d="M2375.193,1688.669a1.5,1.5,0,1,0,0,2.119A1.5,1.5,0,0,0,2375.193,1688.669Z" transform="translate(-2331.324 -1552.615)" fill="url(#linear-gradient)"></path><path id="Path_1283" data-name="Path 1283" d="M2385.668,1699.146a1.5,1.5,0,1,0,0,2.119A1.5,1.5,0,0,0,2385.668,1699.146Z" transform="translate(-2334.736 -1556.026)" fill="url(#linear-gradient)"></path><path id="Path_1284" data-name="Path 1284" d="M2396.144,1709.621a1.5,1.5,0,1,0,0,2.119A1.5,1.5,0,0,0,2396.144,1709.621Z" transform="translate(-2338.148 -1559.439)" fill="url(#linear-gradient)"></path><path id="Path_1285" data-name="Path 1285" d="M2406.621,1720.1a1.5,1.5,0,1,0,0,2.117A1.5,1.5,0,0,0,2406.621,1720.1Z" transform="translate(-2341.56 -1562.851)" fill="url(#linear-gradient)"></path><path id="Path_1286" data-name="Path 1286" d="M2417.1,1730.574a1.5,1.5,0,1,0,0,2.119A1.5,1.5,0,0,0,2417.1,1730.574Z" transform="translate(-2344.972 -1566.263)" fill="url(#linear-gradient)"></path><path id="Path_1287" data-name="Path 1287" d="M2425.464,1741.049a1.462,1.462,0,0,0-.411,1.2q1.441.166,2.884.286a1.483,1.483,0,0,0-2.473-1.485Z" transform="translate(-2348.393 -1569.675)" fill="url(#linear-gradient)"></path><path id="Path_1288" data-name="Path 1288" d="M2320.727,1650.949a1.5,1.5,0,1,0,0,2.119A1.5,1.5,0,0,0,2320.727,1650.949Z" transform="translate(-2313.584 -1540.329)" fill="url(#linear-gradient)"></path><path id="Path_1289" data-name="Path 1289" d="M2331.2,1661.425a1.5,1.5,0,1,0,0,2.118A1.5,1.5,0,0,0,2331.2,1661.425Z" transform="translate(-2316.996 -1543.741)" fill="url(#linear-gradient)"></path><path id="Path_1290" data-name="Path 1290" d="M2341.679,1671.9a1.5,1.5,0,1,0,0,2.118A1.5,1.5,0,0,0,2341.679,1671.9Z" transform="translate(-2320.408 -1547.153)" fill="url(#linear-gradient)"></path><path id="Path_1291" data-name="Path 1291" d="M2352.154,1682.377a1.5,1.5,0,1,0,0,2.117A1.5,1.5,0,0,0,2352.154,1682.377Z" transform="translate(-2323.821 -1550.565)" fill="url(#linear-gradient)"></path><path id="Path_1292" data-name="Path 1292" d="M2360.514,1694.969a1.5,1.5,0,1,0,0-2.118A1.5,1.5,0,0,0,2360.514,1694.969Z" transform="translate(-2327.232 -1553.977)" fill="url(#linear-gradient)"></path><path id="Path_1293" data-name="Path 1293" d="M2373.1,1703.327a1.5,1.5,0,1,0,0,2.119A1.5,1.5,0,0,0,2373.1,1703.327Z" transform="translate(-2330.643 -1557.389)" fill="url(#linear-gradient)"></path><path id="Path_1294" data-name="Path 1294" d="M2383.581,1713.8a1.5,1.5,0,1,0,0,2.117A1.5,1.5,0,0,0,2383.581,1713.8Z" transform="translate(-2334.056 -1560.801)" fill="url(#linear-gradient)"></path><path id="Path_1295" data-name="Path 1295" d="M2394.058,1724.279a1.5,1.5,0,1,0,0,2.119A1.5,1.5,0,0,0,2394.058,1724.279Z" transform="translate(-2337.468 -1564.213)" fill="url(#linear-gradient)"></path><path id="Path_1296" data-name="Path 1296" d="M2404.533,1734.756a1.5,1.5,0,1,0,0,2.118A1.5,1.5,0,0,0,2404.533,1734.756Z" transform="translate(-2340.88 -1567.625)" fill="url(#linear-gradient)"></path><path id="Path_1297" data-name="Path 1297" d="M2327.277,1673.993a1.488,1.488,0,0,0-2.021-.066c.443.854.912,1.7,1.381,2.542a1.471,1.471,0,0,0,.641-.359A1.5,1.5,0,0,0,2327.277,1673.993Z" transform="translate(-2315.892 -1547.837)" fill="url(#linear-gradient)"></path><path id="Path_1298" data-name="Path 1298" d="M2337.5,1684.466a1.5,1.5,0,1,0,0,2.116A1.5,1.5,0,0,0,2337.5,1684.466Z" transform="translate(-2319.045 -1551.245)" fill="url(#linear-gradient)"></path><path id="Path_1299" data-name="Path 1299" d="M2347.97,1694.94a1.5,1.5,0,1,0,0,2.118A1.5,1.5,0,0,0,2347.97,1694.94Z" transform="translate(-2322.457 -1554.657)" fill="url(#linear-gradient)"></path><path id="Path_1300" data-name="Path 1300" d="M2358.447,1705.417a1.5,1.5,0,1,0,0,2.118A1.5,1.5,0,0,0,2358.447,1705.417Z" transform="translate(-2325.87 -1558.069)" fill="url(#linear-gradient)"></path><path id="Path_1301" data-name="Path 1301" d="M2368.92,1715.892a1.5,1.5,0,1,0,0,2.118A1.5,1.5,0,0,0,2368.92,1715.892Z" transform="translate(-2329.282 -1561.481)" fill="url(#linear-gradient)"></path><path id="Path_1302" data-name="Path 1302" d="M2379.438,1726.368a1.465,1.465,0,0,0-2.477.639c.844.471,1.687.939,2.542,1.381A1.487,1.487,0,0,0,2379.438,1726.368Z" transform="translate(-2332.732 -1564.893)" fill="url(#linear-gradient)"></path></svg> 