<?xml version="1.0" encoding="UTF-8"?> <svg xmlns="http://www.w3.org/2000/svg" width="124.119" height="134.954" viewBox="0 0 124.119 134.954"><g id="Group_657" data-name="Group 657" transform="translate(-183.475 -575.547)"><g id="cell-phone" transform="translate(271.572 710.501) rotate(-135)"><g id="Group_655" data-name="Group 655" transform="translate(2.307 29.993)"><path id="Path_1660" data-name="Path 1660" d="M344.3,104v2.307a6.912,6.912,0,0,1-6.922,6.922H318.922A6.912,6.912,0,0,1,312,106.307V104Zm0,0" transform="translate(-224.327 -104)" fill="#03d59f"></path><path id="Path_1661" data-name="Path 1661" d="M40.3,104v2.307a6.912,6.912,0,0,1-6.922,6.922H14.922A6.912,6.912,0,0,1,8,106.307V104Zm0,0" transform="translate(-8 -104)" fill="#03d59f"></path></g><path id="Path_1667" data-name="Path 1667" d="M115.359,41.529H96.9A9.238,9.238,0,0,1,87.673,32.3V25.379H36.915V32.3a9.238,9.238,0,0,1-9.229,9.229H9.229A9.238,9.238,0,0,1,0,32.3V25.379A25.409,25.409,0,0,1,25.379,0h73.83a25.409,25.409,0,0,1,25.379,25.379V32.3A9.238,9.238,0,0,1,115.359,41.529ZM32.3,20.765H92.287V32.3A4.619,4.619,0,0,0,96.9,36.915h18.457a4.619,4.619,0,0,0,4.614-4.614V25.379A20.787,20.787,0,0,0,99.209,4.614H25.379A20.787,20.787,0,0,0,4.614,25.379V32.3a4.619,4.619,0,0,0,4.614,4.614H27.686A4.619,4.619,0,0,0,32.3,32.3Zm0,0" fill="#003777"></path></g><g id="Group_656" data-name="Group 656" transform="translate(184.5 575.547)"><path id="Path_1651" data-name="Path 1651" d="M271.305,62.61a31.3,31.3,0,1,1,31.3-31.3A31.342,31.342,0,0,1,271.305,62.61Zm0,0" transform="translate(-179.516)" fill="#03d59f"></path><path id="Path_1652" data-name="Path 1652" d="M305.609,87.3H288V82.656l12.485-14.269a4.89,4.89,0,0,0,1.211-3.221V64.8a4.891,4.891,0,0,0-9.783,0v2.935H288V64.8a8.8,8.8,0,0,1,17.609,0v.362a8.8,8.8,0,0,1-2.179,5.8L292.557,83.392h13.052Zm0,0" transform="translate(-215.777 -42.304)" fill="#003777"></path><path id="Path_1653" data-name="Path 1653" d="M391.653,87.305h-3.913v-5.87H376V77.061L386.53,56h5.123V77.522h3.913v3.913h-3.913Zm-11.508-9.783h7.6V62.331Zm0,0" transform="translate(-282.255 -42.304)" fill="#003777"></path></g></g></svg> 