<?xml version="1.0" encoding="UTF-8"?> <svg xmlns="http://www.w3.org/2000/svg" width="832" height="832" viewBox="0 0 832 832"><g id="Group_681" data-name="Group 681" transform="translate(416 -135)"><g id="Group_679" data-name="Group 679"><g id="Path_1729" data-name="Path 1729" transform="translate(-323 228)" fill="rgba(255,255,255,0)"><path d="M 323 644.5 C 301.1856689453125 644.5 279.385498046875 642.3024291992188 258.2049865722656 637.96826171875 C 237.5635070800781 633.7444458007813 217.2599182128906 627.4418334960938 197.8581695556641 619.235595703125 C 178.8083343505859 611.1781616210938 160.4345855712891 601.2051391601563 143.2473297119141 589.59375 C 126.2230834960938 578.0923461914063 110.2140808105469 564.8837280273438 95.66516876220703 550.3348388671875 C 81.11624908447266 535.785888671875 67.90766906738281 519.7769165039063 56.40625 502.7526550292969 C 44.79483413696289 485.5654296875 34.82183456420898 467.1916809082031 26.7644157409668 448.141845703125 C 18.55816650390625 428.7400817871094 12.25558376312256 408.4364929199219 8.031749725341797 387.7950134277344 C 3.697583436965942 366.614501953125 1.5 344.8143310546875 1.5 323 C 1.5 301.1856689453125 3.697583436965942 279.385498046875 8.031749725341797 258.2049865722656 C 12.25558376312256 237.5635070800781 18.55816650390625 217.2599182128906 26.7644157409668 197.8581695556641 C 34.82183456420898 178.8083343505859 44.79483413696289 160.4345855712891 56.40625 143.2473297119141 C 67.90766906738281 126.2230834960938 81.11624908447266 110.2140808105469 95.66516876220703 95.66516876220703 C 110.2140808105469 81.11624908447266 126.2230834960938 67.90766906738281 143.2473297119141 56.40625 C 160.4345855712891 44.79483413696289 178.8083343505859 34.82183456420898 197.8581695556641 26.7644157409668 C 217.2599182128906 18.55816650390625 237.5635070800781 12.25558376312256 258.2049865722656 8.031749725341797 C 279.385498046875 3.697583436965942 301.1856689453125 1.5 323 1.5 C 344.8143310546875 1.5 366.614501953125 3.697583436965942 387.7950134277344 8.031749725341797 C 408.4364929199219 12.25558376312256 428.7400817871094 18.55816650390625 448.141845703125 26.7644157409668 C 467.1916809082031 34.82183456420898 485.5654296875 44.79483413696289 502.7526550292969 56.40625 C 519.7769165039063 67.90766906738281 535.785888671875 81.11624908447266 550.3348388671875 95.66516876220703 C 564.8837280273438 110.2140808105469 578.0923461914063 126.2230834960938 589.59375 143.2473297119141 C 601.2051391601563 160.4345855712891 611.1781616210938 178.8083343505859 619.235595703125 197.8581695556641 C 627.4418334960938 217.2599182128906 633.7444458007813 237.5635070800781 637.96826171875 258.2049865722656 C 642.3024291992188 279.385498046875 644.5 301.1856689453125 644.5 323 C 644.5 344.8143310546875 642.3024291992188 366.614501953125 637.96826171875 387.7950134277344 C 633.7444458007813 408.4364929199219 627.4418334960938 428.7400817871094 619.235595703125 448.141845703125 C 611.1781616210938 467.1916809082031 601.2051391601563 485.5654296875 589.59375 502.7526550292969 C 578.0923461914063 519.7769165039063 564.8837280273438 535.785888671875 550.3348388671875 550.3348388671875 C 535.785888671875 564.8837280273438 519.7769165039063 578.0923461914063 502.7526550292969 589.59375 C 485.5654296875 601.2051391601563 467.1916809082031 611.1781616210938 448.141845703125 619.235595703125 C 428.7400817871094 627.4418334960938 408.4364929199219 633.7444458007813 387.7950134277344 637.96826171875 C 366.614501953125 642.3024291992188 344.8143310546875 644.5 323 644.5 Z" stroke="none"></path><path d="M 323 3 C 301.2864074707031 3 279.58740234375 5.18731689453125 258.5056762695313 9.5013427734375 C 237.9612426757813 13.705322265625 217.7530822753906 19.978271484375 198.4425048828125 28.14599609375 C 179.4818420410156 36.1656494140625 161.1940002441406 46.09197998046875 144.0870971679688 57.64923095703125 C 127.141845703125 69.09716796875 111.207275390625 82.24444580078125 96.725830078125 96.725830078125 C 82.24444580078125 111.207275390625 69.09716796875 127.141845703125 57.64923095703125 144.0870971679688 C 46.09197998046875 161.1940002441406 36.1656494140625 179.4818420410156 28.14599609375 198.4425048828125 C 19.978271484375 217.7530822753906 13.705322265625 237.9612426757813 9.5013427734375 258.5056762695313 C 5.18731689453125 279.58740234375 3 301.2864074707031 3 323 C 3 344.7135925292969 5.18731689453125 366.41259765625 9.5013427734375 387.4943237304688 C 13.705322265625 408.0387573242188 19.978271484375 428.2469177246094 28.14599609375 447.5574951171875 C 36.1656494140625 466.5181884765625 46.09197998046875 484.8059997558594 57.64923095703125 501.9129028320313 C 69.09716796875 518.858154296875 82.24444580078125 534.792724609375 96.725830078125 549.274169921875 C 111.207275390625 563.755615234375 127.141845703125 576.90283203125 144.0870971679688 588.3507690429688 C 161.1940002441406 599.9080200195313 179.4818420410156 609.8343505859375 198.4425048828125 617.85400390625 C 217.7530822753906 626.021728515625 237.9612426757813 632.294677734375 258.5056762695313 636.4986572265625 C 279.58740234375 640.8126831054688 301.2864074707031 643 323 643 C 344.7135925292969 643 366.41259765625 640.8126831054688 387.4943237304688 636.4986572265625 C 408.0387573242188 632.294677734375 428.2469177246094 626.021728515625 447.5574951171875 617.85400390625 C 466.5181884765625 609.8343505859375 484.8059997558594 599.9080200195313 501.9129028320313 588.3507690429688 C 518.858154296875 576.90283203125 534.792724609375 563.755615234375 549.274169921875 549.274169921875 C 563.755615234375 534.792724609375 576.90283203125 518.858154296875 588.3507690429688 501.9129028320313 C 599.9080200195313 484.8059997558594 609.8343505859375 466.5181884765625 617.85400390625 447.5574951171875 C 626.021728515625 428.2469177246094 632.294677734375 408.0387573242188 636.4986572265625 387.4943237304688 C 640.8126831054688 366.41259765625 643 344.7135925292969 643 323 C 643 301.2864074707031 640.8126831054688 279.58740234375 636.4986572265625 258.5056762695313 C 632.294677734375 237.9612426757813 626.021728515625 217.7530822753906 617.85400390625 198.4425048828125 C 609.8343505859375 179.4818420410156 599.9080200195313 161.1940002441406 588.3507690429688 144.0870971679688 C 576.90283203125 127.141845703125 563.755615234375 111.207275390625 549.274169921875 96.725830078125 C 534.792724609375 82.24444580078125 518.858154296875 69.09716796875 501.9129028320313 57.64923095703125 C 484.8059997558594 46.09197998046875 466.5181884765625 36.1656494140625 447.5574951171875 28.14599609375 C 428.2469177246094 19.978271484375 408.0387573242188 13.705322265625 387.4943237304688 9.5013427734375 C 366.41259765625 5.18731689453125 344.7135925292969 3 323 3 M 323 0 C 501.387939453125 0 646 144.6120910644531 646 323 C 646 501.387939453125 501.387939453125 646 323 646 C 144.6120910644531 646 0 501.387939453125 0 323 C 0 144.6120910644531 144.6120910644531 0 323 0 Z" stroke="none" fill="#f3f3f3"></path></g><circle id="Ellipse_15" data-name="Ellipse 15" cx="6" cy="6" r="6" transform="translate(53 860)" fill="#f3f3f3"></circle></g><g id="Group_678" data-name="Group 678"><g id="Path_1730" data-name="Path 1730" transform="translate(-231 320)" fill="rgba(255,255,255,0)"><path d="M 231 460.5 C 215.4277648925781 460.5 199.8657073974609 458.9312438964844 184.7461700439453 455.8373413085938 C 170.0116424560547 452.8222351074219 155.5182952880859 448.3232421875 141.668701171875 442.4653625488281 C 128.0702362060547 436.7137145996094 114.9543533325195 429.5945739746094 102.6854095458984 421.3058776855469 C 90.53264617919922 413.0956420898438 79.10470581054688 403.6667175292969 68.71900177001953 393.281005859375 C 58.33329391479492 382.8952941894531 48.90435409545898 371.4673461914063 40.69411849975586 359.3145751953125 C 32.40541076660156 347.045654296875 25.28629493713379 333.9297790527344 19.53464698791504 320.331298828125 C 13.67676448822021 306.4817199707031 9.177764892578125 291.9883422851563 6.162647247314453 277.2538146972656 C 3.068764686584473 262.1343078613281 1.5 246.5722351074219 1.5 231 C 1.5 215.4277648925781 3.068764686584473 199.8657073974609 6.162647247314453 184.7461700439453 C 9.177764892578125 170.0116424560547 13.67676448822021 155.5182952880859 19.53464698791504 141.668701171875 C 25.28629493713379 128.0702362060547 32.40541076660156 114.9543533325195 40.69411849975586 102.6854095458984 C 48.90435409545898 90.53264617919922 58.33329391479492 79.10470581054688 68.71900177001953 68.71900177001953 C 79.10470581054688 58.33329391479492 90.53264617919922 48.90435409545898 102.6854095458984 40.69411849975586 C 114.9543533325195 32.40541076660156 128.0702362060547 25.28629493713379 141.668701171875 19.53464698791504 C 155.5182952880859 13.67676448822021 170.0116424560547 9.177764892578125 184.7461700439453 6.162647247314453 C 199.8657073974609 3.068764686584473 215.4277648925781 1.5 231 1.5 C 246.5722351074219 1.5 262.1343078613281 3.068764686584473 277.2538146972656 6.162647247314453 C 291.9883422851563 9.177764892578125 306.4817199707031 13.67676448822021 320.331298828125 19.53464698791504 C 333.9297790527344 25.28629493713379 347.045654296875 32.40541076660156 359.3145751953125 40.69411849975586 C 371.4673461914063 48.90435409545898 382.8952941894531 58.33329391479492 393.281005859375 68.71900177001953 C 403.6667175292969 79.10470581054688 413.0956420898438 90.53264617919922 421.3058776855469 102.6854095458984 C 429.5945739746094 114.9543533325195 436.7137145996094 128.0702362060547 442.4653625488281 141.668701171875 C 448.3232421875 155.5182952880859 452.8222351074219 170.0116424560547 455.8373413085938 184.7461700439453 C 458.9312438964844 199.8657073974609 460.5 215.4277648925781 460.5 231 C 460.5 246.5722351074219 458.9312438964844 262.1343078613281 455.8373413085938 277.2538146972656 C 452.8222351074219 291.9883422851563 448.3232421875 306.4817199707031 442.4653625488281 320.331298828125 C 436.7137145996094 333.9297790527344 429.5945739746094 347.045654296875 421.3058776855469 359.3145751953125 C 413.0956420898438 371.4673461914063 403.6667175292969 382.8952941894531 393.281005859375 393.281005859375 C 382.8952941894531 403.6667175292969 371.4673461914063 413.0956420898438 359.3145751953125 421.3058776855469 C 347.045654296875 429.5945739746094 333.9297790527344 436.7137145996094 320.331298828125 442.4653625488281 C 306.4817199707031 448.3232421875 291.9883422851563 452.8222351074219 277.2538146972656 455.8373413085938 C 262.1343078613281 458.9312438964844 246.5722351074219 460.5 231 460.5 Z" stroke="none"></path><path d="M 231 3 C 215.5285339355469 3 200.0676574707031 4.5584716796875 185.046875 7.632171630859375 C 170.4093627929688 10.62747192382813 156.0114135742188 15.09683227539063 142.2530517578125 20.91610717773438 C 128.7437744140625 26.630126953125 115.7138366699219 33.7025146484375 103.5251159667969 41.93707275390625 C 91.45147705078125 50.09381103515625 80.09786987304688 59.46145629882813 69.77963256835938 69.77963256835938 C 59.46145629882813 80.09786987304688 50.09381103515625 91.45147705078125 41.93707275390625 103.5251159667969 C 33.7025146484375 115.7138366699219 26.630126953125 128.7437744140625 20.91610717773438 142.2530517578125 C 15.09683227539063 156.0114135742188 10.62747192382813 170.4093627929688 7.632171630859375 185.046875 C 4.5584716796875 200.0676574707031 3 215.5285339355469 3 231 C 3 246.4714660644531 4.5584716796875 261.932373046875 7.632171630859375 276.953125 C 10.62747192382813 291.5906372070313 15.09683227539063 305.9885864257813 20.91610717773438 319.7469482421875 C 26.630126953125 333.2562255859375 33.7025146484375 346.2861938476563 41.93707275390625 358.4748840332031 C 50.09381103515625 370.5485229492188 59.46145629882813 381.902099609375 69.77963256835938 392.2203369140625 C 80.09786987304688 402.5385131835938 91.45147705078125 411.9061889648438 103.5251159667969 420.0629272460938 C 115.7138366699219 428.2974853515625 128.7437744140625 435.369873046875 142.2530517578125 441.0838928222656 C 156.0114135742188 446.9031677246094 170.4093627929688 451.3725280761719 185.046875 454.3678283691406 C 200.0676574707031 457.4415283203125 215.5285339355469 459 231 459 C 246.4714660644531 459 261.932373046875 457.4415283203125 276.953125 454.3678283691406 C 291.5906372070313 451.3725280761719 305.9885864257813 446.9031677246094 319.7469482421875 441.0838928222656 C 333.2562255859375 435.369873046875 346.2861938476563 428.2974853515625 358.4748840332031 420.0629272460938 C 370.5485229492188 411.9061889648438 381.902099609375 402.5385131835938 392.2203369140625 392.2203369140625 C 402.5385131835938 381.902099609375 411.9061889648438 370.5485229492188 420.0629272460938 358.4748840332031 C 428.2974853515625 346.2861938476563 435.369873046875 333.2562255859375 441.0838928222656 319.7469482421875 C 446.9031677246094 305.9885864257813 451.3725280761719 291.5906372070313 454.3678283691406 276.953125 C 457.4415283203125 261.932373046875 459 246.4714660644531 459 231 C 459 215.5285339355469 457.4415283203125 200.0676574707031 454.3678283691406 185.046875 C 451.3725280761719 170.4093627929688 446.9031677246094 156.0114135742188 441.0838928222656 142.2530517578125 C 435.369873046875 128.7437744140625 428.2974853515625 115.7138366699219 420.0629272460938 103.5251159667969 C 411.9061889648438 91.45147705078125 402.5385131835938 80.09786987304688 392.2203369140625 69.77963256835938 C 381.902099609375 59.46145629882813 370.5485229492188 50.09381103515625 358.4748840332031 41.93707275390625 C 346.2861938476563 33.7025146484375 333.2562255859375 26.630126953125 319.7469482421875 20.91610717773438 C 305.9885864257813 15.09683227539063 291.5906372070313 10.62747192382813 276.953125 7.632171630859375 C 261.932373046875 4.5584716796875 246.4714660644531 3 231 3 M 231 0 C 358.5777587890625 0 462 103.4222412109375 462 231 C 462 358.5777587890625 358.5777587890625 462 231 462 C 103.4222412109375 462 0 358.5777587890625 0 231 C 0 103.4222412109375 103.4222412109375 0 231 0 Z" stroke="none" fill="#f9f9f9"></path></g><circle id="Ellipse_17" data-name="Ellipse 17" cx="6" cy="6" r="6" transform="translate(73 330)" fill="#f9f9f9"></circle></g><g id="Group_680" data-name="Group 680"><g id="Path_1728" data-name="Path 1728" transform="translate(-416 135)" fill="rgba(255,255,255,0)"><path d="M 416 830.5 C 401.8604431152344 830.5 387.6010131835938 829.780029296875 373.6180114746094 828.35986328125 C 359.8376770019531 826.96044921875 345.9908752441406 824.8472290039063 332.4622192382813 822.0787963867188 C 319.1086730957031 819.3463134765625 305.7441101074219 815.909912109375 292.7397766113281 811.8651123046875 C 279.8810119628906 807.8656616210938 267.0685424804688 803.1762084960938 254.6583404541016 797.9271240234375 C 230.0978851318359 787.5388793945313 206.4091186523438 774.6810913085938 184.2501068115234 759.7107543945313 C 162.3013305664063 744.8824462890625 141.6615600585938 727.8530883789063 122.9042205810547 709.0957641601563 C 104.1468887329102 690.3384399414063 87.1175537109375 669.6986694335938 72.28922271728516 647.7498779296875 C 57.31888961791992 625.5908813476563 44.46111297607422 601.902099609375 34.0728874206543 577.3416748046875 C 28.82377815246582 564.9314575195313 24.13433265686035 552.1190185546875 20.13488960266113 539.2601928710938 C 16.09011077880859 526.255859375 12.65366649627686 512.891357421875 9.921222686767578 499.5377807617188 C 7.152777671813965 486.0091247558594 5.039555549621582 472.1623229980469 3.640111207962036 458.3819885253906 C 2.220000028610229 444.3989868164063 1.5 430.1395568847656 1.5 416 C 1.5 401.8604431152344 2.220000028610229 387.6010131835938 3.640111207962036 373.6180114746094 C 5.039555549621582 359.8376770019531 7.152777671813965 345.9908752441406 9.921222686767578 332.4622192382813 C 12.65366649627686 319.1086730957031 16.09011077880859 305.7441101074219 20.13488960266113 292.7397766113281 C 24.13433265686035 279.8810119628906 28.82377815246582 267.0685424804688 34.0728874206543 254.6583404541016 C 44.46111297607422 230.0978851318359 57.31888961791992 206.4091186523438 72.28922271728516 184.2501068115234 C 87.1175537109375 162.3013305664063 104.1468887329102 141.6615600585938 122.9042205810547 122.9042205810547 C 141.6615600585938 104.1468887329102 162.3013305664063 87.1175537109375 184.2501068115234 72.28922271728516 C 206.4091186523438 57.31888961791992 230.0978851318359 44.46111297607422 254.6583404541016 34.0728874206543 C 267.0685424804688 28.82377815246582 279.8810119628906 24.13433265686035 292.7397766113281 20.13488960266113 C 305.7441101074219 16.09011077880859 319.1086730957031 12.65366649627686 332.4622192382813 9.921222686767578 C 345.9908752441406 7.152777671813965 359.8376770019531 5.039555549621582 373.6180114746094 3.640111207962036 C 387.6010131835938 2.220000028610229 401.8604431152344 1.5 416 1.5 C 430.1395568847656 1.5 444.3989868164063 2.220000028610229 458.3819885253906 3.640111207962036 C 472.1623229980469 5.039555549621582 486.0091247558594 7.152777671813965 499.5377807617188 9.921222686767578 C 512.891357421875 12.65366649627686 526.255859375 16.09011077880859 539.2601928710938 20.13488960266113 C 552.1190185546875 24.13433265686035 564.9314575195313 28.82377815246582 577.3416748046875 34.0728874206543 C 601.902099609375 44.46111297607422 625.5908813476563 57.31888961791992 647.7498779296875 72.28922271728516 C 669.6986694335938 87.1175537109375 690.3384399414063 104.1468887329102 709.0957641601563 122.9042205810547 C 727.8530883789063 141.6615600585938 744.8824462890625 162.3013305664063 759.7107543945313 184.2501068115234 C 774.6810913085938 206.4091186523438 787.5388793945313 230.0978851318359 797.9271240234375 254.6583404541016 C 803.1762084960938 267.0685424804688 807.8656616210938 279.8810119628906 811.8651123046875 292.7397766113281 C 815.909912109375 305.7441101074219 819.3463134765625 319.1086730957031 822.0787963867188 332.4622192382813 C 824.8472290039063 345.9908752441406 826.96044921875 359.8376770019531 828.35986328125 373.6180114746094 C 829.780029296875 387.6010131835938 830.5 401.8604431152344 830.5 416 C 830.5 430.1395568847656 829.780029296875 444.3989868164063 828.35986328125 458.3819885253906 C 826.96044921875 472.1623229980469 824.8472290039063 486.0091247558594 822.0787963867188 499.5377807617188 C 819.3463134765625 512.891357421875 815.909912109375 526.255859375 811.8651123046875 539.2601928710938 C 807.8656616210938 552.1190185546875 803.1762084960938 564.9314575195313 797.9271240234375 577.3416748046875 C 787.5388793945313 601.902099609375 774.6810913085938 625.5908813476563 759.7107543945313 647.7498779296875 C 744.8824462890625 669.6986694335938 727.8530883789063 690.3384399414063 709.0957641601563 709.0957641601563 C 690.3384399414063 727.8530883789063 669.6986694335938 744.8824462890625 647.7498779296875 759.7107543945313 C 625.5908813476563 774.6810913085938 601.902099609375 787.5388793945313 577.3416748046875 797.9271240234375 C 564.9314575195313 803.1762084960938 552.1190185546875 807.8656616210938 539.2601928710938 811.8651123046875 C 526.255859375 815.909912109375 512.891357421875 819.3463134765625 499.5377807617188 822.0787963867188 C 486.0091247558594 824.8472290039063 472.1623229980469 826.96044921875 458.3819885253906 828.35986328125 C 444.3989868164063 829.780029296875 430.1395568847656 830.5 416 830.5 Z" stroke="none"></path><path d="M 416 3 C 401.9107666015625 3 387.7024536132813 3.71746826171875 373.7695617675781 5.1324462890625 C 360.0391235351563 6.52679443359375 346.2425537109375 8.6324462890625 332.7628784179688 11.39080810546875 C 319.4581298828125 14.11334228515625 306.1422119140625 17.537109375 293.1853637695313 21.56719970703125 C 280.3734741210938 25.5521240234375 267.607666015625 30.22442626953125 255.24267578125 35.454345703125 C 230.7714233398438 45.80487060546875 207.1685791015625 58.6160888671875 185.0899047851563 73.5321044921875 C 163.2200927734375 88.3070068359375 142.65478515625 105.2750854492188 123.9649047851563 123.9649047851563 C 105.2750854492188 142.65478515625 88.3070068359375 163.2200927734375 73.5321044921875 185.0899047851563 C 58.6160888671875 207.1685791015625 45.80487060546875 230.7714233398438 35.454345703125 255.24267578125 C 30.22442626953125 267.607666015625 25.5521240234375 280.3734741210938 21.56719970703125 293.1853637695313 C 17.537109375 306.1422119140625 14.11334228515625 319.4581298828125 11.39080810546875 332.7628784179688 C 8.6324462890625 346.2425537109375 6.52679443359375 360.0391235351563 5.1324462890625 373.7695617675781 C 3.71746826171875 387.7024536132813 3 401.9107666015625 3 416 C 3 430.0892333984375 3.71746826171875 444.2975463867188 5.1324462890625 458.2304382324219 C 6.52679443359375 471.9608764648438 8.6324462890625 485.7574462890625 11.39080810546875 499.2371215820313 C 14.11334228515625 512.5418701171875 17.537109375 525.8577880859375 21.56719970703125 538.814697265625 C 25.5521240234375 551.6265869140625 30.22442626953125 564.392333984375 35.454345703125 576.75732421875 C 45.80487060546875 601.2285766601563 58.6160888671875 624.8314208984375 73.5321044921875 646.9100952148438 C 88.3070068359375 668.7799072265625 105.2750854492188 689.34521484375 123.9649047851563 708.0350952148438 C 142.65478515625 726.7249145507813 163.2200927734375 743.6929931640625 185.0899047851563 758.4678955078125 C 207.1685791015625 773.3839111328125 230.7714233398438 786.1951293945313 255.24267578125 796.545654296875 C 267.607666015625 801.7755737304688 280.3734741210938 806.4478759765625 293.1853637695313 810.4328002929688 C 306.1422119140625 814.462890625 319.4581298828125 817.8866577148438 332.7628784179688 820.6092529296875 C 346.2425537109375 823.3675537109375 360.0391235351563 825.4732055664063 373.7695617675781 826.8675537109375 C 387.7024536132813 828.2825317382813 401.9107666015625 829 416 829 C 430.0892333984375 829 444.2975463867188 828.2825317382813 458.2304382324219 826.8675537109375 C 471.9608764648438 825.4732055664063 485.7574462890625 823.3675537109375 499.2371215820313 820.6092529296875 C 512.5418701171875 817.8866577148438 525.8577880859375 814.462890625 538.814697265625 810.4328002929688 C 551.6265869140625 806.4478759765625 564.392333984375 801.7755737304688 576.75732421875 796.545654296875 C 601.2285766601563 786.1951293945313 624.8314208984375 773.3839111328125 646.9100952148438 758.4678955078125 C 668.7799072265625 743.6929931640625 689.34521484375 726.7249145507813 708.0350952148438 708.0350952148438 C 726.7249145507813 689.34521484375 743.6929931640625 668.7799072265625 758.4678955078125 646.9100952148438 C 773.3839111328125 624.8314208984375 786.1951293945313 601.2285766601563 796.545654296875 576.75732421875 C 801.7755737304688 564.392333984375 806.4478759765625 551.6265869140625 810.4328002929688 538.814697265625 C 814.462890625 525.8577880859375 817.8866577148438 512.5418701171875 820.6092529296875 499.2371215820313 C 823.3675537109375 485.7574462890625 825.4732055664063 471.9608764648438 826.8675537109375 458.2304382324219 C 828.2825317382813 444.2975463867188 829 430.0892333984375 829 416 C 829 401.9107666015625 828.2825317382813 387.7024536132813 826.8675537109375 373.7695617675781 C 825.4732055664063 360.0391235351563 823.3675537109375 346.2425537109375 820.6092529296875 332.7628784179688 C 817.8866577148438 319.4581298828125 814.462890625 306.1422119140625 810.4328002929688 293.1853637695313 C 806.4478759765625 280.3734741210938 801.7755737304688 267.607666015625 796.545654296875 255.24267578125 C 786.1951293945313 230.7714233398438 773.3839111328125 207.1685791015625 758.4678955078125 185.0899047851563 C 743.6929931640625 163.2200927734375 726.7249145507813 142.65478515625 708.0350952148438 123.9649047851563 C 689.34521484375 105.2750854492188 668.7799072265625 88.3070068359375 646.9100952148438 73.5321044921875 C 624.8314208984375 58.6160888671875 601.2285766601563 45.80487060546875 576.75732421875 35.454345703125 C 564.392333984375 30.22442626953125 551.6265869140625 25.5521240234375 538.814697265625 21.56719970703125 C 525.8577880859375 17.537109375 512.5418701171875 14.11334228515625 499.2371215820313 11.39080810546875 C 485.7574462890625 8.6324462890625 471.9608764648438 6.52679443359375 458.2304382324219 5.1324462890625 C 444.2975463867188 3.71746826171875 430.0892333984375 3 416 3 M 416 0 C 645.7504272460938 0 832 186.2495727539063 832 416 C 832 645.7504272460938 645.7504272460938 832 416 832 C 186.2495727539063 832 0 645.7504272460938 0 416 C 0 186.2495727539063 186.2495727539063 0 416 0 Z" stroke="none" fill="#efefef"></path></g><circle id="Ellipse_16" data-name="Ellipse 16" cx="6" cy="6" r="6" transform="translate(238 880)" fill="#f3f3f3"></circle></g></g></svg> 