<?xml version="1.0" encoding="UTF-8"?> <svg xmlns="http://www.w3.org/2000/svg" width="32.995" height="29.583" viewBox="0 0 32.995 29.583"><g id="heart" transform="translate(-6.56 -12.6)"><path id="Path_901" data-name="Path 901" d="M39.315,20.43c-.94-4.726-4.3-7.773-8.627-7.773a13.152,13.152,0,0,0-7.6,2.876A13.02,13.02,0,0,0,15.426,12.6C11.1,12.6,7.71,15.675,6.8,20.458,5.432,27.548,9.817,36.972,22.658,42.1a1.11,1.11,0,0,0,.854,0c12.813-5.239,17.169-14.635,15.8-21.668ZM23.085,39.763C11.81,35.093,7.909,26.95,9.077,20.885c.683-3.616,3.189-5.979,6.349-5.979,2.135,0,4.527,1.025,6.919,2.99a1.157,1.157,0,0,0,1.452,0,11.447,11.447,0,0,1,6.89-2.9c3.16,0,5.638,2.306,6.349,5.894C38.2,26.893,34.332,35.008,23.085,39.763Z"></path></g></svg> 