<?xml version="1.0" encoding="UTF-8"?> <svg xmlns="http://www.w3.org/2000/svg" width="127" height="125.564" viewBox="0 0 127 125.564"><g id="location" transform="translate(-1 -1)"><g id="Group_649" data-name="Group 649" transform="translate(33.404 1)"><path id="Path_1654" data-name="Path 1654" d="M47.378,77.959a6.154,6.154,0,0,1-4.863-2.4l-19.268-25.2A30.545,30.545,0,0,1,17,31.907v-.529a30.378,30.378,0,0,1,60.757,0v.529a30.541,30.541,0,0,1-6.248,18.452l-19.268,25.2A6.15,6.15,0,0,1,47.378,77.959Z" transform="translate(-17 -1)" fill="#03d59f"></path></g><g id="Group_650" data-name="Group 650" transform="translate(15.177 77.959)"><path id="Path_1655" data-name="Path 1655" d="M40.4,39H8V59.252H35.851A18.054,18.054,0,0,1,40.4,55.538V39Z" transform="translate(-8 -39)" fill="#03d59f"></path></g><g id="Group_651" data-name="Group 651" transform="translate(79.984 77.959)"><path id="Path_1656" data-name="Path 1656" d="M40,39V55.538a18.054,18.054,0,0,1,4.553,3.714H72.4V39Z" transform="translate(-40 -39)" fill="#03d59f"></path></g><g id="Group_652" data-name="Group 652" transform="translate(1 9.101)"><path id="Path_1657" data-name="Path 1657" d="M35.076,29.252a2.027,2.027,0,0,1-2.025-2.025H29a6.067,6.067,0,0,0,4.05,5.7v4.423H37.1V32.93a6.061,6.061,0,0,0-2.025-11.779A2.025,2.025,0,1,1,37.1,19.126h4.05a6.067,6.067,0,0,0-4.05-5.7V9H33.05v4.423A6.061,6.061,0,0,0,35.076,25.2a2.025,2.025,0,1,1,0,4.05Z" transform="translate(27.706 -0.899)" fill="#003777"></path><path id="Path_1658" data-name="Path 1658" d="M43.277,49.555A22.277,22.277,0,1,0,21,27.277,22.3,22.3,0,0,0,43.277,49.555Zm0-40.5A18.227,18.227,0,1,1,25.05,27.277,18.248,18.248,0,0,1,43.277,9.05Z" transform="translate(19.505 -5)" fill="#003777"></path><path id="Path_1659" data-name="Path 1659" d="M110.312,39.1h-4.05V31H77.908v8.1h-4.05V60.544a19.707,19.707,0,0,0-4.239-1.019,10.105,10.105,0,0,0-19.876,0A19.707,19.707,0,0,0,45.5,60.544V39.1h-4.05V31H13.1v8.1H9.05V91.757H5v4.05H114.362v-4.05h-4.05ZM81.959,35.05h20.252V39.1H81.959Zm-4.05,8.1h28.353V91.757h-16.2V71.5H85.381a19.681,19.681,0,0,0-2.284-4.05h2.912V63.4h-4.05V66.04a19.723,19.723,0,0,0-4.05-3.483Zm0,48.605h-4.05v-8.1h4.05Zm-8.1-12.151V91.757h-4.05V79.605H53.605V91.757h-4.05V79.605H37.4V91.757h-4.05v-16.2H86.009v16.2h-4.05V79.605Zm-8.1,12.151h-4.05v-8.1h4.05Zm-16.2,0h-4.05v-8.1H45.5ZM67.126,63.4a15.7,15.7,0,0,1,13.737,8.1H38.5a15.7,15.7,0,0,1,13.737-8.1Zm-7.445-8.1a6.067,6.067,0,0,1,5.7,4.05H53.98A6.063,6.063,0,0,1,59.681,55.3ZM17.151,35.05H37.4V39.1H17.151Zm-4.05,8.1H41.454V62.557A19.723,19.723,0,0,0,37.4,66.04V63.4h-4.05v4.05h2.912a19.681,19.681,0,0,0-2.284,4.05H29.3V91.757H13.1Z" transform="translate(3.101 21.656)" fill="#003777"></path><rect id="Rectangle_213" data-name="Rectangle 213" width="4" height="4" transform="translate(123 113.463)" fill="#003777"></rect><rect id="Rectangle_214" data-name="Rectangle 214" width="4" height="4" transform="translate(0 113.463)" fill="#003777"></rect><rect id="Rectangle_215" data-name="Rectangle 215" width="4" height="5" transform="translate(85 67.463)" fill="#003777"></rect><rect id="Rectangle_216" data-name="Rectangle 216" width="4" height="5" transform="translate(92 67.463)" fill="#003777"></rect><rect id="Rectangle_217" data-name="Rectangle 217" width="4" height="5" transform="translate(100 67.463)" fill="#003777"></rect><rect id="Rectangle_218" data-name="Rectangle 218" width="4" height="5" transform="translate(85 76.463)" fill="#003777"></rect><rect id="Rectangle_219" data-name="Rectangle 219" width="4" height="5" transform="translate(92 76.463)" fill="#003777"></rect><rect id="Rectangle_220" data-name="Rectangle 220" width="4" height="5" transform="translate(100 76.463)" fill="#003777"></rect><rect id="Rectangle_221" data-name="Rectangle 221" width="4" height="4" transform="translate(92 85.463)" fill="#003777"></rect><rect id="Rectangle_222" data-name="Rectangle 222" width="4" height="4" transform="translate(100 85.463)" fill="#003777"></rect><rect id="Rectangle_223" data-name="Rectangle 223" width="5" height="5" transform="translate(36 67.463)" fill="#003777"></rect><rect id="Rectangle_224" data-name="Rectangle 224" width="4" height="5" transform="translate(28 67.463)" fill="#003777"></rect><rect id="Rectangle_225" data-name="Rectangle 225" width="4" height="5" transform="translate(20 67.463)" fill="#003777"></rect><rect id="Rectangle_226" data-name="Rectangle 226" width="5" height="5" transform="translate(36 76.463)" fill="#003777"></rect><rect id="Rectangle_227" data-name="Rectangle 227" width="4" height="5" transform="translate(28 76.463)" fill="#003777"></rect><rect id="Rectangle_228" data-name="Rectangle 228" width="4" height="5" transform="translate(20 76.463)" fill="#003777"></rect><rect id="Rectangle_229" data-name="Rectangle 229" width="4" height="4" transform="translate(28 85.463)" fill="#003777"></rect><rect id="Rectangle_230" data-name="Rectangle 230" width="4" height="4" transform="translate(20 85.463)" fill="#003777"></rect></g></g></svg> 