<?xml version="1.0" encoding="UTF-8"?> <svg xmlns="http://www.w3.org/2000/svg" xmlns:xlink="http://www.w3.org/1999/xlink" width="133" height="133" viewBox="0 0 133 133"><defs><linearGradient id="linear-gradient" x1="0.5" x2="0.5" y2="1" gradientUnits="objectBoundingBox"><stop offset="0" stop-color="#00c1c2"></stop><stop offset="1" stop-color="#03d59f"></stop></linearGradient></defs><g id="opportunity" transform="translate(-1 -1)"><g id="Group_581" data-name="Group 581" transform="translate(1 1)"><path id="Path_1303" data-name="Path 1303" d="M42.638,46.985,32,79.195h4.29L47.016,68.469l-4.29-4.29,6.435-4.29,1.4-7.937Z" transform="translate(34.5 51.66)" fill="url(#linear-gradient)"></path><path id="Path_1304" data-name="Path 1304" d="M31.267,46.98,41.909,79.2h-4.29L26.893,68.475l4.29-4.29-6.435-4.29-1.4-7.937Z" transform="translate(24.591 51.655)" fill="url(#linear-gradient)"></path><path id="Path_1305" data-name="Path 1305" d="M7.435,1a6.435,6.435,0,1,0,6.435,6.435A6.443,6.443,0,0,0,7.435,1Z" transform="translate(-1 -1)" fill="url(#linear-gradient)"></path><path id="Path_1306" data-name="Path 1306" d="M7.435,57a6.435,6.435,0,1,0,6.435,6.435A6.443,6.443,0,0,0,7.435,57Z" transform="translate(-1 63.129)" fill="url(#linear-gradient)"></path><path id="Path_1307" data-name="Path 1307" d="M63.435,57a6.435,6.435,0,1,0,6.435,6.435A6.443,6.443,0,0,0,63.435,57Z" transform="translate(63.129 63.129)" fill="url(#linear-gradient)"></path><path id="Path_1308" data-name="Path 1308" d="M63.435,13.871A6.435,6.435,0,1,0,57,7.435,6.443,6.443,0,0,0,63.435,13.871Z" transform="translate(63.129 -1)" fill="url(#linear-gradient)"></path><path id="Path_1309" data-name="Path 1309" d="M63.435,38a6.435,6.435,0,1,0,6.435,6.435A6.443,6.443,0,0,0,63.435,38Z" transform="translate(63.129 41.371)" fill="url(#linear-gradient)"></path><path id="Path_1310" data-name="Path 1310" d="M7.435,38a6.435,6.435,0,1,0,6.435,6.435A6.443,6.443,0,0,0,7.435,38Z" transform="translate(-1 41.371)" fill="url(#linear-gradient)"></path></g><path id="Path_1311" data-name="Path 1311" d="M57.372,62.538a17.161,17.161,0,1,0-18.68,0A30.07,30.07,0,0,0,18,91.065v8.581H78.065V91.065A30.07,30.07,0,0,0,57.372,62.538ZM35.161,48.161A12.871,12.871,0,1,1,48.032,61.032,12.884,12.884,0,0,1,35.161,48.161ZM55.982,66.593l-7.95,24.067L40.084,66.593a25.512,25.512,0,0,1,15.9,0ZM22.29,91.065a25.753,25.753,0,0,1,13.828-22.8l8.947,27.087H22.29Zm51.484,4.29H51l8.947-27.087a25.758,25.758,0,0,1,13.826,22.8Z" transform="translate(19.468 34.355)" fill="#003777"></path><path id="Path_1312" data-name="Path 1312" d="M32.576,59.694H54.027V33.952H64.472L43.3,2.2,22.131,33.952H32.576ZM30.15,29.662,43.3,9.932,56.454,29.662H49.737V55.4H36.866V29.662Z" transform="translate(24.198 1.371)" fill="#003777"></path><path id="Path_1313" data-name="Path 1313" d="M35.643,63.427,51.427,47.643,32.453,29.4l7.27-7.27-37-7.4,7.4,37,7.27-7.27ZM8.2,20.2,31.022,24.76l-4.694,4.7L45.3,47.7l-9.6,9.6L17.458,38.326l-4.7,4.694Z" transform="translate(1.975 15.717)" fill="#003777"></path><path id="Path_1314" data-name="Path 1314" d="M50.276,22.125l7.27,7.27L38.572,47.642,54.356,63.426,72.6,44.452l7.27,7.27,7.4-37Zm26.963,20.9-4.7-4.694L54.3,57.3l-9.6-9.6L63.673,29.459l-4.694-4.7L81.806,20.2Z" transform="translate(43.026 15.716)" fill="#003777"></path><path id="Path_1315" data-name="Path 1315" d="M0,0H4.29V4.29H0Z" transform="translate(12.352 15.388) rotate(-45)" fill="#003777"></path><path id="Path_1316" data-name="Path 1316" d="M0,0H4.29V4.29H0Z" transform="translate(18.419 21.456) rotate(-45)" fill="#003777"></path><path id="Path_1317" data-name="Path 1317" d="M0,0H4.29V4.076H0Z" transform="translate(24.483 27.523) rotate(-45)" fill="#003777"></path><path id="Path_1318" data-name="Path 1318" d="M0,0H4.29V4.29H0Z" transform="translate(12.339 119.602) rotate(-45)" fill="#003777"></path><path id="Path_1319" data-name="Path 1319" d="M0,0H4.29V4.29H0Z" transform="translate(18.408 113.533) rotate(-45)" fill="#003777"></path><path id="Path_1320" data-name="Path 1320" d="M0,0H4.076V4.29H0Z" transform="translate(24.475 107.469) rotate(-45)" fill="#003777"></path><path id="Path_1321" data-name="Path 1321" d="M0,0H4.29V4.29H0Z" transform="translate(116.554 119.612) rotate(-45)" fill="#003777"></path><path id="Path_1322" data-name="Path 1322" d="M0,0H4.29V4.076H0Z" transform="translate(104.574 107.63) rotate(-45)" fill="#003777"></path><path id="Path_1323" data-name="Path 1323" d="M0,0H4.29V4.29H0Z" transform="translate(110.485 113.544) rotate(-45)" fill="#003777"></path><path id="Path_1324" data-name="Path 1324" d="M0,0H4.076V4.29H0Z" transform="translate(104.582 27.378) rotate(-45)" fill="#003777"></path><path id="Path_1325" data-name="Path 1325" d="M0,0H4.29V4.29H0Z" transform="translate(110.498 21.467) rotate(-45)" fill="#003777"></path><path id="Path_1326" data-name="Path 1326" d="M0,0H4.29V4.29H0Z" transform="translate(116.564 15.4) rotate(-45)" fill="#003777"></path><path id="Path_1327" data-name="Path 1327" d="M45,40h4.29v4.29H45Z" transform="translate(50.387 44.661)" fill="#003777"></path><path id="Path_1328" data-name="Path 1328" d="M49,40h4.29v4.29H49Z" transform="translate(54.968 44.661)" fill="#003777"></path><path id="Path_1329" data-name="Path 1329" d="M53,40h4.29v4.29H53Z" transform="translate(59.548 44.661)" fill="#003777"></path><path id="Path_1330" data-name="Path 1330" d="M17,40h4.29v4.29H17Z" transform="translate(18.323 44.661)" fill="#003777"></path><path id="Path_1331" data-name="Path 1331" d="M9,40h4.29v4.29H9Z" transform="translate(9.161 44.661)" fill="#003777"></path><path id="Path_1332" data-name="Path 1332" d="M13,40h4.29v4.29H13Z" transform="translate(13.742 44.661)" fill="#003777"></path></g></svg> 