<?xml version="1.0" encoding="UTF-8"?> <svg xmlns="http://www.w3.org/2000/svg" xmlns:xlink="http://www.w3.org/1999/xlink" id="planning" width="126.377" height="126.377" viewBox="0 0 126.377 126.377"><defs><linearGradient id="linear-gradient" x1="0.5" x2="0.5" y2="1" gradientUnits="objectBoundingBox"><stop offset="0" stop-color="#00c1c2"></stop><stop offset="1" stop-color="#03d59f"></stop></linearGradient></defs><g id="Group_597" data-name="Group 597" transform="translate(19.478 16.307)"><path id="Path_1604" data-name="Path 1604" d="M20.519,34.495,18.45,20H12.625L10.556,34.495l4.982,9.965Z" transform="translate(-10.556 2.422)" fill="url(#linear-gradient)"></path><path id="Path_1605" data-name="Path 1605" d="M27.976,37.851l5.216,4.782V21.23a2.039,2.039,0,0,1,2.038-2.038h6.115V11.038A4.051,4.051,0,0,1,41.91,9H33.192A10.2,10.2,0,0,0,23,19.192V34.347A24.44,24.44,0,0,1,27.976,37.851Z" transform="translate(2.365 -9)" fill="url(#linear-gradient)"></path><path id="Path_1606" data-name="Path 1606" d="M94.342,9H85.624a4.051,4.051,0,0,1,.565,2.038v8.153H92.3a2.039,2.039,0,0,1,2.038,2.038V92.572L78.035,108.879H35.23a2.039,2.039,0,0,1-2.038-2.038V58.328L23,49.155v59.723A10.2,10.2,0,0,0,33.192,119.07h61.15a10.2,10.2,0,0,0,10.192-10.192V19.192A10.2,10.2,0,0,0,94.342,9Z" transform="translate(2.365 -9)" fill="url(#linear-gradient)"></path></g><path id="Path_1607" data-name="Path 1607" d="M115.147,25.46H111.07V19.345a6.122,6.122,0,0,0-6.115-6.115h-2.424a16.469,16.469,0,0,0-31.829,0H68.265a6.122,6.122,0,0,0-6.115,6.115V25.46H58.073A4.081,4.081,0,0,0,54,29.537V46.306l-1.8-1.651A26.4,26.4,0,0,0,35.37,37.741a14.273,14.273,0,1,0-19.5.289A18.369,18.369,0,0,0,1,56.035V72.342A10.2,10.2,0,0,0,11.192,82.534v36.69A8.119,8.119,0,0,0,25.46,124.56a8.119,8.119,0,0,0,14.268-5.336V54.7L54,67.542v47.605a4.081,4.081,0,0,0,4.077,4.077h43.649l17.5-17.5V29.537A4.081,4.081,0,0,0,115.147,25.46Zm-48.92-6.115a2.039,2.039,0,0,1,2.038-2.038h4.077l1.753-.167.285-1.7a12.4,12.4,0,0,1,24.46,0l.312,1.871h5.8a2.039,2.039,0,0,1,2.038,2.038V27.5a2.039,2.039,0,0,1-2.038,2.038H68.265A2.039,2.039,0,0,1,66.227,27.5ZM15.268,27.5A10.192,10.192,0,1,1,25.46,37.69,10.2,10.2,0,0,1,15.268,27.5ZM34.29,41.767c.033,0,.065,0,.1,0l-8.93,17.86-8.8-17.6a14.242,14.242,0,0,1,2.687-.263Zm1.362,8.153v69.3a4.077,4.077,0,0,1-8.153,0V74.38H23.422v44.843a4.077,4.077,0,0,1-8.153,0V49.92H11.192V78.457a6.122,6.122,0,0,1-6.115-6.115V56.035a14.28,14.28,0,0,1,7.7-12.654L25.46,68.746,38.724,42.217A22.331,22.331,0,0,1,49.439,47.66l15.61,14.307a3.624,3.624,0,0,1-2.446,6.3h-.316a3.619,3.619,0,0,1-2.424-.929L40.511,49.92ZM58.073,71.066a7.662,7.662,0,0,0,4.211,1.276H62.6a7.7,7.7,0,0,0,5.206-13.378l-9.733-8.922V29.537h4.452a6.107,6.107,0,0,0,5.74,4.077h36.69a6.107,6.107,0,0,0,5.74-4.077h4.452v69.3H98.84v16.307H58.073Zm54.191,31.851-9.348,9.348v-9.348Z" transform="translate(-1 -1)" fill="#003777"></path><path id="Path_1608" data-name="Path 1608" d="M35,11h4.077v4.077H35Z" transform="translate(34.303 9.383)" fill="#003777"></path><path id="Path_1609" data-name="Path 1609" d="M49,11h4.077v4.077H49Z" transform="translate(48.84 9.383)" fill="#003777"></path><path id="Path_1610" data-name="Path 1610" d="M46.115,17.23A6.115,6.115,0,1,0,40,11.115,6.122,6.122,0,0,0,46.115,17.23Zm0-8.153a2.038,2.038,0,1,1-2.038,2.038A2.039,2.039,0,0,1,46.115,9.077Z" transform="translate(39.495 3.153)" fill="#003777"></path><path id="Path_1611" data-name="Path 1611" d="M55.115,41a6.115,6.115,0,1,0,6.115,6.115A6.122,6.122,0,0,0,55.115,41Zm0,8.153a2.038,2.038,0,1,1,2.038-2.038A2.039,2.039,0,0,1,55.115,49.153Z" transform="translate(48.84 40.534)" fill="#003777"></path><path id="Path_1612" data-name="Path 1612" d="M35.175,52.405l4.674-4.674,4.674,4.674,2.882-2.882-4.674-4.674,4.674-4.674-2.882-2.882-4.674,4.674-4.674-4.674-2.882,2.882,4.674,4.674-4.674,4.674Z" transform="translate(31.493 36.684)" fill="#003777"></path><path id="Path_1613" data-name="Path 1613" d="M48.293,33.175l4.674,4.674-4.674,4.674,2.882,2.882,4.674-4.674,4.674,4.674,2.882-2.882-4.674-4.674,4.674-4.674-2.882-2.882-4.674,4.674-4.674-4.674Z" transform="translate(48.106 29.416)" fill="#003777"></path><path id="Path_1614" data-name="Path 1614" d="M44.523,33.405l2.882-2.882-4.674-4.674,4.674-4.674-2.882-2.882-4.674,4.674-4.674-4.674-2.882,2.882,4.674,4.674-4.674,4.674,2.882,2.882,4.674-4.674Z" transform="translate(31.493 16.956)" fill="#003777"></path><path id="Path_1615" data-name="Path 1615" d="M67.69,35.268V21H53.422v4.077h7.309L50.067,35.741a9.419,9.419,0,0,0,0,13.323l5.868,5.868a5.344,5.344,0,0,1,0,7.556l-16.2,16.2a6.015,6.015,0,0,0-2.619-.614,6.115,6.115,0,1,0,6.115,6.115,6.015,6.015,0,0,0-.614-2.619l16.2-16.2a9.419,9.419,0,0,0,0-13.323L52.947,46.18a5.344,5.344,0,0,1,0-7.556L63.613,27.959v7.309ZM37.115,86.227a2.038,2.038,0,1,1,2.038-2.038A2.039,2.039,0,0,1,37.115,86.227Z" transform="translate(30.15 19.767)" fill="#003777"></path><path id="Path_1616" data-name="Path 1616" d="M57,53h4.077v4.077H57Z" transform="translate(57.147 52.994)" fill="#003777"></path><path id="Path_1617" data-name="Path 1617" d="M57,57h4.077v4.077H57Z" transform="translate(57.147 57.147)" fill="#003777"></path></svg> 