<?xml version="1.0" encoding="UTF-8"?> <svg xmlns="http://www.w3.org/2000/svg" width="38" height="48" viewBox="0 0 38 48"><g id="Polygon_1" data-name="Polygon 1" transform="translate(38) rotate(90)" fill="rgba(255,255,255,0)"><path d="M 42.5570182800293 36 L 5.44297981262207 36 C 4.909870147705078 36 4.652929782867432 35.63824081420898 4.567200183868408 35.48270034790039 C 4.481470108032227 35.32717132568359 4.312809944152832 34.91674041748047 4.597489833831787 34.46599960327148 L 23.15451049804688 5.084061145782471 C 23.41058921813965 4.678591251373291 23.79414939880371 4.618051052093506 24 4.618051052093506 C 24.20583915710449 4.618051052093506 24.58941078186035 4.678591251373291 24.84550094604492 5.084061145782471 L 43.40251159667969 34.46601104736328 C 43.68719100952148 34.91675186157227 43.51853179931641 35.32717132568359 43.43280029296875 35.48271179199219 C 43.34708023071289 35.63824081420898 43.09012985229492 36 42.5570182800293 36 Z" stroke="none"></path><path d="M 23.99999809265137 7.490734100341797 L 7.257301330566406 34 L 40.74269485473633 34 L 23.99999809265137 7.490734100341797 M 23.99999618530273 2.618049621582031 C 24.97390937805176 2.618049621582031 25.94782447814941 3.084056854248047 26.53647041320801 4.016071319580078 L 45.09349060058594 33.39802169799805 C 46.35512924194336 35.3956298828125 44.91968154907227 38 42.55702209472656 38 L 5.442981719970703 38 C 3.080310821533203 38 1.644870758056641 35.3956298828125 2.906509399414063 33.39802169799805 L 21.46352958679199 4.016071319580078 C 22.05216979980469 3.084056854248047 23.02608299255371 2.618049621582031 23.99999618530273 2.618049621582031 Z" stroke="none" fill="#fff"></path></g></svg> 