<?xml version="1.0" encoding="UTF-8"?> <svg xmlns="http://www.w3.org/2000/svg" xmlns:xlink="http://www.w3.org/1999/xlink" id="project" width="125.821" height="125.821" viewBox="0 0 125.821 125.821"><defs><linearGradient id="linear-gradient" x1="0.5" x2="0.5" y2="1" gradientUnits="objectBoundingBox"><stop offset="0" stop-color="#00c1c2"></stop><stop offset="1" stop-color="#03d59f"></stop></linearGradient></defs><g id="Group_590" data-name="Group 590" transform="translate(0 28.411)"><path id="Path_1581" data-name="Path 1581" d="M74.058,66.566V51.175L68.71,49.917a32.23,32.23,0,0,0-2.8-6.762L68.8,38.482l-6.957-6.957L53.1,42.892a22.324,22.324,0,1,1-31.141,0L13.217,31.525,6.26,38.482l2.892,4.674a32.339,32.339,0,0,0-2.8,6.762L1,51.175V66.566l5.347,1.258a32.231,32.231,0,0,0,2.8,6.762L6.258,79.26,17.142,90.144l4.672-2.894a32.258,32.258,0,0,0,6.762,2.8L29.833,95.4H45.224l1.258-5.347a32.257,32.257,0,0,0,6.762-2.8l4.672,2.894L68.8,79.26l-2.892-4.674a32.168,32.168,0,0,0,2.8-6.762Z" transform="translate(-1 2.01)" fill="url(#linear-gradient)"></path><path id="Path_1582" data-name="Path 1582" d="M45,35H73.411V45.147H45Z" transform="translate(44.293 5.588)" fill="url(#linear-gradient)"></path><path id="Path_1583" data-name="Path 1583" d="M45,15H73.411V25.147H45Z" transform="translate(44.293 -15)" fill="url(#linear-gradient)"></path></g><path id="Path_1584" data-name="Path 1584" d="M0,0H5.12V4.057H0Z" transform="translate(49.85 59.656) rotate(-52.431)" fill="#003777"></path><path id="Path_1585" data-name="Path 1585" d="M31.861,36.451a28.588,28.588,0,0,0,5.656-17.008V19H33.458v.442a24.507,24.507,0,0,1-4.846,14.579Z" transform="translate(27.423 17.529)" fill="#003777"></path><path id="Path_1586" data-name="Path 1586" d="M17.465,9.347a24.689,24.689,0,0,1,3.75-.288V5a28.834,28.834,0,0,0-4.367.335Z" transform="translate(15.314 3.118)" fill="#003777"></path><path id="Path_1587" data-name="Path 1587" d="M5,32.712H9.059A24.3,24.3,0,0,1,25.919,9.539l-1.25-3.86A28.346,28.346,0,0,0,5,32.712Z" transform="translate(3.117 3.816)" fill="#003777"></path><path id="Path_1588" data-name="Path 1588" d="M88.263,19.264a6.1,6.1,0,0,0-6.088,6.088V41.588a6.1,6.1,0,0,0,6.088,6.088h32.47a6.1,6.1,0,0,0,6.088-6.088V25.353a6.1,6.1,0,0,0-6.088-6.088H106.528V17.235a6.1,6.1,0,0,0-6.088-6.088H62.725A36.48,36.48,0,0,0,1,37.529v.442A36.722,36.722,0,0,0,8.576,60.244L19.3,74.191a24.1,24.1,0,0,0-6.129,16.1,24.353,24.353,0,1,0,48.705,0,24.1,24.1,0,0,0-6.129-16.1L66.482,60.244a36.277,36.277,0,0,0,2.9-4.448h31.056a2.031,2.031,0,0,1,2.029,2.029v2.029H88.263a6.1,6.1,0,0,0-6.088,6.088V82.177a6.1,6.1,0,0,0,6.088,6.088h32.47a6.1,6.1,0,0,0,6.088-6.088V65.942a6.1,6.1,0,0,0-6.088-6.088H106.528V57.825a6.1,6.1,0,0,0-6.088-6.088H71.328a36.653,36.653,0,0,0,2.73-13.765v-.442a36.309,36.309,0,0,0-7.679-22.323h34.061a2.031,2.031,0,0,1,2.029,2.029v2.029Zm34.5,46.676V82.175a2.031,2.031,0,0,1-2.029,2.029H88.263a2.031,2.031,0,0,1-2.029-2.029V65.94a2.031,2.031,0,0,1,2.029-2.029h32.47A2.031,2.031,0,0,1,122.763,65.94ZM49.705,78.116v4.059H25.353V78.116ZM29.411,35.5H25.353a4.059,4.059,0,1,1,4.059-4.059ZM41.588,74.058H33.47v-34.5h8.118Zm8.117,12.176a12.176,12.176,0,0,1-24.352,0ZM37.529,110.586A20.317,20.317,0,0,1,17.235,90.293a20.063,20.063,0,0,1,4.059-12.126v8.067a16.235,16.235,0,0,0,32.47,0V78.167a20.063,20.063,0,0,1,4.059,12.126A20.317,20.317,0,0,1,37.529,110.586ZM70,37.971a32.634,32.634,0,0,1-6.733,19.8L50.736,74.058h-5.09v-34.5h4.059a8.117,8.117,0,1,0-8.117-8.117V35.5H33.47V31.441a8.117,8.117,0,1,0-8.117,8.117h4.059v34.5h-5.09L11.792,57.77a32.638,32.638,0,0,1-6.733-19.8v-.442a32.47,32.47,0,0,1,64.94,0ZM45.646,35.5V31.441A4.059,4.059,0,1,1,49.705,35.5Zm77.116-10.147V41.588a2.031,2.031,0,0,1-2.029,2.029H88.263a2.031,2.031,0,0,1-2.029-2.029V25.352a2.031,2.031,0,0,1,2.029-2.029h32.47A2.031,2.031,0,0,1,122.763,25.352Z" transform="translate(-1 -1)" fill="#003777"></path><path id="Path_1589" data-name="Path 1589" d="M45,14H73.411v4.059H45Z" transform="translate(44.293 12.382)" fill="#003777"></path><path id="Path_1590" data-name="Path 1590" d="M57,18h4.059v4.059H57Z" transform="translate(56.645 16.499)" fill="#003777"></path><path id="Path_1591" data-name="Path 1591" d="M45,18H65.294v4.059H45Z" transform="translate(44.293 16.499)" fill="#003777"></path><path id="Path_1592" data-name="Path 1592" d="M45,34H73.411v4.059H45Z" transform="translate(44.293 32.969)" fill="#003777"></path><path id="Path_1593" data-name="Path 1593" d="M57,38h4.059v4.059H57Z" transform="translate(56.645 37.087)" fill="#003777"></path><path id="Path_1594" data-name="Path 1594" d="M45,38H65.294v4.059H45Z" transform="translate(44.293 37.087)" fill="#003777"></path></svg> 