<?xml version="1.0" encoding="UTF-8"?> <svg xmlns="http://www.w3.org/2000/svg" xmlns:xlink="http://www.w3.org/1999/xlink" width="133" height="133" viewBox="0 0 133 133"><defs><linearGradient id="linear-gradient" x1="0.5" x2="0.5" y2="1" gradientUnits="objectBoundingBox"><stop offset="0" stop-color="#00c1c2"></stop><stop offset="1" stop-color="#03d59f"></stop></linearGradient></defs><g id="research" transform="translate(-1 -1)"><path id="Path_1347" data-name="Path 1347" d="M48.194,1V31.032H38.056a17.154,17.154,0,1,0-22.046.5A19.326,19.326,0,0,0,1,50.339v23.6A10.738,10.738,0,0,0,11.726,84.661v40.758a8.545,8.545,0,0,0,15.016,5.616,8.472,8.472,0,0,0,13.137-.322,9.507,9.507,0,0,0,14.265.129L71.9,111.178,68.716,108.3,50.961,127.968a5.282,5.282,0,1,1-7.461-7.459l19.665-17.756L60.29,99.57,41.758,116.3V46.048h6.435V78.226h9.825v-4.29H52.484V46.048h14.81A19.506,19.506,0,1,0,56.909,31.032H52.484V5.29H129.71V73.935H115.592v4.29H134V1ZM13.871,18.161A12.871,12.871,0,1,1,26.742,31.032,12.884,12.884,0,0,1,13.871,18.161Zm23.6,23.6v83.661a4.29,4.29,0,1,1-8.581,0V85.18a4.323,4.323,0,0,1,1.257-3.033l2.4-2.4-3.033-3.033-2.4,2.4A8.633,8.633,0,0,0,24.6,85.18v40.239a4.29,4.29,0,1,1-8.581,0V43.9h-4.29V80.371A6.443,6.443,0,0,1,5.29,73.935v-23.6A15.034,15.034,0,0,1,20.306,35.323H70.718a3.218,3.218,0,1,1,0,6.435ZM76.081,43.9c-.039,0-.077-.006-.116-.006a7.445,7.445,0,0,0-.629-11.232l1.632-1.632H90.925A15.026,15.026,0,0,1,76.081,43.9ZM90.925,26.742h-12.7v-12.7A15.026,15.026,0,0,1,90.925,26.742ZM61.065,28.887A15.028,15.028,0,0,1,73.935,14.043V28l-3.05,3.05c-.058,0-.109-.017-.167-.017H61.232a14.931,14.931,0,0,1-.167-2.145Z" transform="translate(0 0)" fill="#003777"></path><path id="Path_1348" data-name="Path 1348" d="M0,0H4.074V4.29H0Z" transform="translate(56.648 111.76) rotate(-45)" fill="#003777"></path><path id="Path_1349" data-name="Path 1349" d="M0,0H4.29V4.29H0Z" transform="translate(44.512 123.895) rotate(-45)" fill="#003777"></path><path id="Path_1350" data-name="Path 1350" d="M0,0H4.29V4.29H0Z" transform="translate(50.579 117.829) rotate(-45)" fill="#003777"></path><path id="Path_1351" data-name="Path 1351" d="M47,5V43.613H72.742v-4.29h-4.29V22.161h-4.29V39.323h-4.29V13.581h-4.29V39.323H51.29V5Z" transform="translate(52.677 4.581)" fill="#003777"></path><path id="Path_1352" data-name="Path 1352" d="M58.177,89.355A32.177,32.177,0,1,1,90.355,57.177,32.214,32.214,0,0,1,58.177,89.355Zm0-53.629A21.452,21.452,0,1,0,79.629,57.177,21.476,21.476,0,0,0,58.177,35.726Z" transform="translate(28.629 27.484)" fill="url(#linear-gradient)"></path><path id="Path_1353" data-name="Path 1353" d="M53.6,76.194a23.6,23.6,0,1,1,23.6-23.6A23.625,23.625,0,0,1,53.6,76.194Zm0-42.9A19.306,19.306,0,1,0,72.9,52.6,19.327,19.327,0,0,0,53.6,33.29Z" transform="translate(33.21 32.065)" fill="#003777"></path><path id="Path_1354" data-name="Path 1354" d="M47.726,45.871h-4.29a2.146,2.146,0,0,1-2.145-2.145V41.581h6.435a2.146,2.146,0,0,1,2.145,2.145h4.29a6.443,6.443,0,0,0-6.435-6.435V33h-4.29v4.29H37v6.435a6.443,6.443,0,0,0,6.435,6.435h4.29a2.146,2.146,0,0,1,2.145,2.145v2.145H43.435a2.146,2.146,0,0,1-2.145-2.145H37a6.443,6.443,0,0,0,6.435,6.435v4.29h4.29v-4.29h6.435V52.306A6.443,6.443,0,0,0,47.726,45.871Z" transform="translate(41.226 36.645)" fill="#003777"></path><path id="Path_1355" data-name="Path 1355" d="M61.29,39.871H57v-4.29h4.29Zm0-8.581H57V27h4.29Z" transform="translate(64.129 29.774)" fill="#003777"></path></g></svg> 