<?xml version="1.0" encoding="UTF-8"?> <svg xmlns="http://www.w3.org/2000/svg" width="18.861" height="29.741" viewBox="0 0 18.861 29.741"><g id="share" transform="translate(-27.7 -6.6)"><path id="Path_900" data-name="Path 900" d="M31.677,25.435a4,4,0,0,0,1.976-.539l5.492,5.492a4.01,4.01,0,1,0,1.463-1.463l-5.466-5.492a3.892,3.892,0,0,0,0-3.952l5.466-5.466a4.01,4.01,0,1,0-1.463-1.463l-5.492,5.44a3.908,3.908,0,0,0-1.976-.513,3.977,3.977,0,1,0,0,7.955Zm10.932,5.055a1.9,1.9,0,1,1-1.9,1.9A1.895,1.895,0,0,1,42.609,30.491Zm0-21.838a1.9,1.9,0,1,1-1.9,1.9A1.895,1.895,0,0,1,42.609,8.653ZM31.678,19.559a1.9,1.9,0,1,1-1.9,1.9A1.895,1.895,0,0,1,31.678,19.559Z"></path></g></svg> 