<?xml version="1.0" encoding="UTF-8"?> <svg xmlns="http://www.w3.org/2000/svg" xmlns:xlink="http://www.w3.org/1999/xlink" id="smile" width="126.377" height="126.377" viewBox="0 0 126.377 126.377"><defs><linearGradient id="linear-gradient" x1="0.5" x2="0.5" y2="1" gradientUnits="objectBoundingBox"><stop offset="0" stop-color="#00c1c2"></stop><stop offset="1" stop-color="#03d59f"></stop></linearGradient></defs><path id="Path_1595" data-name="Path 1595" d="M44.328,80.5V71.914a22.48,22.48,0,0,1-11.364-13.84H32.1a8.153,8.153,0,0,1,0-16.307v0a8.15,8.15,0,0,1,8.151-8.151H61.788a7.059,7.059,0,0,0,4.99-2.067l.322-.322A5.765,5.765,0,0,1,76.941,35.3v6.466a8.153,8.153,0,0,1,0,16.307h-.866a22.48,22.48,0,0,1-11.364,13.84V80.5l17.177,2.864,16.839-8.418-2-2a32.553,32.553,0,0,1-9.594-23.166V33.613a32.613,32.613,0,1,0-65.227,0V49.775a32.545,32.545,0,0,1-9.594,23.164l-2,2,16.839,8.418Z" transform="translate(8.669 -1)" fill="url(#linear-gradient)"></path><g id="Group_591" data-name="Group 591" transform="translate(20 122.377)"><rect id="Rectangle_184" data-name="Rectangle 184" width="86" height="4" fill="#003777"></rect></g><g id="Group_592" data-name="Group 592" transform="translate(55.035 55.035)"><path id="Path_1596" data-name="Path 1596" d="M36.153,40.23A8.162,8.162,0,0,1,28,32.077V28H44.307v4.077A8.162,8.162,0,0,1,36.153,40.23Zm-4.077-8.153a4.077,4.077,0,0,0,8.153,0Z" transform="translate(-28 -28)" fill="#003777"></path></g><g id="Group_593" data-name="Group 593" transform="translate(67.265 38.728)"><path id="Path_1597" data-name="Path 1597" d="M46.23,26.115H42.153a2.038,2.038,0,0,0-4.077,0H34a6.115,6.115,0,0,1,12.23,0Z" transform="translate(-34 -20)" fill="#003777"></path></g><g id="Group_594" data-name="Group 594" transform="translate(46.882 38.728)"><path id="Path_1598" data-name="Path 1598" d="M36.23,26.115H32.153a2.038,2.038,0,1,0-4.077,0H24a6.115,6.115,0,1,1,12.23,0Z" transform="translate(-24 -20)" fill="#003777"></path></g><path id="Path_1599" data-name="Path 1599" d="M89.838,69.115,66.776,65.27V59.61A24.552,24.552,0,0,0,77.6,46.548a10.166,10.166,0,0,0,1.4-20.112V21.8a7.8,7.8,0,0,0-13.321-5.518l-.322.322a4.985,4.985,0,0,1-3.549,1.47H40.276a10.191,10.191,0,0,0-10,8.341A10.157,10.157,0,0,0,31.489,46.55,24.552,24.552,0,0,0,42.316,59.612v5.66L19.255,69.117a16.177,16.177,0,0,0-8.969,4.674L13.2,76.64a12.159,12.159,0,0,1,6.724-3.5l14.78-2.464a34.825,34.825,0,0,0,13.936,15.95l2.668,1.6,3.237-6.478,3.239,6.478,2.666-1.6A34.816,34.816,0,0,0,74.39,70.672l14.78,2.464a12.159,12.159,0,0,1,6.724,3.5l2.915-2.85A16.179,16.179,0,0,0,89.838,69.115ZM83.083,36.422a6.1,6.1,0,0,1-4.4,5.842,24.386,24.386,0,0,0,.326-3.8V30.682A6.107,6.107,0,0,1,83.083,36.422Zm-57.073,0a6.107,6.107,0,0,1,4.077-5.74V38.46a24.339,24.339,0,0,0,.326,3.8A6.1,6.1,0,0,1,26.01,36.422Zm8.153,2.038V28.266a6.122,6.122,0,0,1,6.113-6.113H61.815a9.029,9.029,0,0,0,6.429-2.664l.322-.322A3.729,3.729,0,0,1,74.93,21.8V38.46a20.383,20.383,0,0,1-40.767,0ZM54.546,62.92A24.3,24.3,0,0,0,62.7,61.493v4.66l-8.153,8.153-8.153-8.153v-4.66A24.3,24.3,0,0,0,54.546,62.92Zm-4.9,19.515A30.745,30.745,0,0,1,38.853,69.979l4.8-.8,8.412,8.412Zm9.8,0L57.027,77.59l8.412-8.412,4.8.8A30.778,30.778,0,0,1,59.449,82.435Z" transform="translate(8.642 12.498)" fill="#003777"></path><path id="Path_1600" data-name="Path 1600" d="M63.383,83.767A20.383,20.383,0,1,1,83.767,63.383,20.407,20.407,0,0,1,63.383,83.767Z" transform="translate(42.61 42.61)" fill="url(#linear-gradient)"></path><g id="Group_595" data-name="Group 595" transform="translate(93.764 105.994)"><path id="Path_1601" data-name="Path 1601" d="M59.23,65.23A12.242,12.242,0,0,1,47,53h4.077a8.153,8.153,0,1,0,16.307,0H71.46A12.242,12.242,0,0,1,59.23,65.23Z" transform="translate(-47 -53)" fill="#003777"></path></g><ellipse id="Ellipse_8" data-name="Ellipse 8" cx="2" cy="2.5" rx="2" ry="2.5" transform="translate(98 97.377)" fill="#003777"></ellipse><ellipse id="Ellipse_9" data-name="Ellipse 9" cx="2" cy="2.5" rx="2" ry="2.5" transform="translate(110 97.377)" fill="#003777"></ellipse><path id="Path_1602" data-name="Path 1602" d="M21.383,83.767A20.383,20.383,0,1,1,41.767,63.383,20.407,20.407,0,0,1,21.383,83.767Z" transform="translate(-1 42.61)" fill="url(#linear-gradient)"></path><g id="Group_596" data-name="Group 596" transform="translate(8.153 105.994)"><path id="Path_1603" data-name="Path 1603" d="M17.23,65.23A12.242,12.242,0,0,1,5,53H9.077a8.153,8.153,0,0,0,16.307,0H29.46A12.242,12.242,0,0,1,17.23,65.23Z" transform="translate(-5 -53)" fill="#003777"></path></g><ellipse id="Ellipse_10" data-name="Ellipse 10" cx="2" cy="2.5" rx="2" ry="2.5" transform="translate(12 97.377)" fill="#003777"></ellipse><circle id="Ellipse_11" data-name="Ellipse 11" cx="2.5" cy="2.5" r="2.5" transform="translate(24 97.377)" fill="#003777"></circle></svg> 