<?xml version="1.0" encoding="UTF-8"?> <svg xmlns="http://www.w3.org/2000/svg" xmlns:xlink="http://www.w3.org/1999/xlink" width="146.741" height="146.032" viewBox="0 0 146.741 146.032"><defs><linearGradient id="linear-gradient" x1="0.5" x2="0.5" y2="1" gradientUnits="objectBoundingBox"><stop offset="0" stop-color="#00c1c2"></stop><stop offset="1" stop-color="#03d59f"></stop></linearGradient></defs><g id="startup" transform="translate(-1 -1)"><path id="Path_1688" data-name="Path 1688" d="M93.053,70.583l-4.734,0V56.408H83.586V70.59l-4.734,0V61.142H74.119v9.453l-4.734,0V51.675H64.651V70.6l-4.734,0v-14.2H55.184v14.2l-5.07,0L45.689,41.848l-4.677.72,5.041,32.778,47-.028Z" transform="translate(54.688 55.83)" fill="url(#linear-gradient)"></path><path id="Path_1689" data-name="Path 1689" d="M48,19.932l-9.131,0V5.734H34.135V19.941l-4.734,0V10.467H24.668v9.479l-4.734,0V1H15.2V19.951l-4.734,0V5.734H5.734V19.958L1,19.96v4.734l42.938-.026,4.426,28.761,4.677-.72Z" fill="url(#linear-gradient)"></path><path id="Path_1690" data-name="Path 1690" d="M70.7,1A49.581,49.581,0,0,0,22.846,63.985l.166.6.592.592a57.539,57.539,0,0,1,4.059-4.57,58.128,58.128,0,0,1,9.971-7.964c-.043-.649-.066-1.3-.066-1.941A33.135,33.135,0,1,1,70.7,83.837c-.644,0-1.292-.024-1.941-.066A58.015,58.015,0,0,1,60.8,93.742a58.013,58.013,0,0,1-4.57,4.059l.589.589.6.166A49.685,49.685,0,1,0,70.7,1Z" transform="translate(27.336)" fill="#2166a9"></path><path id="Path_1691" data-name="Path 1691" d="M40.567,59.135A16.567,16.567,0,1,1,57.135,42.567,16.587,16.587,0,0,1,40.567,59.135Zm0-21.3A4.734,4.734,0,1,0,45.3,42.567,4.738,4.738,0,0,0,40.567,37.834Z" transform="translate(31.436 34.17)" fill="#2166a9"></path><path id="Path_1692" data-name="Path 1692" d="M35.1,44.2a7.1,7.1,0,1,1,7.1-7.1A7.109,7.109,0,0,1,35.1,44.2Zm0-9.467A2.367,2.367,0,1,0,37.467,37.1,2.369,2.369,0,0,0,35.1,34.734Z" transform="translate(36.903 39.637)" fill="url(#linear-gradient)"></path><path id="Path_1693" data-name="Path 1693" d="M0,0H30.124V4.734H0Z" transform="translate(8.779 136.587) rotate(-45)" fill="url(#linear-gradient)"></path><path id="Path_1694" data-name="Path 1694" d="M0,0H6.693V4.734H0Z" transform="translate(1.678 143.686) rotate(-45)" fill="url(#linear-gradient)"></path><path id="Path_1695" data-name="Path 1695" d="M0,0H20.082V4.734H0Z" transform="translate(22.976 136.59) rotate(-45)" fill="url(#linear-gradient)"></path><path id="Path_1696" data-name="Path 1696" d="M0,0H6.693V4.734H0Z" transform="translate(15.876 143.686) rotate(-45)" fill="url(#linear-gradient)"></path><path id="Path_1697" data-name="Path 1697" d="M0,0H20.082V4.734H0Z" transform="translate(8.78 122.39) rotate(-45)" fill="url(#linear-gradient)"></path><path id="Path_1698" data-name="Path 1698" d="M0,0H6.693V4.734H0Z" transform="translate(1.68 129.485) rotate(-45)" fill="url(#linear-gradient)"></path><path id="Path_1699" data-name="Path 1699" d="M95.3,7A35.542,35.542,0,0,0,59.8,42.5c0,.215.019.428.028.641a60.956,60.956,0,0,0-9.24,7.593,60.328,60.328,0,0,0-11.32,15.7l-1.048,2.1H33.915A35.318,35.318,0,0,0,3.312,86.3L3,86.841V93.12l12.253-4.085A30.571,30.571,0,0,1,24.9,87.471h3.851L23.785,97.4,40.4,114.019l9.936-4.968V112.9a30.441,30.441,0,0,1-1.567,9.649l-4.083,12.255h6.279l.544-.312a35.318,35.318,0,0,0,17.76-30.6V99.586l2.1-1.048a60.319,60.319,0,0,0,15.7-11.318,60.973,60.973,0,0,0,7.593-9.242c.213.007.424.026.639.026a35.5,35.5,0,1,0,0-71ZM24.9,82.737a35.144,35.144,0,0,0-11.145,1.811L9.035,86.122A30.593,30.593,0,0,1,33.915,73.27h1.941l-4.734,9.467Zm16.433,25.521L29.548,96.472,36,83.577l18.236,18.234Zm23.2-4.367a30.6,30.6,0,0,1-12.849,24.882l1.574-4.722a35.2,35.2,0,0,0,1.808-11.15v-6.218l9.467-4.734Zm19.19-20.021A55.589,55.589,0,0,1,69.251,94.3l-10.558,5.28L38.225,79.116l5.28-10.561A55.712,55.712,0,0,1,81.172,39.108,18.935,18.935,0,0,0,98.7,56.636,55.327,55.327,0,0,1,83.726,83.871Zm9.593-46.1a6.725,6.725,0,0,1,6.719,6.719,56.43,56.43,0,0,1-.507,7.455A14.2,14.2,0,0,1,85.861,38.275,56.493,56.493,0,0,1,93.319,37.768Zm0-4.734A60.93,60.93,0,0,0,80.99,34.3a16.518,16.518,0,1,1,22.52,22.52,60.949,60.949,0,0,0,1.261-12.329A11.467,11.467,0,0,0,93.319,33.035Zm4.246,40.122A59.52,59.52,0,0,0,101.981,62.7,21.283,21.283,0,1,0,75.109,35.825,59.7,59.7,0,0,0,64.65,40.241,30.752,30.752,0,1,1,97.565,73.156Z" transform="translate(2.734 8.201)" fill="url(#linear-gradient)"></path></g></svg> 