<?xml version="1.0" encoding="UTF-8"?> <svg xmlns="http://www.w3.org/2000/svg" xmlns:xlink="http://www.w3.org/1999/xlink" id="star" width="90.097" height="133" viewBox="0 0 90.097 133"><defs><linearGradient id="linear-gradient" x1="0.5" x2="0.5" y2="1" gradientUnits="objectBoundingBox"><stop offset="0" stop-color="#00c1c2"></stop><stop offset="1" stop-color="#03d59f"></stop></linearGradient></defs><path id="Path_1365" data-name="Path 1365" d="M80.177,0A32.214,32.214,0,0,0,48,32.177V49.339h2.145a8.581,8.581,0,0,1,8.581-8.581v-4.29h42.9v4.29a8.581,8.581,0,0,1,8.581,8.581h2.145V32.177A32.214,32.214,0,0,0,80.177,0Zm0,0" transform="translate(-35.129)" fill="url(#linear-gradient)"></path><path id="Path_1366" data-name="Path 1366" d="M149.452,370.9l-4.29-25.742,2.145-10.726L138.726,328l-8.581,6.435,2.111,10.76L128,370.9Zm0,0" transform="translate(-93.677 -240.048)" fill="url(#linear-gradient)"></path><path id="Path_1367" data-name="Path 1367" d="M79.83,157.191l-21.91-7.3v-4.444A23.67,23.67,0,0,0,67.763,132a10.694,10.694,0,0,0,.882-21.106v-4.507H48.217l-3.169-7.92-3.169,7.92H21.452v4.507A10.694,10.694,0,0,0,22.334,132a23.649,23.649,0,0,0,9.844,13.444v4.444l-21.91,7.3A15,15,0,0,0,0,171.437v33.625H90.1V171.437A15,15,0,0,0,79.83,157.191Zm-14.21-.215-6.244,12.492-10.965-9.4,7.794-6.233ZM72.936,121.4a6.425,6.425,0,0,1-4.38,6.069c.045-.59.09-1.178.09-1.779V115.36a6.427,6.427,0,0,1,4.29,6.041Zm-8.581-10.726v5.105L50.9,113.089l-.968-2.413Zm-16.578,6.167,7.16,1.431-5.824,4.368,1.308,6.544-5.373-4.031-5.375,4.031,1.308-6.544-5.824-4.368,7.16-1.431,2.731-6.828Zm-7.613-6.167-.966,2.413L25.742,115.78v-5.105Zm-23,10.726a6.427,6.427,0,0,1,4.29-6.041v10.331c0,.6.045,1.189.09,1.779a6.425,6.425,0,0,1-4.38-6.069Zm8.581,4.29v-9.117l10.5,7.877-2.982,14.907,11.786-8.84,11.786,8.84-2.982-14.907,10.5-7.877v9.117a19.306,19.306,0,1,1-38.613,0Zm19.306,23.6a23.428,23.428,0,0,0,8.581-1.639V150.4l-8.581,6.865L36.468,150.4v-2.753A23.428,23.428,0,0,0,45.048,149.288Zm-11.155,4.55,7.794,6.233-10.965,9.4-6.244-12.492Zm51.913,46.934H75.081v-23.6H70.79v23.6H19.307v-23.6h-4.29v23.6H4.291V171.437a10.714,10.714,0,0,1,7.334-10.177l8.74-2.913L29.342,176.3l15.706-13.463,15.7,13.463,8.978-17.954,8.74,2.913a10.713,10.713,0,0,1,7.336,10.177Zm0,0" transform="translate(0 -72.062)" fill="#003777"></path></svg> 