<?xml version="1.0" encoding="UTF-8"?> <svg xmlns="http://www.w3.org/2000/svg" xmlns:xlink="http://www.w3.org/1999/xlink" id="statistics" width="133" height="133" viewBox="0 0 133 133"><defs><linearGradient id="linear-gradient" x1="0.5" x2="0.5" y2="1" gradientUnits="objectBoundingBox"><stop offset="0" stop-color="#00c1c2"></stop><stop offset="1" stop-color="#03d59f"></stop></linearGradient></defs><ellipse id="Ellipse_6" data-name="Ellipse 6" cx="11" cy="10.5" rx="11" ry="10.5" transform="translate(107 26)" fill="url(#linear-gradient)"></ellipse><path id="Path_1088" data-name="Path 1088" d="M126.79,84.871a6.435,6.435,0,1,0-6.435-6.435,6.373,6.373,0,0,0,.723,2.9l-8.591,9.546-3.194-5.02-3.621,2.3,3.833,6.026-3.7,4.114a6.247,6.247,0,0,0-5.365.079L89.679,87.63a6.375,6.375,0,0,0,.644-2.759,6.435,6.435,0,0,0-12.871,0,6.36,6.36,0,0,0,.809,3.061L64.875,104.664a6.368,6.368,0,0,0-2.439-.487,6.435,6.435,0,1,0,6.435,6.435,6.36,6.36,0,0,0-.809-3.061L81.448,90.82a6.274,6.274,0,0,0,5.2-.159L97.4,101.419a6.375,6.375,0,0,0-.644,2.759,6.435,6.435,0,1,0,12.871,0,6.366,6.366,0,0,0-.723-2.9L111.9,97.95l8.791,13.815,3.621-2.3L114.878,94.64l9.3-10.333A6.4,6.4,0,0,0,126.79,84.871ZM62.435,112.758a2.145,2.145,0,1,1,2.145-2.145A2.146,2.146,0,0,1,62.435,112.758ZM81.742,84.871a2.145,2.145,0,1,1,2.145,2.145A2.146,2.146,0,0,1,81.742,84.871Zm21.452,21.452a2.145,2.145,0,1,1,2.145-2.145A2.146,2.146,0,0,1,103.194,106.323Zm23.6-30.032a2.145,2.145,0,1,1-2.145,2.145A2.146,2.146,0,0,1,126.79,76.29Z" transform="translate(-40.984 -52.694)" fill="#003777"></path><path id="Path_1089" data-name="Path 1089" d="M340.921,226.908V197.4c0-6.624-4.779-12.553-11.361-13.3a12.827,12.827,0,0,0-7.785,1.551c-.307.172-17.322,11.232-17.322,11.232l-9.653-9.653a4.552,4.552,0,0,0-6.435,0h0a4.552,4.552,0,0,0,0,6.435l11.013,11.013a6.031,6.031,0,0,0,6.716,1.246l9.085-4.037v25.028Z" transform="translate(-210.066 -134.666)" fill="url(#linear-gradient)"></path><g id="Group_565" data-name="Group 565"><path id="Path_1090" data-name="Path 1090" d="M133,0H0V12.871H6.435v90.1h8.774a12.9,12.9,0,0,0,7.371,9.567,15.031,15.031,0,0,0-9.709,14.029V133H42.9v-6.435a15.031,15.031,0,0,0-9.709-14.029,12.9,12.9,0,0,0,7.371-9.567H53.824a12.9,12.9,0,0,0,7.371,9.567,15.029,15.029,0,0,0-9.711,14.029V133H81.516v-6.435a15.031,15.031,0,0,0-9.709-14.029,12.9,12.9,0,0,0,7.371-9.567H92.437a12.9,12.9,0,0,0,7.371,9.567A15.029,15.029,0,0,0,90.1,126.565V133h30.032v-6.435a15.031,15.031,0,0,0-9.709-14.029A12.863,12.863,0,1,0,92.435,98.677H79.178a12.856,12.856,0,0,0-25.356,0H40.565a12.856,12.856,0,0,0-25.356,0H10.726V12.871H122.274V23.6h4.29V12.871H133ZM115.839,126.565v2.145H94.387v-2.145a10.726,10.726,0,0,1,21.452,0ZM105.113,92.242a8.581,8.581,0,1,1-8.581,8.581A8.589,8.589,0,0,1,105.113,92.242ZM77.226,126.565v2.145H55.774v-2.145a10.726,10.726,0,1,1,21.452,0ZM66.5,92.242a8.581,8.581,0,1,1-8.581,8.581A8.589,8.589,0,0,1,66.5,92.242ZM38.613,126.565v2.145H17.161v-2.145a10.726,10.726,0,1,1,21.452,0ZM27.887,92.242a8.581,8.581,0,1,1-8.581,8.581A8.589,8.589,0,0,1,27.887,92.242ZM128.71,8.581H4.29V4.29H128.71Z" fill="#003777"></path><path id="Path_1091" data-name="Path 1091" d="M423.215,186.344l-4.919,4.919-4.919-4.919-3.033,3.033,5.807,5.807v16.273h4.29V195.184l5.807-5.807Z" transform="translate(-300.312 -136.377)" fill="#003777"></path><rect id="Rectangle_164" data-name="Rectangle 164" width="35" height="4" transform="translate(34 69)" fill="#003777"></rect><rect id="Rectangle_165" data-name="Rectangle 165" width="28" height="5" transform="translate(41 77)" fill="#003777"></rect></g></svg> 