<?xml version="1.0" encoding="UTF-8"?> <svg xmlns="http://www.w3.org/2000/svg" xmlns:xlink="http://www.w3.org/1999/xlink" id="tea-cup" width="114.147" height="126.377" viewBox="0 0 114.147 126.377"><defs><linearGradient id="linear-gradient" x1="0.5" x2="0.5" y2="1" gradientUnits="objectBoundingBox"><stop offset="0" stop-color="#00c1c2"></stop><stop offset="1" stop-color="#03d59f"></stop></linearGradient></defs><g id="Group_603" data-name="Group 603"><path id="Path_1622" data-name="Path 1622" d="M132.032,128H58.652a6.122,6.122,0,0,0-6.115,6.115v2.142A30.591,30.591,0,0,0,24,166.73v4.075a30.6,30.6,0,0,0,30.316,30.563,30.6,30.6,0,0,0,28.8,20.4h24.46a30.61,30.61,0,0,0,30.575-30.575V134.115A6.122,6.122,0,0,0,132.032,128Zm-79.5,56.91a14.278,14.278,0,0,1-12.23-14.105v-4.077a14.278,14.278,0,0,1,12.23-14.105Zm-24.46-14.105v-4.077a26.517,26.517,0,0,1,24.46-26.4v8.17A18.368,18.368,0,0,0,36.23,166.726V170.8a18.368,18.368,0,0,0,16.307,18.225v2.161a30.565,30.565,0,0,0,.605,6.042A26.509,26.509,0,0,1,28.077,170.805ZM134.07,191.188a26.529,26.529,0,0,1-26.5,26.5H83.112a26.529,26.529,0,0,1-26.5-26.5V134.115a2.042,2.042,0,0,1,2.038-2.038H103.5a4.081,4.081,0,0,1,4.077,4.077V164.69h4.077V136.153a8.07,8.07,0,0,0-1.133-4.077h21.517a2.042,2.042,0,0,1,2.038,2.038Z" transform="translate(-24 -95.387)" fill="#003777"></path><path id="Path_1623" data-name="Path 1623" d="M210.652,9.173a9.184,9.184,0,0,0,9.173,9.173h6.115a5.1,5.1,0,0,1,5.1,5.1v5.1h4.077v-5.1a9.184,9.184,0,0,0-9.173-9.173h-6.115a5.1,5.1,0,0,1-5.1-5.1A9.184,9.184,0,0,0,205.556,0H176V4.077h29.556A5.1,5.1,0,0,1,210.652,9.173Z" transform="translate(-137.272)" fill="#003777"></path><rect id="Rectangle_188" data-name="Rectangle 188" width="4" height="4" transform="translate(49 18.377)" fill="#003777"></rect><rect id="Rectangle_189" data-name="Rectangle 189" width="6" height="4" transform="translate(39 18.377)" fill="#003777"></rect><path id="Path_1624" data-name="Path 1624" d="M194.345,39.134a7.142,7.142,0,0,0,7.134,7.134h2.038a3.061,3.061,0,0,1,3.057,3.058v3.058h4.077V49.326a7.142,7.142,0,0,0-7.134-7.134h-2.038a3.061,3.061,0,0,1-3.058-3.058A7.142,7.142,0,0,0,191.288,32H176v4.077h15.288A3.061,3.061,0,0,1,194.345,39.134Z" transform="translate(-137.272 -23.847)" fill="#003777"></path></g><path id="Path_1625" data-name="Path 1625" d="M332.537,304.767H304v-26.5a14.268,14.268,0,1,1,28.537,0Z" transform="translate(-232.658 -196.735)" fill="url(#linear-gradient)"></path><path id="Path_1626" data-name="Path 1626" d="M342.115,308.23a6.115,6.115,0,1,1,6.115-6.115A6.122,6.122,0,0,1,342.115,308.23Zm0-8.153a2.038,2.038,0,1,0,2.038,2.038A2.042,2.042,0,0,0,342.115,300.077Z" transform="translate(-256.505 -220.581)" fill="#003777"></path></svg> 