<?xml version="1.0" encoding="UTF-8"?> <svg xmlns="http://www.w3.org/2000/svg" xmlns:xlink="http://www.w3.org/1999/xlink" id="teamwork" width="132.5" height="132.5" viewBox="0 0 132.5 132.5"><defs><linearGradient id="linear-gradient" x1="0.5" x2="0.5" y2="1" gradientUnits="objectBoundingBox"><stop offset="0" stop-color="#00c1c2"></stop><stop offset="1" stop-color="#03d59f"></stop></linearGradient></defs><g id="Group_561" data-name="Group 561"><rect id="Rectangle_162" data-name="Rectangle 162" width="4" height="5" transform="translate(75.5 52)" fill="#003777"></rect><path id="Path_1082" data-name="Path 1082" d="M44.879,56a12.835,12.835,0,0,0-12.63,10.685H13.378A13.4,13.4,0,0,0,0,80.064v17.61a7.488,7.488,0,0,0,7.48,7.48,7.4,7.4,0,0,0,3.206-.75v31.738a7.469,7.469,0,0,0,12.823,5.219,7.365,7.365,0,0,0,8.548,1.511v8.23a7.469,7.469,0,0,0,12.823,5.219A7.469,7.469,0,0,0,57.7,151.1H53.427a3.206,3.206,0,0,1-6.411,0V122.25H42.742V151.1a3.206,3.206,0,0,1-6.411,0V92.331H32.056v20.3a3.206,3.206,0,1,1-6.411,0V95.023a9.114,9.114,0,0,1,9.1-9.1h20.26V81.645H36.331V78.354A12.815,12.815,0,1,0,44.879,56ZM28.851,120.113a7.4,7.4,0,0,0,3.206-.75v16.778a3.206,3.206,0,0,1-6.411,0V119.363A7.4,7.4,0,0,0,28.851,120.113Zm-7.48-25.09v41.118a3.206,3.206,0,0,1-6.411,0V77.371H10.685v20.3a3.206,3.206,0,1,1-6.411,0V80.064a9.114,9.114,0,0,1,9.1-9.1H32.251a12.779,12.779,0,0,0,3.1,6.411H32.056v4.546A13.4,13.4,0,0,0,21.371,95.023ZM44.879,77.371a8.548,8.548,0,1,1,8.548-8.548A8.557,8.557,0,0,1,44.879,77.371Z" transform="translate(0 -41.04)" fill="#003777"></path><rect id="Rectangle_163" data-name="Rectangle 163" width="4" height="5" transform="translate(53.5 52)" fill="#003777"></rect><path id="Path_1083" data-name="Path 1083" d="M65.645,12.823A12.823,12.823,0,1,0,52.823,25.645,12.835,12.835,0,0,0,65.645,12.823ZM52.823,21.371a8.548,8.548,0,1,1,8.548-8.548A8.557,8.557,0,0,1,52.823,21.371Z" transform="translate(-29.315)" fill="#003777"></path><path id="Path_1084" data-name="Path 1084" d="M385.645,12.823a12.823,12.823,0,1,0-12.823,12.823A12.835,12.835,0,0,0,385.645,12.823Zm-12.823,8.548a8.548,8.548,0,1,1,8.548-8.548A8.557,8.557,0,0,1,372.823,21.371Z" transform="translate(-263.831)" fill="#003777"></path><path id="Path_1085" data-name="Path 1085" d="M324.323,66.685H305.453a12.843,12.843,0,1,0-4.082,11.669v3.291H282.693v4.274h20.26a9.114,9.114,0,0,1,9.1,9.1v17.61a3.206,3.206,0,1,1-6.411,0v-20.3h-4.274V151.1a3.206,3.206,0,1,1-6.411,0V122.25h-4.274V151.1a3.206,3.206,0,0,1-6.411,0H280a7.469,7.469,0,0,0,12.823,5.219,7.469,7.469,0,0,0,12.823-5.219v-8.23a7.365,7.365,0,0,0,8.548-1.511,7.469,7.469,0,0,0,12.823-5.219V104.4a7.4,7.4,0,0,0,3.206.75,7.488,7.488,0,0,0,7.48-7.48V80.064A13.4,13.4,0,0,0,324.323,66.685Zm-31.5,10.685a8.548,8.548,0,1,1,8.548-8.548A8.557,8.557,0,0,1,292.823,77.371Zm16.028,61.976a3.21,3.21,0,0,1-3.206-3.206V119.363a7.225,7.225,0,0,0,6.411,0v16.778A3.21,3.21,0,0,1,308.851,139.347Zm24.577-41.673a3.206,3.206,0,0,1-6.411,0v-20.3h-4.274v58.77a3.206,3.206,0,1,1-6.411,0V95.023a13.4,13.4,0,0,0-10.685-13.1V77.371h-3.291a12.778,12.778,0,0,0,3.1-6.411h18.873a9.114,9.114,0,0,1,9.1,9.1v17.61Z" transform="translate(-205.202 -41.04)" fill="#003777"></path></g><g id="Group_562" data-name="Group 562" transform="translate(42.742 29.919)"><path id="Path_1086" data-name="Path 1086" d="M225.645,124.823a12.823,12.823,0,1,0-12.823,12.823A12.835,12.835,0,0,0,225.645,124.823Z" transform="translate(-189.315 -112)" fill="url(#linear-gradient)"></path><path id="Path_1087" data-name="Path 1087" d="M193.638,208h-20.26A13.4,13.4,0,0,0,160,221.378v17.61a7.488,7.488,0,0,0,7.48,7.48,7.4,7.4,0,0,0,3.206-.75v31.738a7.469,7.469,0,0,0,12.823,5.219,7.469,7.469,0,0,0,12.823-5.219V245.718a7.4,7.4,0,0,0,3.206.75,7.488,7.488,0,0,0,7.48-7.48v-17.61A13.4,13.4,0,0,0,193.638,208Z" transform="translate(-160 -182.355)" fill="url(#linear-gradient)"></path></g></svg> 